<svg width="40" height="40" viewBox="0 0 40 40" fill="none" xmlns="http://www.w3.org/2000/svg">
<circle cx="20" cy="20" r="20" fill="#0077B5"/>
<path d="M29.6 30.4V23.075C29.6 19.475 28.825 16.725 24.625 16.725C22.6 16.725 21.25 17.825 20.7 18.875H20.65V17.05H16.675V30.4H20.825V23.775C20.825 22.025 21.15 20.35 23.3 20.35C25.425 20.35 25.45 22.325 25.45 23.875V30.375H29.6V30.4Z" fill="white"/>
<path d="M9.92499 17.05H14.075V30.4H9.92499V17.05Z" fill="white"/>
<path d="M12 10.4C10.675 10.4 9.59998 11.475 9.59998 12.8C9.59998 14.125 10.675 15.225 12 15.225C13.325 15.225 14.4 14.125 14.4 12.8C14.4 11.475 13.325 10.4 12 10.4Z" fill="white"/>
</svg>
