<svg width="40" height="40" viewBox="0 0 40 40" fill="none" xmlns="http://www.w3.org/2000/svg">
<circle cx="20" cy="20" r="20" fill="#E1306C"/>
<path d="M24.1173 10.4H15.0827C12.0595 10.4 9.60001 12.8595 9.60001 15.8827V24.9173C9.60001 27.9405 12.0595 30.4 15.0827 30.4H24.1173C27.1405 30.4 29.6 27.9405 29.6 24.9173V15.8827C29.6 12.8595 27.1405 10.4 24.1173 10.4ZM28.4189 24.9173C28.4189 27.2892 26.4893 29.2189 24.1173 29.2189H15.0827C12.7108 29.2189 10.7811 27.2893 10.7811 24.9173V15.8827C10.7811 13.5108 12.7108 11.5811 15.0827 11.5811H24.1173C26.4893 11.5811 28.4189 13.5108 28.4189 15.8827V24.9173Z" fill="white"/>
<path d="M19.6 14.9145C16.5752 14.9145 14.1144 17.3753 14.1144 20.4C14.1144 23.4248 16.5752 25.8856 19.6 25.8856C22.6248 25.8856 25.0856 23.4248 25.0856 20.4C25.0856 17.3752 22.6248 14.9145 19.6 14.9145ZM19.6 24.7046C17.2265 24.7046 15.2955 22.7735 15.2955 20.4C15.2955 18.0265 17.2265 16.0955 19.6 16.0955C21.9736 16.0955 23.9046 18.0265 23.9046 20.4C23.9046 22.7736 21.9736 24.7046 19.6 24.7046Z" fill="white"/>
<path d="M25.5245 13.1734C24.6055 13.1734 23.8578 13.9211 23.8578 14.8401C23.8578 15.7591 24.6055 16.5068 25.5245 16.5068C26.4434 16.5068 27.1911 15.7591 27.1911 14.8401C27.1911 13.9211 26.4434 13.1734 25.5245 13.1734ZM25.5245 15.3256C25.2568 15.3256 25.0389 15.1078 25.0389 14.8401C25.0389 14.5723 25.2568 14.3545 25.5245 14.3545C25.7922 14.3545 26.01 14.5724 26.01 14.8401C26.01 15.1078 25.7922 15.3256 25.5245 15.3256Z" fill="white"/>
</svg>
