<svg width="40" height="40" viewBox="0 0 40 40" fill="none" xmlns="http://www.w3.org/2000/svg">
<circle cx="20" cy="20" r="20" fill="#00ACEE"/>
<path d="M29.6 13.927C28.85 14.2524 28.075 14.4776 27.25 14.5777C28.1 14.0772 28.75 13.2763 29.05 12.3003C28.25 12.7758 27.375 13.1012 26.45 13.3014C25.7 12.5005 24.625 12 23.45 12C21.175 12 19.35 13.8519 19.35 16.1043C19.35 16.4297 19.375 16.73 19.45 17.0303C16.05 16.8801 13.05 15.2284 11.025 12.7508C9.57501 15.3535 11.2 17.5058 12.275 18.2316C11.625 18.2316 10.975 18.0313 10.425 17.731C10.425 19.7582 11.85 21.4349 13.7 21.8103C13.3 21.9354 12.4 22.0105 11.85 21.8854C12.375 23.5121 13.9 24.7134 15.675 24.7384C14.275 25.8396 12.225 26.7155 9.60001 26.4402C11.425 27.6164 13.575 28.2921 15.9 28.2921C23.45 28.2921 27.55 22.0356 27.55 16.6299C27.55 16.4547 27.55 16.2795 27.525 16.1043C28.375 15.4787 29.075 14.7529 29.6 13.927Z" fill="white"/>
</svg>
