<svg width="20" height="20" viewBox="0 0 20 20" fill="none" xmlns="http://www.w3.org/2000/svg">
<path d="M10.0001 0C15.5229 0 20 4.4771 20 9.99991C20 15.5227 15.5229 20 10.0001 20C4.47728 20 -6.35599e-07 15.5227 -6.35599e-07 9.99991C0.00622496 4.47966 4.47966 0.00622554 10.0001 0V0ZM10.0001 18.9999C14.9707 18.9999 19.0001 14.9705 19.0001 9.99991C19.0001 5.02934 14.9707 0.999936 10.0001 0.999936C5.02953 0.999936 1.00012 5.02934 1.00012 9.99991C1.00579 14.9681 5.03191 18.9942 10.0001 18.9999V18.9999Z" fill="white"/>
<path d="M11.1709 6.12362C11.3789 5.9418 11.6947 5.96304 11.8766 6.17087C12.0582 6.37887 12.037 6.69473 11.8291 6.87655L8.25932 9.99996L11.8293 13.1235C12.0373 13.3054 12.0584 13.6212 11.8767 13.829C11.6949 14.0371 11.3791 14.0583 11.1711 13.8765L7.17113 10.3764C7.06255 10.2816 7.00029 10.1442 7.00029 9.99996C7.00029 9.85567 7.06255 9.71852 7.17113 9.62349L11.1709 6.12362Z" fill="white"/>
</svg>
