<svg width="20" height="20" viewBox="0 0 20 20" fill="none" xmlns="http://www.w3.org/2000/svg">
<path d="M9.99991 0C4.4771 0 0 4.4771 0 9.99991C0 15.5227 4.4771 20 9.99991 20C15.5227 20 20 15.5227 20 9.99991C19.9938 4.47966 15.5203 0.00622554 9.99991 0V0ZM9.99991 18.9999C5.02934 18.9999 0.999936 14.9705 0.999936 9.99991C0.999936 5.02934 5.02934 0.999936 9.99991 0.999936C14.9705 0.999936 18.9999 5.02934 18.9999 9.99991C18.9942 14.9681 14.9681 18.9942 9.99991 18.9999Z" fill="white"/>
<path d="M8.82913 6.12362C8.62113 5.9418 8.30527 5.96304 8.12345 6.17087C7.94181 6.37887 7.96305 6.69473 8.17087 6.87655L11.7407 9.99996L8.17069 13.1235C7.96268 13.3054 7.94163 13.6212 8.12327 13.829C8.30509 14.0371 8.62094 14.0583 8.82895 13.8765L12.8289 10.3764C12.9375 10.2816 12.9997 10.1442 12.9997 9.99996C12.9997 9.85567 12.9375 9.71852 12.8289 9.62349L8.82913 6.12362Z" fill="white"/>
</svg>
