<svg width="80" height="80" viewBox="0 0 80 80" fill="none" xmlns="http://www.w3.org/2000/svg">
<rect width="80" height="80" rx="10" fill="#5A6478"/>
<path d="M53.2681 49.3236C53.0008 48.9623 52.7102 48.6127 52.4196 48.2631C51.3722 46.7953 49.9511 45.6362 48.3046 44.9067H48.2929C48.3338 46.4048 48.5762 47.8905 49.0137 49.3236C49.4598 50.6499 49.4393 52.0894 48.9555 53.4024C48.5487 54.4979 48.0837 55.6516 47.5955 56.8636C47.5955 56.8667 47.5943 56.8697 47.5921 56.8719C47.5899 56.8741 47.5869 56.8753 47.5839 56.8753C45.0846 62.9703 39.1097 75.2418 39.1097 75.2418C39.2841 75.2418 40.4465 75.1602 40.865 75.1369C52.9543 74.2046 65.7643 70.3938 65.7643 65.8488C65.7527 59.9752 59.8824 53.146 53.2681 49.3236Z" fill="#1C9699"/>
<path d="M26.4974 52.8197C26.2099 53.1723 25.9495 53.5463 25.7186 53.9385C20.6852 56.5023 16.1518 61.3154 14.6174 64.7416C13.7223 66.7344 13.6525 69.0536 15.4078 70.3588C17.2212 71.699 20.9294 73.82 27.5901 74.8106C28.1481 74.8922 28.7293 74.9621 29.3337 75.032C27.7412 66.3382 28.2759 60.3365 30.0312 56.8753V56.8636C30.2992 56.32 30.6267 55.808 31.0076 55.3369C32.1352 53.9618 32.5037 48.8492 32.2131 47.8586C30.0687 49.2132 28.1416 50.8859 26.4974 52.8197Z" fill="#1C9699"/>
<path d="M56.6509 31.9594C57.0618 28.781 56.773 25.5509 55.8047 22.4965C54.2575 17.6659 51.3037 9.78559 41.1208 8.0375C34.395 6.8826 25.8 8.6202 23.0625 14.3504C21.6548 17.2965 20.7376 21.0269 21.7547 22.6247C21.2781 25.643 22.0453 28.1952 22.057 31.0155C22.0686 37.4018 23.3589 42.2731 25.8697 45.0584C27.5508 46.7705 29.8087 47.792 32.2015 47.9229C32.4921 48.9135 32.1352 53.962 31.0077 55.3371C30.6267 55.8081 30.2993 56.3202 30.0312 56.8638V56.8755C29.2408 62.0731 44.3292 61.7934 47.584 56.8755C47.587 56.8755 47.59 56.8742 47.5922 56.872C47.5944 56.8699 47.5956 56.8669 47.5956 56.8638C48.0838 55.6518 48.5488 54.4981 48.9556 53.4026C49.4394 52.0896 49.4599 50.6501 49.0137 49.3237C48.5763 47.8907 48.3339 46.405 48.293 44.9069C48.2523 43.7881 48.2678 42.6679 48.3395 41.5506V41.5389C49.2088 40.5016 49.8717 39.3069 50.2924 38.0195C50.7312 38.4134 51.2571 38.697 51.8268 38.8469C54.1749 39.3597 56.1394 37.1454 56.6625 34.7913C56.8739 33.8588 56.8699 32.8902 56.6509 31.9594Z" fill="#FFBF94"/>
<path d="M58.1852 15.5156C60.5101 20.5151 58.3247 23.0557 56.8135 23.0324C58.0108 25.5846 58.2084 29.5003 56.6508 31.9592C56.5345 31.2962 56.2288 30.6811 55.7707 30.1888C55.3126 29.6965 54.7219 29.348 54.0702 29.1856C53.506 29.0956 52.9292 29.127 52.378 29.2777C51.8269 29.4284 51.314 29.695 50.8735 30.0597C50.4339 30.433 50.0605 30.8782 49.7692 31.3766C44.3174 31.5863 46.7004 21.8903 46.7004 21.8903C40.5976 21.2726 41.4229 17.858 41.4229 15.5273C37.6102 17.893 32.9953 17.4268 33.2859 14.8513C28.9152 18.9652 25.0675 18.534 24.405 16.7742H24.3933C22.8962 18.3805 21.9688 20.4366 21.7546 22.6245C16.0006 20.2937 17.8837 14.9329 20.7433 13.5228C20.7433 13.5228 18.2324 12.3574 20.5922 9.89844C22.9635 7.41616 27.6946 7.3812 27.6946 7.3812C27.6946 7.3812 26.4625 7.2297 27.2413 5.81958C27.9736 4.51434 32.0886 3.96661 37.6218 4.00157C41.9577 4.02488 47.4327 6.53046 47.7814 6.68196C47.6652 6.51881 46.5841 5.0038 47.5373 4.32788C49.1299 3.19745 49.7692 6.65866 49.7692 6.65866C49.7692 6.65866 52.9659 5.53988 53.1286 7.3812C53.2914 9.12928 51.478 8.58155 51.2804 8.52328C54.2575 10.069 56.6734 12.5155 58.1852 15.5156Z" fill="#934747"/>
<path d="M47.5839 56.8752C45.0847 62.9702 39.7003 75.2185 39.7003 75.2185C39.4678 75.2301 38.0985 75.2884 37.9473 75.2884C35.0737 75.4135 32.1949 75.3278 29.3337 75.032C27.7412 66.3382 28.2759 60.3364 30.0312 56.8752C29.2407 62.0729 44.3291 61.7932 47.5839 56.8752Z" fill="#EDEAE8"/>
<path d="M30.0312 56.8753C28.2759 60.3365 27.7412 66.3382 29.3337 75.032C28.7293 74.9621 28.1481 74.8922 27.5901 74.8106C25.2071 70.4987 23.8122 61.4319 24.219 57.9125C24.4105 56.4906 24.9233 55.1313 25.7186 53.9385C25.9495 53.5463 26.2099 53.1723 26.4974 52.8197C28.1416 50.8859 30.0687 49.2132 32.2131 47.8586C32.5037 48.8492 32.1352 53.9618 31.0076 55.3369C30.6267 55.808 30.2992 56.32 30.0312 56.8636V56.8753Z" fill="#32B7B3"/>
<path d="M55.1397 53.752C54.6631 57.2366 48.6998 66.6529 40.865 75.1369C40.3721 75.1929 39.2841 75.2418 39.1097 75.2418C39.1097 75.2418 45.0846 62.9703 47.5839 56.8753C47.5869 56.8753 47.5899 56.8741 47.5921 56.8719C47.5943 56.8697 47.5955 56.8667 47.5955 56.8636C48.0837 55.6516 48.5487 54.4979 48.9555 53.4024C49.4393 52.0894 49.4598 50.6499 49.0137 49.3236C48.5762 47.8905 48.3338 46.4048 48.2929 44.9067H48.3046C49.9511 45.6362 51.3722 46.7953 52.4196 48.2631C52.7102 48.6127 53.0008 48.9623 53.2682 49.3236C54.4538 50.9318 55.3024 52.5983 55.1397 53.752Z" fill="#32B7B3"/>
<path d="M45.0207 44.3835C45.3694 44.1505 46.1425 43.5899 46.3866 43.4034C47.1105 42.8635 47.7662 42.2374 48.3395 41.5388C48.2677 42.66 48.2522 43.7841 48.293 44.9068C48.3338 46.4049 48.5762 47.8906 49.0137 49.3236C49.4598 50.6499 49.4393 52.0895 48.9556 53.4025C48.5487 54.4979 48.0837 55.6517 47.5955 56.8637C47.5955 56.8668 47.5943 56.8697 47.5921 56.8719C47.5899 56.8741 47.587 56.8753 47.5839 56.8753C44.3291 61.7933 29.2407 62.073 30.0312 56.8753V56.8637C30.2992 56.3201 30.6267 55.808 31.0076 55.337C32.1352 53.9619 32.492 48.9134 32.2014 47.9228C32.9638 47.965 33.7279 47.965 34.4903 47.9228C36.05 47.8585 37.5966 47.6097 39.0981 47.1816C41.2012 46.5521 43.1977 45.6088 45.0207 44.3835Z" fill="#FFA87D"/>
<path d="M32.1642 39.9515C31.9503 39.9515 31.7353 39.941 31.5156 39.92C30.9915 39.9153 30.4742 39.8018 29.9961 39.5868C29.5179 39.3718 29.0894 39.0599 28.7373 38.6707C28.6943 38.6075 28.6641 38.5364 28.6484 38.4615C28.6328 38.3866 28.632 38.3093 28.6462 38.2341C28.6603 38.1589 28.6891 38.0872 28.7309 38.0232C28.7726 37.9591 28.8266 37.9039 28.8896 37.8608C29.017 37.7736 29.1736 37.7407 29.3251 37.7694C29.4001 37.7835 29.4716 37.8124 29.5355 37.8543C29.5994 37.8962 29.6545 37.9502 29.6975 38.0134C30.2237 38.4953 30.9111 38.7614 31.6237 38.7593C32.1541 38.8425 32.6959 38.8159 33.2157 38.6813C33.7354 38.5466 34.2222 38.3066 34.646 37.9762C34.7556 37.87 34.9024 37.8113 35.0548 37.8126C35.2072 37.8139 35.353 37.8752 35.4607 37.9832C35.5685 38.0913 35.6296 38.2374 35.631 38.3902C35.6323 38.543 35.5737 38.6902 35.4678 38.8001C34.557 39.5985 33.3726 40.0113 32.1642 39.9515Z" fill="#F77261"/>
<path d="M31.2215 35.5603C30.5418 35.5634 29.8882 35.2979 29.4023 34.8215C29.1838 34.6126 29.0348 34.3414 28.9756 34.0447C28.9163 33.748 28.9496 33.4402 29.071 33.1631C29.0999 33.0901 29.1433 33.0237 29.1986 32.9679C29.2538 32.9121 29.3197 32.8681 29.3923 32.8385C29.465 32.8089 29.5428 32.7944 29.6212 32.7957C29.6996 32.7971 29.7769 32.8144 29.8484 32.8465C29.92 32.8785 29.9844 32.9248 30.0376 32.9825C30.0909 33.0402 30.1319 33.1081 30.1583 33.1821C30.1847 33.2561 30.196 33.3347 30.1913 33.4131C30.1866 33.4916 30.1661 33.5683 30.1311 33.6386C30.1079 33.6922 30.0521 33.8169 30.2415 34.015C30.4351 34.1923 30.6735 34.3129 30.9307 34.3639C31.1879 34.4148 31.4541 34.3941 31.7004 34.304C31.8438 34.247 32.0038 34.2494 32.1454 34.3107C32.287 34.372 32.3985 34.4872 32.4554 34.6309C32.5123 34.7747 32.5099 34.9351 32.4487 35.0771C32.3876 35.219 32.2727 35.3308 32.1293 35.3879C31.8402 35.5019 31.5322 35.5604 31.2215 35.5603Z" fill="#F77261"/>
<path d="M22.394 24.6871C22.2887 24.6878 22.1852 24.6592 22.0952 24.6044C22.0297 24.5651 21.9726 24.5132 21.9271 24.4517C21.8816 24.3903 21.8486 24.3204 21.8301 24.2462C21.8115 24.1719 21.8077 24.0947 21.8189 24.019C21.8301 23.9433 21.8561 23.8706 21.8953 23.8049C22.3187 23.2224 22.9531 22.8295 23.6622 22.7106C25.0005 22.3838 26.4129 22.5849 27.6075 23.2723C27.7382 23.3544 27.8311 23.4852 27.8656 23.6358C27.9002 23.7865 27.8736 23.9448 27.7917 24.0759C27.7099 24.2069 27.5795 24.3 27.4291 24.3346C27.2788 24.3693 27.121 24.3426 26.9902 24.2606C26.06 23.7417 24.969 23.5927 23.9342 23.8434C23.5295 23.8979 23.1581 24.0969 22.888 24.4039C22.8368 24.4896 22.7645 24.5607 22.6779 24.6103C22.5914 24.6599 22.4936 24.6863 22.394 24.6871Z" fill="#934747"/>
<path d="M40.5396 24.4422C40.4456 24.4421 40.353 24.4191 40.2698 24.3753C40.1866 24.3314 40.1152 24.268 40.0618 24.1904C39.6382 23.9047 39.1424 23.7455 38.632 23.7313C37.4747 23.5066 36.2762 23.6543 35.2075 24.1532C35.1492 24.2026 35.0818 24.24 35.009 24.2633C34.9363 24.2866 34.8597 24.2953 34.7836 24.2889C34.7075 24.2825 34.6334 24.2612 34.5655 24.2261C34.4976 24.191 34.4373 24.1429 34.388 24.0844C34.3387 24.0259 34.3014 23.9583 34.2781 23.8854C34.2549 23.8125 34.2462 23.7356 34.2526 23.6594C34.2589 23.5831 34.2802 23.5088 34.3152 23.4407C34.3503 23.3727 34.3983 23.3122 34.4566 23.2628C35.34 22.5135 37.322 22.3841 38.7832 22.5764C39.62 22.6046 40.4164 22.944 41.0174 23.5285C41.0616 23.5916 41.0928 23.6629 41.1093 23.7382C41.1258 23.8136 41.1273 23.8914 41.1135 23.9673C41.0998 24.0432 41.0712 24.1156 41.0293 24.1803C40.9875 24.245 40.9332 24.3007 40.8697 24.3443C40.7724 24.4103 40.6571 24.4445 40.5396 24.4422Z" fill="#934747"/>
<path d="M51.8849 34.4417C51.8427 34.4414 51.8007 34.4371 51.7593 34.4289C51.6844 34.4123 51.6134 34.3811 51.5505 34.3369C51.4877 34.2928 51.4342 34.2366 51.3931 34.1715C51.352 34.1065 51.3242 34.034 51.3113 33.9582C51.2983 33.8823 51.3005 33.8046 51.3176 33.7296C51.4792 33.1457 51.8419 32.6381 52.3413 32.2968C52.8407 31.9554 53.4446 31.8025 54.0458 31.865C54.1216 31.8741 54.1949 31.8981 54.2614 31.9356C54.328 31.9731 54.3865 32.0233 54.4337 32.0835C54.4809 32.1437 54.5158 32.2126 54.5364 32.2863C54.557 32.36 54.5629 32.437 54.5538 32.513C54.5461 32.5895 54.5231 32.6636 54.4861 32.731C54.4491 32.7984 54.3989 32.8576 54.3386 32.905C54.2782 32.9525 54.2089 32.9872 54.1348 33.0071C54.0608 33.0271 53.9834 33.0318 53.9075 33.0211C53.5933 32.9967 53.28 33.0775 53.0166 33.2508C52.7532 33.4242 52.5547 33.6803 52.4521 33.979C52.4247 34.1096 52.3534 34.2268 52.2502 34.311C52.1469 34.3952 52.018 34.4414 51.8849 34.4417Z" fill="#F77261"/>
<path d="M40.2955 28.8012V29.5121C40.3125 29.6899 40.2922 29.8694 40.2359 30.0389C40.1797 30.2084 40.0887 30.3642 39.9689 30.4964C39.849 30.6286 39.7029 30.7342 39.54 30.8065C39.377 30.8788 39.2008 30.9161 39.0226 30.9161C38.8444 30.9161 38.6682 30.8788 38.5053 30.8065C38.3423 30.7342 38.1962 30.6286 38.0764 30.4964C37.9565 30.3642 37.8656 30.2084 37.8093 30.0389C37.7531 29.8694 37.7328 29.6899 37.7498 29.5121V28.8012C37.7328 28.6234 37.7531 28.444 37.8093 28.2745C37.8656 28.105 37.9565 27.9491 38.0764 27.8169C38.1962 27.6847 38.3423 27.5791 38.5053 27.5068C38.6682 27.4346 38.8444 27.3972 39.0226 27.3972C39.2008 27.3972 39.377 27.4346 39.54 27.5068C39.7029 27.5791 39.849 27.6847 39.9689 27.8169C40.0887 27.9491 40.1797 28.105 40.2359 28.2745C40.2922 28.444 40.3125 28.6234 40.2955 28.8012Z" fill="#B27757"/>
<path d="M27.2994 28.8127V29.5236C27.3164 29.7014 27.2961 29.8808 27.2398 30.0503C27.1836 30.2199 27.0926 30.3757 26.9728 30.5079C26.8529 30.6401 26.7068 30.7457 26.5439 30.818C26.3809 30.8903 26.2047 30.9276 26.0265 30.9276C25.8484 30.9276 25.6721 30.8903 25.5092 30.818C25.3462 30.7457 25.2002 30.6401 25.0803 30.5079C24.9605 30.3757 24.8695 30.2199 24.8132 30.0503C24.757 29.8808 24.7367 29.7014 24.7537 29.5236V28.8127C24.7367 28.6349 24.757 28.4555 24.8132 28.286C24.8695 28.1164 24.9605 27.9606 25.0803 27.8284C25.2002 27.6962 25.3462 27.5906 25.5092 27.5183C25.6721 27.446 25.8484 27.4087 26.0265 27.4087C26.2047 27.4087 26.3809 27.446 26.5439 27.5183C26.7068 27.5906 26.8529 27.6962 26.9728 27.8284C27.0926 27.9606 27.1836 28.1164 27.2398 28.286C27.2961 28.4555 27.3164 28.6349 27.2994 28.8127Z" fill="#B27757"/>
<path d="M22.9822 28.8653C22.8248 28.8598 22.6757 28.7927 22.567 28.6783C22.4584 28.5639 22.3988 28.4114 22.401 28.2535C22.401 27.7255 22.8532 27.2046 23.6436 26.8247C24.2714 26.4951 24.977 26.3433 25.6844 26.3856C26.3918 26.4279 27.0744 26.6627 27.6587 27.0648C27.7778 27.162 27.8537 27.3025 27.8698 27.4556C27.8859 27.6088 27.8409 27.7621 27.7445 27.882C27.6482 28.002 27.5085 28.0789 27.3558 28.0958C27.2032 28.1128 27.05 28.0685 26.9298 27.9726C26.6208 27.7643 26.2698 27.6267 25.9017 27.5697C25.5337 27.5127 25.1576 27.5377 24.8003 27.6428C24.3223 27.7217 23.8841 27.9574 23.5541 28.3129C23.554 28.3872 23.539 28.4607 23.51 28.5291C23.4809 28.5974 23.4384 28.6592 23.3851 28.7107C23.3317 28.7623 23.2685 28.8025 23.1993 28.8291C23.1301 28.8556 23.0563 28.868 22.9822 28.8653Z" fill="#7F3C3C"/>
<path d="M35.9944 28.8532C35.837 28.8474 35.6882 28.7802 35.5796 28.6659C35.471 28.5516 35.4113 28.3992 35.4132 28.2414C35.4132 27.7123 35.8665 27.1925 36.657 26.8103C37.282 26.4783 37.9861 26.3254 38.6921 26.3681C39.3981 26.4109 40.0787 26.6477 40.6592 27.0527C40.7741 27.151 40.8462 27.2902 40.8605 27.441C40.8747 27.5917 40.8298 27.742 40.7354 27.8602C40.641 27.9783 40.5044 28.055 40.3546 28.0739C40.2047 28.0929 40.0535 28.0526 39.9327 27.9617C39.6243 27.753 39.2737 27.6152 38.906 27.558C38.5383 27.5008 38.1625 27.5256 37.8055 27.6307C37.3299 27.7105 36.8941 27.9462 36.5663 28.3008C36.5662 28.3751 36.5512 28.4486 36.5221 28.517C36.4931 28.5853 36.4506 28.6471 36.3973 28.6986C36.3439 28.7502 36.2807 28.7904 36.2115 28.817C36.1423 28.8435 36.0685 28.8559 35.9944 28.8532Z" fill="#7F3C3C"/>
</svg>
