<svg width="80" height="80" viewBox="0 0 80 80" fill="none" xmlns="http://www.w3.org/2000/svg">
<rect width="80" height="80" rx="10" fill="#5A6478"/>
<path d="M18.8516 67.5502C18.4435 69.373 20.5337 70.4765 21.8942 71.3197C23.9597 72.5844 33.5449 75.6099 41.7697 75.6099C50.1553 75.6099 54.4965 74.2336 56.8094 72.6216C58.343 71.5429 58.3801 70.0425 57.5515 68.3686C55.6115 64.8375 52.678 61.9569 49.1164 60.0857V60.0981C46.3212 62.5036 36.538 63.5327 30.3787 62.454C26.9651 61.8588 24.677 60.6188 25.3201 58.6101C22.1436 60.6943 19.8416 63.8759 18.8516 67.5502Z" fill="#FFF1B8"/>
<path d="M48.2853 47.3142L49.151 49.4543C55.8669 48.9583 59.3918 48.388 63.4857 45.6725C64.7064 44.8709 65.6774 43.7411 66.2876 42.4123C66.8978 41.0834 67.1227 39.6092 66.9364 38.1583C66.6643 35.0088 63.3867 31.4253 61.6923 28.1518C60.5483 25.564 55.0457 23.7909 54.6994 23.7041C54.6746 25.3408 54.2591 36.3356 54.2591 36.3356C54.1255 39.2792 51.4144 46.0048 48.2853 47.3142Z" fill="#F94926"/>
<path d="M28.8451 39.8868C26.3096 40.4696 24.1699 38.0393 23.601 35.4477C23.0321 32.8562 22.9826 27.1698 24.6832 24.2509C30.1808 14.7962 35.8454 11.9294 43.6213 11.9294C51.3971 11.9294 59.4623 16.826 58.6955 24.5993C58.583 25.7364 57.6108 29.5294 57.6108 29.5294C57.5267 30.049 57.4723 30.5425 57.4266 31.0434C57.1297 34.6269 57.22 39.1341 56.1539 42.3419C54.84 45.5389 52.326 48.0905 49.1535 49.4469C48.2841 49.8327 47.3557 50.0675 46.4078 50.1413C45.0905 50.2193 43.7687 50.1277 42.4747 49.8685C41.9644 51.0374 41.6229 52.2732 41.4606 53.5387C41.2998 54.8903 41.4358 56.1179 42.1284 56.6262C42.9818 57.2586 45.9254 58.2506 49.1164 60.0857V60.0981C46.3212 62.5037 36.538 63.5328 30.3787 62.4541C26.9651 61.8589 24.677 60.6189 25.3202 58.6102C25.852 58.2258 26.3962 57.8538 26.9651 57.519C27.8842 56.9464 28.8431 56.4409 29.8345 56.0063C31.3063 55.1507 32.135 52.9684 32.605 50.7612C32.7163 50.2033 32.8152 49.6329 32.8894 49.0873C33.0923 47.6286 33.1997 46.1582 33.211 44.6854C31.7208 43.1201 30.7713 41.1163 30.5024 38.9692C30.0286 39.4001 29.4611 39.7142 28.8451 39.8868Z" fill="#FCCAAE"/>
<path d="M11.8636 37.2952C13.187 42.6394 19.6185 48.3556 32.8276 49.0748L32.8894 49.0872C33.0923 47.6285 33.1997 46.1581 33.211 44.6854C31.7208 43.12 30.7713 41.1162 30.5024 38.9692C30.0286 39.4 29.4611 39.7142 28.8451 39.8867C26.3096 40.4695 24.1699 38.0392 23.601 35.4477C23.0321 32.8562 23.8483 29.8307 26.3838 29.2603C26.9927 29.1589 27.6164 29.1906 28.2119 29.3532C28.8075 29.5159 29.361 29.8056 29.8345 30.2026C29.8716 30.2398 29.9087 30.2646 29.9458 30.3018C30.2913 30.618 30.5799 30.9912 30.7992 31.4054C34.0026 30.959 36.9709 24.1764 36.9709 24.1764C37.2233 25.3196 37.8574 26.3422 38.7682 27.0749C39.6791 27.8077 40.8121 28.2069 41.98 28.2063C42.9727 28.2101 43.9298 27.8357 44.6577 27.159C45.3855 26.4822 45.8298 25.5535 45.9007 24.5608C46.1633 25.5723 46.7304 26.4781 47.5249 27.1549C48.3195 27.8316 49.3027 28.2464 50.3409 28.3427C50.8128 28.38 51.2875 28.3235 51.7376 28.1766C52.1878 28.0296 52.6046 27.7951 52.9642 27.4864C53.3238 27.1777 53.6191 26.8009 53.8333 26.3776C54.0474 25.9543 54.1761 25.4929 54.2121 25.0196C54.4052 25.9252 54.8208 26.7681 55.4213 27.4719C56.0217 28.1756 56.7879 28.7179 57.6504 29.0495C58.1677 29.2066 58.7054 29.286 59.2459 29.2851C59.7146 29.3088 60.182 29.2185 60.6084 29.0221C61.0348 28.8256 61.4075 28.5287 61.6948 28.1567V28.1443C62.5999 26.5738 62.8908 24.7223 62.5111 22.9489C61.6948 16.1415 55.7705 6.08544 43.9589 5.11827C32.2339 4.1511 26.6064 9.22253 21.9437 16.4267C19.334 20.4566 9.5508 27.9211 11.8636 37.2952Z" fill="#FF5E33"/>
<path d="M25.3202 58.6103C26.7255 57.5795 28.2393 56.7063 29.8345 56.0064C31.3063 55.1508 32.135 52.9685 32.605 50.7613C32.7163 50.2034 32.8152 49.633 32.8894 49.0874C33.0923 47.6287 33.1997 46.1583 33.211 44.6855C33.4569 44.9444 33.7215 45.1848 34.0026 45.4047C36.4974 47.4503 39.3793 48.9687 42.4747 49.8686C41.9644 51.0375 41.6229 52.2733 41.4605 53.5389C41.2998 54.8904 41.4358 56.118 42.1284 56.6264C42.9818 57.2587 45.9254 58.2507 49.1164 60.0858V60.0982C44.7752 63.8429 23.502 64.2397 25.3202 58.6103Z" fill="#FFAB8D"/>
<path d="M30.7745 47.0042C31.5392 47.1331 32.3121 47.2076 33.0873 47.2274C33.1863 46.0743 33.1986 45.1195 33.211 44.6855C31.7208 43.1201 30.7713 41.1164 30.5024 38.9693C30.0286 39.4001 29.4611 39.7143 28.8451 39.8869C26.3096 40.4696 24.1699 38.0393 23.601 35.4478C23.032 32.8563 23.8483 29.8308 26.3838 29.2604C26.9927 29.159 27.6163 29.1907 28.2119 29.3534C28.8075 29.516 29.361 29.8058 29.8345 30.2028C30.2321 30.5359 30.56 30.9447 30.7992 31.4055C32.5802 31.1576 34.386 29.0062 35.4162 27.026C35.7947 26.2982 34.757 25.1438 32.7534 27.2889C30.8982 29.2728 28.6472 26.1729 25.4686 26.8425C21.0902 27.7725 19.8534 32.2239 19.7545 33.6623C19.2227 41.1516 23.6133 45.3427 30.7745 47.0042Z" fill="#F94926"/>
<path d="M41.0277 38.8278C38.1752 38.8278 35.8627 36.5095 35.8627 33.6497C35.8627 30.79 38.1752 28.4717 41.0277 28.4717C43.8802 28.4717 46.1926 30.79 46.1926 33.6497C46.1926 36.5095 43.8802 38.8278 41.0277 38.8278Z" fill="#FFE8D2"/>
<path d="M55.1657 38.8278C52.3132 38.8278 50.0007 36.5095 50.0007 33.6497C50.0007 30.79 52.3132 28.4717 55.1657 28.4717C58.0182 28.4717 60.3306 30.79 60.3306 33.6497C60.3306 36.5095 58.0182 38.8278 55.1657 38.8278Z" fill="#FFE8D2"/>
<path d="M56.9207 38.5228C57.9207 38.1614 58.7852 37.4995 59.3961 36.6274C60.007 35.7553 60.3347 34.7154 60.3343 33.6497C60.3324 32.7185 60.0827 31.8047 59.6109 31.0025C59.1391 30.2004 58.4623 29.539 57.6504 29.0867C57.2299 31.7154 57.2917 35.2989 56.9207 38.5228Z" fill="#F4A790"/>
<path d="M39.8279 30.1777H40.335C40.8678 30.1777 41.2997 30.6107 41.2997 31.1449V32.6577C41.2997 33.1918 40.8678 33.6248 40.335 33.6248H39.8279C39.2951 33.6248 38.8632 33.1918 38.8632 32.6577V31.1449C38.8632 30.6107 39.2951 30.1777 39.8279 30.1777Z" fill="#48CCB2"/>
<path d="M51.8127 31.1823V32.695C51.8131 32.8213 51.8385 32.9463 51.8873 33.0627C51.9361 33.1791 52.0074 33.2847 52.0971 33.3734C52.1867 33.4622 52.293 33.5323 52.4097 33.5797C52.5265 33.6271 52.6514 33.6509 52.7774 33.6498H53.2968C53.4228 33.6509 53.5478 33.6271 53.6645 33.5797C53.7813 33.5323 53.8875 33.4622 53.9772 33.3734C54.0668 33.2847 54.1381 33.1791 54.1869 33.0627C54.2357 32.9463 54.2611 32.8213 54.2616 32.695V31.1823C54.2612 30.9258 54.1595 30.68 53.9786 30.4987C53.7978 30.3174 53.5526 30.2154 53.2968 30.2151H52.7774C52.5216 30.2154 52.2764 30.3174 52.0956 30.4987C51.9147 30.68 51.813 30.9258 51.8127 31.1823Z" fill="#48CCB2"/>
<path d="M30.3787 63.074C30.5081 63.0741 30.6343 63.0334 30.7395 62.9578C30.8447 62.8821 30.9235 62.7753 30.965 62.6524C31.0994 61.6821 30.8821 60.6957 30.3527 59.8724C29.6953 58.5265 28.5585 57.4766 27.1667 56.93C27.073 56.8933 26.9718 56.88 26.8719 56.8914C26.772 56.9028 26.6763 56.9384 26.5932 56.9952C26.5101 57.052 26.4421 57.1282 26.3951 57.2174C26.348 57.3065 26.3233 57.4057 26.3232 57.5066C26.3233 57.6236 26.3564 57.7383 26.4188 57.8372C26.4812 57.9362 26.5703 58.0154 26.6757 58.0658C26.7209 58.0905 26.7691 58.1093 26.8192 58.1216C27.8979 58.5735 28.7713 59.4102 29.2705 60.4701C29.6323 60.9931 29.8154 61.6195 29.7925 62.2556C29.761 62.3489 29.7522 62.4484 29.7667 62.5458C29.7813 62.6432 29.8188 62.7357 29.8761 62.8157C29.9334 62.8956 30.0088 62.9608 30.0962 63.0057C30.1837 63.0506 30.2805 63.074 30.3787 63.074Z" fill="#FFF1B8"/>
<path d="M40.6306 54.1822C40.9164 54.1822 41.2058 54.1748 41.4964 54.1574C41.6604 54.1482 41.8141 54.0741 41.9236 53.9513C42.033 53.8285 42.0894 53.6672 42.0802 53.5027C42.071 53.3383 41.997 53.1843 41.8746 53.0745C41.7521 52.9648 41.5912 52.9083 41.4272 52.9175C38.3931 53.1454 35.3862 52.2073 33.0168 50.2937C32.956 50.2397 32.8852 50.1983 32.8084 50.1718C32.7316 50.1452 32.6503 50.1341 32.5692 50.1391C32.4881 50.144 32.4088 50.1649 32.3358 50.2006C32.2628 50.2363 32.1975 50.2861 32.1436 50.347C32.0898 50.408 32.0485 50.479 32.022 50.556C31.9955 50.633 31.9845 50.7145 31.9894 50.7958C31.9943 50.8771 32.0152 50.9566 32.0508 51.0298C32.0864 51.103 32.136 51.1685 32.1968 51.2225C34.5591 53.1982 37.555 54.2496 40.6306 54.1822Z" fill="#562B48"/>
<path d="M45.4579 40.3419C45.71 40.6062 46.015 40.8141 46.3528 40.9519C46.6907 41.0897 47.0538 41.1544 47.4183 41.1417C47.6515 41.147 47.8831 41.1025 48.0978 41.0112C48.3125 40.9199 48.5055 40.7839 48.6637 40.6122C48.7654 40.4866 48.9119 40.4058 49.0721 40.387C49.2324 40.3682 49.3936 40.4129 49.5214 40.5116C49.6492 40.6103 49.7334 40.7551 49.7562 40.9152C49.779 41.0753 49.7385 41.238 49.6433 41.3686C49.3757 41.6866 49.042 41.942 48.6656 42.117C48.2891 42.292 47.879 42.3823 47.464 42.3816H47.323C46.7998 42.3844 46.2818 42.2778 45.802 42.0686C45.3222 41.8594 44.8912 41.5521 44.5365 41.1664C44.4815 41.1059 44.4389 41.0351 44.4113 40.958C44.3837 40.8809 44.3717 40.7991 44.3758 40.7173C44.3799 40.6355 44.4002 40.5554 44.4354 40.4814C44.4706 40.4075 44.52 40.3414 44.5809 40.2867C44.6418 40.2321 44.7128 40.1901 44.79 40.1632C44.8671 40.1362 44.9488 40.1249 45.0304 40.1298C45.1119 40.1347 45.1917 40.1557 45.2651 40.1917C45.3385 40.2277 45.404 40.2779 45.4579 40.3394V40.3419Z" fill="#F77261"/>
<path d="M48.6291 38.576C48.4213 38.5755 48.2161 38.5294 48.028 38.4409C47.9518 38.4083 47.883 38.3607 47.8254 38.301C47.7679 38.2413 47.723 38.1705 47.6933 38.093C47.6635 38.0156 47.6496 37.9329 47.6524 37.8499C47.6551 37.7669 47.6745 37.6853 47.7093 37.61C47.7441 37.5346 47.7936 37.4671 47.855 37.4113C47.9163 37.3555 47.9882 37.3126 48.0664 37.2852C48.1446 37.2578 48.2274 37.2465 48.3101 37.2518C48.3927 37.2571 48.4734 37.279 48.5475 37.3162C48.5737 37.3311 48.6033 37.3389 48.6334 37.3389C48.6636 37.3389 48.6932 37.3311 48.7194 37.3162C48.8089 37.2648 48.8783 37.1843 48.9161 37.0881C48.8899 36.9314 48.9247 36.7707 49.0133 36.639C49.1019 36.5073 49.2375 36.4148 49.3922 36.3804C49.5469 36.346 49.7088 36.3725 49.8446 36.4544C49.9804 36.5362 50.0797 36.6672 50.122 36.8202C50.1676 37.0811 50.1406 37.3496 50.0439 37.5962C49.9473 37.8427 49.7847 38.0577 49.574 38.2177C49.3113 38.4454 48.9765 38.5724 48.6291 38.576Z" fill="#F77261"/>
<path d="M28.9861 35.4836C28.9454 35.4921 28.904 35.4967 28.8624 35.4973C28.7201 35.497 28.5821 35.4475 28.472 35.3572C28.3618 35.2668 28.2861 35.1411 28.2576 35.0013C28.1502 34.6751 27.9369 34.3944 27.6517 34.204C27.3666 34.0137 27.026 33.9246 26.6844 33.9511C26.5213 33.9705 26.3573 33.9241 26.2283 33.8223C26.0994 33.7204 26.0161 33.5714 25.9967 33.408C25.9774 33.2445 26.0236 33.0801 26.1251 32.9508C26.2267 32.8215 26.3754 32.7379 26.5384 32.7185C27.1868 32.6529 27.8374 32.8205 28.3739 33.1914C28.9105 33.5623 29.298 34.1124 29.4672 34.7434C29.4847 34.8237 29.4862 34.9067 29.4714 34.9876C29.4567 35.0685 29.426 35.1456 29.3812 35.2145C29.3365 35.2834 29.2785 35.3427 29.2106 35.3889C29.1428 35.4351 29.0665 35.4673 28.9861 35.4836Z" fill="#F77261"/>
<path d="M52.1478 30.7605C52.2876 30.7603 52.4232 30.7127 52.5325 30.6253C52.9089 30.3221 53.3773 30.1569 53.8602 30.1569C54.3431 30.1569 54.8115 30.3221 55.1879 30.6253C55.2514 30.6762 55.3243 30.7141 55.4024 30.7367C55.4805 30.7594 55.5623 30.7664 55.6431 30.7573C55.7239 30.7483 55.8021 30.7234 55.8733 30.684C55.9445 30.6447 56.0073 30.5917 56.058 30.528C56.1088 30.4643 56.1465 30.3913 56.1691 30.313C56.1917 30.2347 56.1987 30.1527 56.1897 30.0717C56.1715 29.9081 56.0892 29.7585 55.9609 29.6557C55.3641 29.1772 54.6226 28.9165 53.8584 28.9165C53.0941 28.9165 52.3526 29.1772 51.7558 29.6557C51.6554 29.7359 51.5824 29.8455 51.5469 29.9692C51.5114 30.0929 51.5152 30.2246 51.5578 30.346C51.6003 30.4674 51.6795 30.5726 51.7844 30.6469C51.8892 30.7211 52.0145 30.7608 52.1429 30.7605H52.1478Z" fill="#562B48"/>
<path d="M38.9263 30.7977C39.0662 30.7972 39.2018 30.7491 39.311 30.6614C39.6897 30.3575 40.1604 30.192 40.6455 30.192C41.1306 30.192 41.6012 30.3575 41.98 30.6614C42.1085 30.7626 42.2718 30.8087 42.4341 30.7897C42.5965 30.7706 42.7447 30.6878 42.8464 30.5595C42.948 30.4312 42.9949 30.2678 42.9767 30.1049C42.9585 29.9421 42.8768 29.7931 42.7493 29.6905C42.1514 29.2143 41.4103 28.9551 40.6467 28.9551C39.8831 28.9551 39.142 29.2143 38.5441 29.6905C38.4437 29.7707 38.3707 29.8802 38.3353 30.0039C38.2998 30.1276 38.3036 30.2593 38.3461 30.3808C38.3887 30.5022 38.4679 30.6074 38.5727 30.6816C38.6776 30.7559 38.8029 30.7956 38.9313 30.7953L38.9263 30.7977Z" fill="#562B48"/>
<path d="M30.2204 31.5057C30.2492 31.4296 30.2927 31.3599 30.3484 31.3006C30.4041 31.2414 30.4709 31.1937 30.545 31.1603C30.619 31.1269 30.699 31.1084 30.7802 31.106C30.8613 31.1036 30.9422 31.1172 31.0181 31.1461L35.3309 32.7841C35.5338 31.3921 36.2372 30.1224 37.3087 29.214C38.3801 28.3055 39.7458 27.821 41.1487 27.8515C42.5516 27.8819 43.895 28.4253 44.9262 29.3795C45.9574 30.3336 46.6053 31.6326 46.7479 33.0321H49.4442C49.6024 31.5566 50.319 30.1982 51.4463 29.2364C52.5736 28.2747 54.0259 27.7829 55.504 27.8624C56.9821 27.9418 58.3735 28.5865 59.3918 29.6635C60.4101 30.7406 60.9777 32.1681 60.9777 33.6521C60.9777 35.1361 60.4101 36.5636 59.3918 37.6407C58.3735 38.7177 56.9821 39.3624 55.504 39.4418C54.0259 39.5213 52.5736 39.0295 51.4463 38.0678C50.319 37.106 49.6024 35.7476 49.4442 34.2721H46.7479C46.5998 35.7063 45.9213 37.0328 44.846 37.9903C43.7706 38.9478 42.3766 39.4667 40.9385 39.4447C39.5005 39.4228 38.1228 38.8616 37.0771 37.8718C36.0313 36.8819 35.3933 35.5353 35.2888 34.0972L30.5803 32.3105C30.5037 32.2817 30.4335 32.238 30.3738 32.1819C30.3142 32.1257 30.2662 32.0583 30.2327 31.9835C30.1992 31.9086 30.1809 31.8278 30.1788 31.7458C30.1767 31.6638 30.1908 31.5822 30.2204 31.5057ZM55.1657 38.2077C56.0649 38.2077 56.9439 37.9404 57.6916 37.4395C58.4392 36.9387 59.022 36.2268 59.3661 35.3939C59.7102 34.561 59.8002 33.6446 59.6248 32.7604C59.4494 31.8762 59.0164 31.064 58.3805 30.4266C57.7447 29.7891 56.9346 29.355 56.0526 29.1791C55.1707 29.0032 54.2565 29.0935 53.4258 29.4385C52.595 29.7835 51.8849 30.3677 51.3854 31.1173C50.8858 31.8669 50.6191 32.7481 50.6191 33.6496C50.6204 34.8581 51.0999 36.0167 51.9522 36.8712C52.8046 37.7258 53.9602 38.2064 55.1657 38.2077ZM41.0277 38.2077C41.9269 38.2077 42.8059 37.9404 43.5536 37.4395C44.3012 36.9387 44.884 36.2268 45.2281 35.3939C45.5722 34.561 45.6622 33.6446 45.4868 32.7604C45.3114 31.8762 44.8784 31.064 44.2425 30.4266C43.6067 29.7891 42.7966 29.355 41.9146 29.1791C41.0327 29.0032 40.1185 29.0935 39.2878 29.4385C38.457 29.7835 37.7469 30.3677 37.2474 31.1173C36.7478 31.8669 36.4811 32.7481 36.4811 33.6496C36.4824 34.8581 36.9619 36.0167 37.8142 36.8712C38.6666 37.7258 39.8222 38.2064 41.0277 38.2077Z" fill="white"/>
</svg>
