<svg width="80" height="80" viewBox="0 0 80 80" fill="none" xmlns="http://www.w3.org/2000/svg">
<rect width="80" height="80" rx="10" fill="#5A6478"/>
<path d="M65.0821 46.9311C73.7297 53.4136 65.9431 67.1003 54.9532 65.3784C51.8061 61.8594 48.0136 58.9763 43.781 56.8853C38.7533 53.5719 38.5899 46.8716 38.5899 46.8716C38.062 36.216 43.51 32.4151 39.0115 28.5129C35.7437 25.6781 35.2499 21.2075 36.9022 19.1235C39.1812 16.2532 46.0815 15.7467 50.9725 16.5824C58.1387 17.1141 61.1141 26.7493 59.6454 33.2571C58.3084 39.1698 60.6507 43.6012 65.0821 46.9311V46.9311Z" fill="#FCA027"/>
<path d="M50.6611 32.3077C50.9469 29.0378 50.4455 25.747 49.1987 22.7106C45.0294 14.2403 38.4975 10.604 30.1272 10.604C22.0001 10.604 13.5095 19.7833 16.0582 28.5727C16.4633 31.0543 16.4507 34.3462 16.7419 37.4228C16.8516 39.0211 17.1448 40.6015 17.6155 42.1328C18.8563 45.8425 23.5029 49.8434 27.5925 50.0966C28.9409 50.1763 30.2941 50.0827 31.6187 49.8181C32.5936 52.0085 33.3406 55.7055 31.9732 56.7184C31.0836 57.2376 30.1568 57.6904 29.2004 58.0731C28.3521 60.5547 28.7446 64.9102 31.4668 65.0241C35.8729 65.1887 43.6848 59.9597 44.8496 56.2246V56.212C44.7483 56.174 44.6597 56.1233 44.5584 56.0853C41.9502 54.3128 40.9956 45.5272 40.9956 45.5272C42.4923 44.0011 43.4955 42.06 43.8747 39.9563C44.3597 40.3963 44.9406 40.7171 45.5713 40.8932C48.1668 41.4883 50.3572 39.0067 50.9396 36.3606C51.2582 35.0125 51.1611 33.5995 50.6611 32.3077V32.3077Z" fill="#FFC9B6"/>
<path d="M45.9005 56.7307C45.5586 56.5534 45.2041 56.3762 44.8496 56.2243C44.8496 56.2243 44.6597 56.123 44.5584 56.085C42.2794 54.5277 40.9955 45.5269 40.9955 45.5269C40.0272 46.2895 38.9841 46.9521 37.8822 47.5045C35.8853 48.5026 33.7849 49.2783 31.6187 49.8177C32.5936 52.0081 33.3406 55.7051 31.9732 56.718C31.0836 57.2372 30.1568 57.6901 29.2004 58.0728C29.0105 58.1487 27.7191 58.7565 27.238 58.997C26.7315 59.2249 26.2124 59.4908 25.6806 59.7947C25.7693 63.1879 26.9721 68.4802 30.5805 68.6322C36.278 68.8474 43.9886 62.2003 46.7614 57.1992C46.4829 57.0346 46.1917 56.8826 45.9005 56.7307Z" fill="#FFAB8D"/>
<path d="M55.8015 67.8726C56.2193 69.7338 54.0796 70.8606 52.6868 71.7216C50.5724 73.013 43.4949 76.1024 32.3404 76.1024C23.7561 76.1024 19.3121 74.697 16.9444 73.051C15.3745 71.9495 15.3365 70.4175 16.1848 68.7083C18.9702 63.0867 24.8197 60.0734 28.6307 58.3261C28.8206 58.2375 29.0105 58.1489 29.2004 58.0729C28.3521 60.5545 28.7446 64.9099 31.4668 65.0239C35.8729 65.1884 43.6848 59.9594 44.8496 56.2244C45.2041 56.3763 45.5586 56.5536 45.9005 56.7308C49.785 58.5422 52.966 61.5808 54.9532 65.3784C55.3223 66.1779 55.6067 67.0138 55.8015 67.8726V67.8726Z" fill="#33A5CC"/>
<path d="M50.661 32.3075C50.4524 31.7473 50.1086 31.2474 49.6602 30.852C49.2118 30.4566 48.6727 30.1781 48.0908 30.0412C47.5155 29.944 46.9265 29.9633 46.3589 30.0982C45.7912 30.233 45.2564 30.4806 44.7863 30.8262C44.7073 30.8813 44.6312 30.9405 44.5584 31.0034C44.1513 31.3436 43.8157 31.761 43.5708 32.2316C40.127 30.5223 37.2529 23.584 37.2529 23.584C36.8553 24.8253 36.0807 25.9118 35.0368 26.6924C33.993 27.473 32.7318 27.9089 31.4288 27.9394C27.6811 27.8888 28.1116 23.9765 28.1116 23.9765C28.1116 23.9765 26.5669 27.6482 22.9331 27.8382C21.9492 27.9065 20.978 27.5848 20.2293 26.9428C19.4806 26.3007 19.0147 25.3898 18.9322 24.407C18.964 25.3179 18.7016 26.2148 18.184 26.965C17.6664 27.7152 16.921 28.2788 16.0582 28.5725C15.5734 28.7186 15.0704 28.7953 14.5641 28.8004H14.4502C11.6901 28.8004 10.6392 26.2555 11.1076 22.3306C11.9433 15.3796 18.008 5.11141 30.0994 4.12384C38.8558 3.40216 43.9468 5.88374 47.4122 10.2873C48.8873 12.2098 50.0873 14.3286 50.9776 16.5824C51.9347 19.4957 53.4085 28.9017 50.661 32.3075Z" fill="#FFB640"/>
<path d="M31.6643 65.6609C31.5896 65.6609 31.5162 65.6609 31.444 65.6609C30.9748 65.6433 30.5169 65.5121 30.1096 65.2785C29.7023 65.045 29.3577 64.7161 29.1055 64.3201C28.5516 63.3144 28.2053 62.2077 28.0872 61.0657C27.9691 59.9236 28.0816 58.7695 28.418 57.6717C28.4415 57.5892 28.4816 57.5122 28.5359 57.4457C28.5901 57.3791 28.6573 57.3242 28.7334 57.2844C28.8095 57.2446 28.8929 57.2207 28.9785 57.2142C29.0642 57.2077 29.1502 57.2186 29.2315 57.2464C29.3128 57.2742 29.3875 57.3182 29.4512 57.3758C29.5149 57.4333 29.5663 57.5033 29.6021 57.5813C29.6379 57.6594 29.6575 57.7439 29.6596 57.8297C29.6617 57.9156 29.6464 58.001 29.6145 58.0807C29.0712 59.9224 29.2631 61.903 30.15 63.606C30.2912 63.8384 30.4878 64.0322 30.7223 64.1701C30.9567 64.308 31.2216 64.3856 31.4934 64.3961C35.5449 64.5379 43.1505 59.5494 44.2457 56.0397C44.296 55.8794 44.408 55.7456 44.557 55.6679C44.706 55.5901 44.8798 55.5747 45.0402 55.6251C45.2005 55.6754 45.3343 55.7874 45.412 55.9364C45.4898 56.0854 45.5052 56.2592 45.4548 56.4196C44.2077 60.4091 36.3223 65.6597 31.6643 65.6609V65.6609Z" fill="white"/>
<path d="M26.6543 42.1756H26.5099C26.0851 42.1763 25.6653 42.0841 25.2799 41.9054C24.8946 41.7267 24.5529 41.4659 24.279 41.1412C24.1766 41.008 24.1313 40.8397 24.153 40.6731C24.1747 40.5065 24.2617 40.3554 24.3949 40.253C24.528 40.1506 24.6964 40.1053 24.863 40.127C25.0295 40.1487 25.1806 40.2357 25.2831 40.3689C25.445 40.544 25.6422 40.6828 25.8618 40.776C26.0814 40.8692 26.3183 40.9147 26.5568 40.9095C26.9303 40.9253 27.3028 40.8605 27.6491 40.7196C27.9953 40.5787 28.3072 40.365 28.5636 40.0928C28.619 40.0308 28.6861 39.9803 28.7611 39.9443C28.8361 39.9082 28.9174 39.8872 29.0005 39.8826C29.0835 39.8779 29.1667 39.8897 29.2452 39.9172C29.3237 39.9447 29.3961 39.9874 29.4581 40.0428C29.5201 40.0983 29.5706 40.1654 29.6067 40.2404C29.6427 40.3153 29.6637 40.3967 29.6683 40.4797C29.673 40.5628 29.6612 40.646 29.6337 40.7245C29.6062 40.803 29.5635 40.8753 29.5081 40.9373C29.1446 41.3308 28.7031 41.6441 28.2117 41.8573C27.7203 42.0705 27.1899 42.1789 26.6543 42.1756V42.1756Z" fill="#F77261"/>
<path d="M25.3198 38.2874C24.9638 38.2839 24.6206 38.1543 24.3512 37.9215C24.1347 37.7575 23.9679 37.5368 23.8691 37.2839C23.7703 37.0309 23.7435 36.7555 23.7916 36.4883C23.8349 36.332 23.9365 36.1982 24.0755 36.1147C24.2145 36.0311 24.3803 36.0041 24.5386 36.0392C24.6969 36.0742 24.8358 36.1687 24.9265 36.3032C25.0172 36.4377 25.0528 36.6018 25.026 36.7617C25.0647 36.86 25.1357 36.9422 25.2274 36.9947C25.2539 37.0102 25.284 37.0183 25.3147 37.0183C25.3454 37.0183 25.3756 37.0102 25.4021 36.9947C25.5544 36.9239 25.7286 36.9164 25.8863 36.974C26.0441 37.0316 26.1726 37.1495 26.2434 37.3017C26.3143 37.454 26.3217 37.6282 26.2641 37.786C26.2066 37.9438 26.0887 38.0722 25.9364 38.1431C25.7438 38.2356 25.5334 38.2848 25.3198 38.2874V38.2874Z" fill="#F77261"/>
<path d="M45.5599 36.4097C45.5173 36.409 45.4749 36.4044 45.4333 36.3958C45.2691 36.3608 45.1255 36.2621 45.0341 36.1213C44.9427 35.9805 44.9109 35.8091 44.9458 35.6449C45.1179 34.9998 45.5145 34.4371 46.0643 34.0582C46.6141 33.6792 47.281 33.5087 47.9452 33.5774C48.1121 33.5974 48.2642 33.6828 48.3681 33.815C48.472 33.9471 48.5191 34.1151 48.4992 34.282C48.4792 34.4489 48.3937 34.601 48.2616 34.7049C48.1295 34.8087 47.9615 34.8559 47.7946 34.8359C47.4449 34.8089 47.0962 34.8998 46.8043 35.0942C46.5124 35.2886 46.294 35.5752 46.1841 35.9083C46.1537 36.051 46.075 36.1788 45.9613 36.2702C45.8476 36.3616 45.7058 36.4108 45.5599 36.4097V36.4097Z" fill="#F77261"/>
<path d="M34.3282 29.7122H33.8091C33.2637 29.7122 32.8215 30.1543 32.8215 30.6997V31.2948C32.8215 31.8402 33.2637 32.2824 33.8091 32.2824H34.3282C34.8736 32.2824 35.3158 31.8402 35.3158 31.2948V30.6997C35.3158 30.1543 34.8736 29.7122 34.3282 29.7122Z" fill="#D35F5F"/>
<path d="M21.072 29.7373H20.5402C19.9948 29.7373 19.5526 30.1795 19.5526 30.7249V31.3199C19.5526 31.8654 19.9948 32.3075 20.5402 32.3075H21.072C21.6174 32.3075 22.0596 31.8654 22.0596 31.3199V30.7249C22.0596 30.1795 21.6174 29.7373 21.072 29.7373Z" fill="#D35F5F"/>
<path d="M21.7177 30.307C21.5739 30.3067 21.4343 30.2581 21.3214 30.169C20.936 29.8618 20.4577 29.6944 19.9648 29.6944C19.4719 29.6944 18.9936 29.8618 18.6081 30.169C18.4772 30.2743 18.3098 30.3232 18.1427 30.305C17.9757 30.2869 17.8227 30.2031 17.7174 30.0721C17.6122 29.9412 17.5632 29.7738 17.5814 29.6067C17.5995 29.4397 17.6833 29.2867 17.8143 29.1814C18.4246 28.694 19.1824 28.4285 19.9635 28.4285C20.7446 28.4285 21.5024 28.694 22.1127 29.1814C22.2154 29.2633 22.2901 29.375 22.3265 29.5012C22.3628 29.6274 22.3591 29.7618 22.3157 29.8857C22.2723 30.0096 22.1914 30.117 22.0843 30.1929C21.9771 30.2689 21.849 30.3096 21.7177 30.3095V30.307Z" fill="#7F3C3C"/>
<path d="M35.2524 30.3451C35.1092 30.3446 34.9704 30.2955 34.8587 30.2058C34.4704 29.8979 33.9894 29.7304 33.4938 29.7304C32.9982 29.7304 32.5172 29.8979 32.1289 30.2058C31.9978 30.3108 31.8304 30.3593 31.6634 30.3408C31.4965 30.3223 31.3438 30.2382 31.2389 30.1071C31.1339 29.9759 31.0854 29.8085 31.1039 29.6416C31.1224 29.4747 31.2065 29.3219 31.3376 29.217C31.9499 28.7312 32.7084 28.4668 33.49 28.4668C34.2716 28.4668 35.0302 28.7312 35.6424 29.217C35.7451 29.2988 35.8198 29.4106 35.8561 29.5368C35.8925 29.663 35.8887 29.7973 35.8453 29.9213C35.8019 30.0452 35.7211 30.1526 35.6139 30.2285C35.5068 30.3045 35.3787 30.3452 35.2474 30.3451H35.2524Z" fill="#7F3C3C"/>
</svg>
