<svg width="80" height="80" viewBox="0 0 80 80" fill="none" xmlns="http://www.w3.org/2000/svg">
<rect width="80" height="80" rx="10" fill="#5A6478"/>
<path d="M67.0945 44.0976C67.0713 34.059 59.0747 33.8847 57.6144 26.7275C55.7601 17.63 51.1824 11.6114 44.9705 8.92746C37.0897 5.53476 30.4374 7.09169 26.1494 9.97315C18.8365 14.8647 18.8829 23.1257 18.2339 29.3882V29.4231C18.1262 31.2714 17.7272 33.091 17.0518 34.8142C15.3018 38.6019 11.2919 42.2619 13.8067 50.0813C14.7107 52.8698 17.3299 55.5422 20.1577 57.378C22.0909 58.6078 24.2573 59.4228 26.5202 59.7714C32.8944 60.7486 42.0291 62.151 53.4156 58.8745H53.3959C58.5242 57.809 67.1177 54.2618 67.0945 44.0976Z" fill="#BC6E4B"/>
<path d="M49.9307 29.5511C49.3601 29.4561 48.7758 29.4858 48.2177 29.6382C47.6596 29.7906 47.141 30.0621 46.6973 30.4341C46.3247 30.7463 46.0175 31.1293 45.7933 31.5612C42.6079 30.5259 39.6908 28.7958 37.252 26.4954C34.1748 23.4499 31.4104 20.1023 29.0004 16.5032C26.086 19.6797 23.5894 23.2173 21.5716 27.0298C21.1445 27.8636 20.8586 28.7628 20.7256 29.6905C20.714 29.8685 20.714 30.047 20.7256 30.225C21.2471 33.8385 21.0617 37.9515 21.7686 41.5766C22.4756 45.2017 27.3083 48.8848 31.156 49.1172C32.3941 49.1849 33.6358 49.0991 34.853 48.8616C35.7454 50.86 36.4291 54.2644 35.1775 55.1939C34.5864 55.6354 32.906 56.2628 30.8547 57.2736C31.3298 62.3859 42.386 63.8266 48.1112 55.31C47.6476 55.0544 47.184 54.8337 46.6973 54.6129C43.4523 52.7074 43.545 44.0166 43.545 44.0166L43.5334 44.0049C44.9298 42.5381 45.8195 40.6605 46.0714 38.6487C46.5154 39.0524 47.0471 39.3468 47.6244 39.5084C50.0002 40.0545 52.0052 37.7772 52.5383 35.3489C53.0714 32.9206 52.3065 30.0856 49.9307 29.5511Z" fill="#FFBF94"/>
<path d="M56.9886 65.4298C57.3711 67.1378 55.4125 68.1719 54.1376 68.9619C52.2022 70.1471 43.2205 72.982 35.5136 72.982C27.656 72.982 23.5881 71.6924 21.4209 70.1819C19.9839 69.1711 19.9491 67.7652 20.7256 66.1967C22.0865 63.5998 24.0797 61.3897 26.5202 59.7714H26.5318C27.9046 58.8255 29.3501 57.9902 30.8547 57.2734C31.3298 62.3857 42.386 63.8264 48.1112 55.3098C49.9703 56.2533 51.6775 57.4714 53.1757 58.9233C55.0491 60.6756 56.3738 62.9362 56.9886 65.4298Z" fill="#3ABFB2"/>
<path d="M43.545 44.0165C43.545 44.0165 43.4523 52.7074 46.6973 54.6129C47.184 54.8336 47.6476 55.0544 48.1112 55.31C42.386 63.8266 31.3298 62.3859 30.8547 57.2736C32.906 56.2627 34.5864 55.6353 35.1775 55.1938C36.4291 54.2643 35.7454 50.86 34.853 48.8616C37.8846 48.3761 40.6735 46.9067 42.7917 44.6788C43.0551 44.4727 43.303 44.2475 43.5334 44.0049L43.545 44.0165Z" fill="#FF9976"/>
<path d="M21.1602 27.7231C21.0332 27.7227 20.9098 27.6805 20.809 27.603C20.7083 27.5254 20.6357 27.4168 20.6025 27.2939C20.5693 27.171 20.5774 27.0406 20.6253 26.9227C20.6733 26.8047 20.7586 26.7059 20.8681 26.6414C22.5197 25.9014 24.388 25.8089 26.1042 26.3823C26.2508 26.4285 26.3731 26.5312 26.4442 26.6678C26.5152 26.8044 26.5293 26.9638 26.4832 27.1108C26.4371 27.2578 26.3346 27.3804 26.1983 27.4516C26.0621 27.5229 25.9031 27.5369 25.7565 27.4907C24.2406 27.0594 22.6251 27.1411 21.1602 27.7231Z" fill="#BC6E4B"/>
<path d="M33.5318 27.3548C33.4102 27.3548 33.2916 27.3165 33.193 27.2452C33.0943 27.1739 33.0205 27.0733 32.9821 26.9576C32.9436 26.8419 32.9424 26.7171 32.9787 26.6007C33.0149 26.4843 33.0868 26.3823 33.1841 26.3091C34.2665 25.4854 37.3563 25.6062 38.5256 26.0164C38.6004 26.0412 38.6693 26.0811 38.7282 26.1336C38.787 26.1861 38.8346 26.25 38.868 26.3216C38.9013 26.3931 38.9198 26.4707 38.9223 26.5496C38.9247 26.6286 38.9111 26.7072 38.8822 26.7807C38.8533 26.8541 38.8098 26.9209 38.7543 26.977C38.6988 27.033 38.6325 27.0771 38.5595 27.1066C38.4864 27.1361 38.4081 27.1504 38.3293 27.1485C38.2506 27.1466 38.1731 27.1287 38.1015 27.0957C37.4188 26.8285 34.5088 26.7623 33.8841 27.2352C33.783 27.3128 33.6591 27.3549 33.5318 27.3548Z" fill="#BC6E4B"/>
<path d="M37.2867 61.9814C36.4275 61.9853 35.571 61.8823 34.7371 61.6746C32.1364 61.0077 30.4699 59.3834 30.2787 57.328C30.2715 57.252 30.2793 57.1752 30.3018 57.1022C30.3242 57.0291 30.3609 56.9613 30.4095 56.9024C30.4582 56.8436 30.5179 56.795 30.5854 56.7594C30.6528 56.7237 30.7266 56.7018 30.8025 56.6948C30.9549 56.6839 31.1055 56.7325 31.223 56.8304C31.3405 56.9282 31.4157 57.0678 31.433 57.22C31.5767 58.7653 32.9187 60.0085 35.0256 60.5488C38.6728 61.4783 44.1696 60.1363 47.6348 54.9857C47.6565 54.9521 47.6822 54.9213 47.7113 54.8939C47.7652 54.8382 47.8297 54.7938 47.9009 54.7635C47.9722 54.7332 48.0488 54.7174 48.1262 54.7173C48.2799 54.7173 48.4273 54.7785 48.536 54.8874C48.6446 54.9964 48.7057 55.1442 48.7057 55.2982C48.7048 55.4323 48.6586 55.5621 48.5747 55.6665C47.3524 57.5649 45.6839 59.1335 43.7158 60.2345C41.7477 61.3355 39.5401 61.9354 37.2867 61.9814Z" fill="white"/>
<path d="M30.3088 41.847C30.2648 41.847 30.2207 41.847 30.1767 41.847C29.788 41.8486 29.4037 41.7645 29.051 41.6007C28.6983 41.4369 28.3859 41.1973 28.1358 40.899C28.0466 40.7766 28.0086 40.6242 28.03 40.4741C28.0513 40.3241 28.1303 40.1884 28.2501 40.0959C28.3698 40.0035 28.5209 39.9616 28.671 39.9792C28.8211 39.9968 28.9585 40.0725 29.0537 40.1902C29.202 40.3508 29.3826 40.478 29.5836 40.5636C29.7845 40.6491 30.0013 40.6909 30.2196 40.6863C30.5615 40.6997 30.9023 40.6398 31.2193 40.5105C31.5363 40.3813 31.8221 40.1857 32.0576 39.9369C32.1073 39.8767 32.1687 39.8272 32.2379 39.7914C32.3071 39.7555 32.3829 39.734 32.4606 39.7282C32.5383 39.7223 32.6164 39.7323 32.6902 39.7574C32.764 39.7825 32.832 39.8223 32.8901 39.8744C32.9482 39.9265 32.9952 39.9898 33.0284 40.0605C33.0615 40.1312 33.0801 40.2079 33.083 40.286C33.0858 40.364 33.073 40.4419 33.0452 40.5149C33.0174 40.5879 32.9751 40.6545 32.921 40.7107C32.5885 41.072 32.1844 41.3597 31.7346 41.5554C31.2848 41.751 30.7991 41.8504 30.3088 41.847Z" fill="#EF6F59"/>
<path d="M29.0873 38.2803C28.7614 38.2771 28.4473 38.1581 28.2007 37.9445C28.0025 37.794 27.8498 37.5915 27.7594 37.3594C27.669 37.1272 27.6444 36.8745 27.6884 36.6293C27.7281 36.4858 27.8211 36.3631 27.9483 36.2864C28.0755 36.2097 28.2273 36.1849 28.3722 36.2171C28.5172 36.2493 28.6442 36.336 28.7273 36.4594C28.8103 36.5828 28.8429 36.7334 28.8184 36.8802C28.8541 36.9702 28.919 37.0455 29.0027 37.094C29.0272 37.1082 29.0549 37.1156 29.0832 37.1156C29.1115 37.1156 29.1393 37.1082 29.1638 37.094C29.2333 37.0571 29.3096 37.0348 29.388 37.0284C29.4664 37.0221 29.5453 37.0318 29.6198 37.057C29.6944 37.0821 29.763 37.1223 29.8216 37.1749C29.8801 37.2276 29.9274 37.2916 29.9605 37.3632C29.9936 37.4347 30.0118 37.5123 30.014 37.5911C30.0162 37.6699 30.0024 37.7484 29.9734 37.8217C29.9444 37.895 29.9008 37.9616 29.8453 38.0175C29.7898 38.0734 29.7235 38.1173 29.6505 38.1467C29.475 38.2326 29.2826 38.2782 29.0873 38.2803Z" fill="#EF6F59"/>
<path d="M47.6128 35.3952C47.5739 35.3945 47.5352 35.3906 47.4969 35.3836C47.4224 35.3677 47.3517 35.3373 47.2889 35.294C47.2261 35.2507 47.1725 35.1954 47.1311 35.1313C47.0896 35.0672 47.0612 34.9955 47.0474 34.9204C47.0336 34.8453 47.0348 34.7681 47.0507 34.6934C47.2102 34.1028 47.5735 33.588 48.0761 33.2408C48.5786 32.8936 49.1878 32.7364 49.7951 32.7972C49.8707 32.8063 49.9437 32.8302 50.0101 32.8676C50.0764 32.905 50.1348 32.9551 50.1818 33.0151C50.2288 33.0751 50.2636 33.1438 50.2842 33.2172C50.3047 33.2907 50.3106 33.3675 50.3016 33.4433C50.2936 33.5193 50.2704 33.5929 50.2335 33.6599C50.1966 33.7268 50.1467 33.7856 50.0867 33.8328C50.0268 33.8801 49.958 33.9148 49.8844 33.9349C49.8108 33.9549 49.7339 33.96 49.6583 33.9498C49.3384 33.9276 49.0202 34.0124 48.7534 34.1909C48.4867 34.3694 48.2865 34.6315 48.1842 34.9363C48.1562 35.067 48.084 35.1841 47.98 35.2677C47.8759 35.3513 47.7462 35.3963 47.6128 35.3952Z" fill="#EF6F59"/>
<path d="M37.3331 30.4106H36.8579C36.3587 30.4106 35.954 30.8164 35.954 31.3169V32.4323C35.954 32.9328 36.3587 33.3386 36.8579 33.3386H37.3331C37.8323 33.3386 38.2371 32.9328 38.2371 32.4323V31.3169C38.2371 30.8164 37.8323 30.4106 37.3331 30.4106Z" fill="#BC6E4B"/>
<path d="M25.1991 30.4456H24.7123C24.2131 30.4456 23.8083 30.8513 23.8083 31.3518V32.4672C23.8083 32.9678 24.2131 33.3735 24.7123 33.3735H25.1991C25.6983 33.3735 26.103 32.9678 26.103 32.4672V31.3518C26.103 30.8513 25.6983 30.4456 25.1991 30.4456Z" fill="#BC6E4B"/>
<path d="M25.789 30.9568C25.658 30.9566 25.5309 30.912 25.4285 30.8302C25.0759 30.5458 24.6369 30.3909 24.1844 30.3909C23.7319 30.3909 23.2929 30.5458 22.9403 30.8302C22.8808 30.8778 22.8125 30.9133 22.7393 30.9345C22.6661 30.9557 22.5895 30.9623 22.5138 30.9538C22.4381 30.9454 22.3648 30.922 22.2981 30.8852C22.2314 30.8483 22.1726 30.7986 22.125 30.739C22.0774 30.6793 22.0421 30.6108 22.0209 30.5375C21.9997 30.4641 21.9932 30.3873 22.0016 30.3114C22.0187 30.1581 22.0958 30.0179 22.216 29.9216C22.7753 29.4734 23.4701 29.2292 24.1862 29.2292C24.9022 29.2292 25.597 29.4734 26.1563 29.9216C26.2504 29.9967 26.3188 30.0994 26.3521 30.2153C26.3853 30.3312 26.3818 30.4546 26.3419 30.5684C26.302 30.6822 26.2278 30.7807 26.1296 30.8503C26.0313 30.9199 25.9139 30.9571 25.7936 30.9568H25.789Z" fill="#7F3C3C"/>
<path d="M38.178 30.9915C38.047 30.9913 37.9199 30.9467 37.8175 30.8649C37.4623 30.5809 37.0214 30.4263 36.567 30.4263C36.1127 30.4263 35.6718 30.5809 35.3166 30.8649C35.1961 30.9597 35.0431 31.003 34.891 30.9851C34.7389 30.9672 34.6 30.8897 34.5048 30.7695C34.4095 30.6492 34.3656 30.4961 34.3826 30.3435C34.3997 30.1909 34.4763 30.0512 34.5957 29.9551C35.1558 29.5085 35.8503 29.2654 36.5659 29.2654C37.2815 29.2654 37.976 29.5085 38.5361 29.9551C38.6297 30.0304 38.6977 30.133 38.7306 30.2487C38.7636 30.3644 38.7599 30.4875 38.7201 30.601C38.6803 30.7145 38.6063 30.8128 38.5083 30.8823C38.4104 30.9519 38.2933 30.9892 38.1733 30.9892L38.178 30.9915Z" fill="#7F3C3C"/>
</svg>
