<svg width="80" height="80" viewBox="0 0 80 80" fill="none" xmlns="http://www.w3.org/2000/svg">
<rect width="80" height="80" rx="10" fill="#5A6478"/>
<path d="M57.3847 31.659C57.7314 28.6886 57.7273 25.6877 57.3725 22.7182C55.0121 10.8784 44.029 8.22314 35.9717 8.22314C32.1175 8.28993 28.4437 9.86788 25.7416 12.6171C23.0395 15.3664 21.5254 19.0669 21.5254 22.9217C21.5254 24.4364 22.7439 25.46 23.2314 31.0302C23.2923 31.5554 23.3337 31.9807 23.3435 32.1708C23.6847 38.8364 24.818 43.6133 27.4501 46.5257C28.5888 47.6838 29.9585 48.5894 31.4701 49.1835C32.9817 49.7777 34.6014 50.0471 36.2239 49.9743C36.583 49.9632 36.9411 49.9306 37.2963 49.8768C37.9421 52.0337 38.7951 54.4465 37.6619 55.2751C36.7893 55.8021 35.8718 56.2507 34.92 56.6156V56.6278C34.0061 58.5531 36.4311 59.8936 39.5019 59.9911C43.3039 60.1251 48.6291 58.3825 50.6154 54.3856V54.3734C48.5926 52.643 47.3679 48.5376 47.313 45.6727C49.1299 43.9683 50.5272 41.8661 51.3953 39.531C51.8536 39.9453 52.4056 40.2422 53.0038 40.3962C55.4532 40.9446 57.5248 38.6415 58.0853 36.1799C58.2776 35.4179 58.3147 34.6249 58.1943 33.8483C58.0739 33.0716 57.7986 32.3271 57.3847 31.659Z" fill="#FFBF94"/>
<path d="M62.7221 67.0098C63.1608 68.9595 60.9186 70.1537 59.4441 71.0555C57.2263 72.4081 49.7807 75.6617 38.0458 75.6617C29.0161 75.6617 24.3489 74.1872 21.8508 72.4568C20.2057 71.2992 20.1569 69.6785 21.0587 67.8872C23.9833 61.977 30.1371 58.8087 34.1463 56.9686C34.4144 56.8468 34.6703 56.7371 34.914 56.6152V56.6274C34.0001 58.5528 36.425 59.8932 39.4959 59.9907C43.2979 60.1248 48.6231 58.3822 50.6094 54.3852V54.373C50.7069 54.4583 50.8043 54.5315 50.9018 54.6046C51.3771 54.8239 51.8523 55.0433 52.3154 55.287C57.5431 57.9679 61.6376 62.1111 62.7221 67.0098Z" fill="#3ABFB2"/>
<path d="M47.307 45.6726C46.7011 46.2411 46.0398 46.7473 45.3328 47.1837C42.8782 48.6523 40.1343 49.5711 37.2902 49.8767C37.936 52.0336 38.7891 54.4464 37.6558 55.2751C36.7832 55.802 35.8657 56.2506 34.914 56.6155V56.6277C34 58.5531 36.425 59.8935 39.4958 59.991C43.2978 60.125 48.623 58.3825 50.6093 54.3855V54.3733C48.5865 52.6429 47.5994 47.8661 47.307 45.6726Z" fill="#FF9976"/>
<path d="M33.7197 21.8736C33.5248 23.2141 32.6474 26.6992 28.7845 27.0891C27.9232 27.2346 27.0383 27.0706 26.2864 26.6261C24.6413 25.689 24.7631 23.2019 24.8972 22.227C24.6535 23.3968 24.0929 26.2374 22.4722 26.7479C19.5976 27.6521 18 26.2483 18 22.6169C18 18.4128 23.4105 4.53314 37.7898 4.02134C45.1135 3.76544 50.8774 5.82484 54.7403 9.46841C57.8183 12.5659 59.9888 16.4474 61.016 20.6916C63.0998 27.8934 59.9924 30.6352 57.3847 31.6588C56.9142 30.9652 56.1937 30.4805 55.374 30.3062C54.7834 30.2139 54.1801 30.2465 53.6029 30.4018C53.0256 30.5572 52.4874 30.8318 52.0229 31.208C51.5654 31.6016 51.1745 32.0666 50.8652 32.585C50.3487 30.34 48.9814 28.383 47.0511 27.1257C44.913 25.0905 43.5223 22.3949 43.1028 19.473C43.1028 19.473 41.71 25.5099 38.2894 26.163C38.0364 26.2131 37.7796 26.2416 37.5217 26.2483C33.3054 26.5042 33.6101 23.2141 33.7197 21.8736Z" fill="#7C4545"/>
<path d="M41.9476 30.7083V32.195C41.9383 32.3358 41.9013 32.4734 41.8387 32.5999C41.7762 32.7264 41.6892 32.8393 41.5829 32.9322C41.4766 33.025 41.353 33.0959 41.2193 33.1409C41.0855 33.1859 40.9441 33.204 40.8034 33.1942H40.4134C40.2732 33.2038 40.1325 33.1855 39.9995 33.1403C39.8664 33.0952 39.7436 33.024 39.6382 32.9311C39.5328 32.8382 39.4469 32.7253 39.3854 32.5989C39.324 32.4726 39.2882 32.3353 39.2801 32.195V30.7083C39.2983 30.4257 39.4278 30.1618 39.6402 29.9745C39.8527 29.7871 40.1307 29.6917 40.4134 29.7091H40.8034C41.0872 29.6916 41.3664 29.7867 41.5806 29.9738C41.7948 30.1608 41.9267 30.4247 41.9476 30.7083Z" fill="#D35F5F"/>
<path d="M28.3616 30.7085V32.1952C28.3522 32.3361 28.3151 32.4737 28.2524 32.6002C28.1896 32.7268 28.1026 32.8396 27.9962 32.9325C27.8898 33.0253 27.7661 33.0962 27.6323 33.1412C27.4984 33.1861 27.357 33.2042 27.2162 33.1945H26.825C26.6849 33.204 26.5442 33.1857 26.4113 33.1405C26.2783 33.0953 26.1556 33.0242 26.0503 32.9313C25.945 32.8383 25.8592 32.7254 25.7978 32.5991C25.7365 32.4727 25.7008 32.3354 25.6929 32.1952V30.7085C25.7111 30.4261 25.8404 30.1624 26.0526 29.9751C26.2648 29.7879 26.5425 29.6923 26.825 29.7093H27.2125C27.4971 29.6908 27.7774 29.7855 27.9926 29.9726C28.2078 30.1597 28.3404 30.4242 28.3616 30.7085Z" fill="#D35F5F"/>
<path d="M41.5552 30.3429C41.4159 30.3435 41.2806 30.2957 41.1726 30.2076C40.8091 29.9152 40.3566 29.7557 39.89 29.7557C39.4235 29.7557 38.971 29.9152 38.6075 30.2076C38.4808 30.3036 38.3217 30.3463 38.1641 30.3266C38.0064 30.3069 37.8627 30.2264 37.7635 30.1023C37.6644 29.9782 37.6176 29.8202 37.6332 29.6621C37.6488 29.504 37.7256 29.3583 37.8471 29.2559C38.4273 28.7907 39.1488 28.5371 39.8925 28.5371C40.6362 28.5371 41.3577 28.7907 41.9379 29.2559C42.0359 29.3351 42.107 29.4427 42.1413 29.5639C42.1757 29.6852 42.1716 29.8141 42.1296 29.9329C42.0876 30.0517 42.0099 30.1546 41.907 30.2273C41.8041 30.3001 41.6812 30.3392 41.5552 30.3393V30.3429Z" fill="#7F3C3C"/>
<path d="M24.2477 29.2583C24.1293 29.3614 24.0554 29.5063 24.0413 29.6626C24.0271 29.819 24.0739 29.9747 24.1718 30.0975C24.2697 30.2202 24.4111 30.3004 24.5667 30.3213C24.7223 30.3423 24.88 30.3024 25.0069 30.21C25.3703 29.9175 25.8229 29.7581 26.2894 29.7581C26.756 29.7581 27.2085 29.9175 27.572 30.21C27.6342 30.2603 27.7058 30.2979 27.7826 30.3206C27.8593 30.3432 27.9398 30.3506 28.0194 30.3421C28.099 30.3337 28.1762 30.3097 28.2465 30.2714C28.3168 30.2332 28.3789 30.1814 28.4293 30.1192C28.4796 30.0569 28.5172 29.9854 28.5398 29.9086C28.5625 29.8318 28.5698 29.7514 28.5614 29.6717C28.553 29.5921 28.5289 29.515 28.4907 29.4447C28.4524 29.3743 28.4007 29.3122 28.3385 29.2619C27.7587 28.7961 27.0374 28.5419 26.2937 28.5413C25.55 28.5406 24.8283 28.7935 24.2477 29.2583Z" fill="#7F3C3C"/>
<path d="M33.0715 38.2257C33.337 38.2247 33.6 38.1734 33.8465 38.0746C33.9968 38.0151 34.1173 37.8984 34.1815 37.75C34.2457 37.6017 34.2484 37.434 34.1889 37.2837C34.1294 37.1334 34.0127 37.0129 33.8644 36.9487C33.7161 36.8845 33.5483 36.8818 33.398 36.9413C33.2586 36.996 33.1078 37.0155 32.959 36.9981C32.8102 36.9806 32.6681 36.9268 32.545 36.8414C32.3702 36.74 32.2365 36.5804 32.1673 36.3905C32.2075 36.2378 32.1869 36.0754 32.1097 35.9376C32.0325 35.7998 31.9049 35.6973 31.7537 35.6518C31.6024 35.6063 31.4394 35.6213 31.299 35.6936C31.1586 35.766 31.0518 35.89 31.0011 36.0395C30.936 36.3256 30.9531 36.6243 31.0503 36.9011C31.1475 37.1779 31.321 37.4216 31.5507 37.6042C31.962 37.9942 32.5046 38.216 33.0715 38.2257Z" fill="#F77261"/>
<path d="M36.4823 39.822C35.5498 40.494 34.4019 40.7978 33.2591 40.675C32.6905 40.7221 32.1234 40.5681 31.6567 40.24C31.6114 40.172 31.553 40.1139 31.4848 40.0689C31.4167 40.024 31.3402 39.9932 31.2599 39.9784C31.1796 39.9637 31.0972 39.9652 31.0175 39.9828C30.9378 40.0005 30.8624 40.0341 30.7959 40.0814C30.7295 40.1288 30.6732 40.1891 30.6304 40.2586C30.5877 40.3282 30.5593 40.4056 30.5471 40.4863C30.5349 40.567 30.539 40.6494 30.5592 40.7285C30.5794 40.8076 30.6153 40.8818 30.6648 40.9468C31.0026 41.2694 31.4027 41.5197 31.8406 41.6823C32.2786 41.8449 32.7451 41.9164 33.2116 41.8924H33.5187C34.9378 41.9917 36.3389 41.5276 37.4181 40.6007C37.5219 40.4768 37.5722 40.3167 37.5579 40.1557C37.5436 39.9947 37.4659 39.8459 37.342 39.7422C37.218 39.6385 37.058 39.5882 36.897 39.6025C36.736 39.6168 36.5872 39.6944 36.4835 39.8184L36.4823 39.822Z" fill="#F77261"/>
<path d="M52.9587 35.7776C52.9987 35.7866 53.0396 35.7911 53.0806 35.791C53.2208 35.7907 53.3567 35.7421 53.4653 35.6533C53.5738 35.5645 53.6484 35.4409 53.6765 35.3035C53.7825 34.9944 53.9891 34.7296 54.2632 34.5516C54.5373 34.3736 54.8632 34.2925 55.1887 34.3213C55.2682 34.3309 55.3488 34.3248 55.4258 34.3033C55.5029 34.2817 55.575 34.2452 55.638 34.1958C55.7009 34.1464 55.7536 34.0851 55.7928 34.0154C55.8321 33.9457 55.8573 33.8689 55.8669 33.7894C55.8765 33.71 55.8703 33.6294 55.8488 33.5523C55.8273 33.4753 55.7908 33.4032 55.7414 33.3402C55.692 33.2772 55.6307 33.2246 55.5609 33.1853C55.4912 33.146 55.4144 33.1209 55.335 33.1113C54.7061 33.0417 54.0731 33.1994 53.5503 33.5559C53.0276 33.9124 52.6496 34.4441 52.4847 35.0549C52.4681 35.1335 52.4673 35.2146 52.4821 35.2935C52.497 35.3725 52.5274 35.4477 52.5714 35.5148C52.6155 35.582 52.6724 35.6398 52.7388 35.6849C52.8053 35.7299 52.88 35.7615 52.9587 35.7776Z" fill="#F77261"/>
<path d="M39.926 60.6076C39.7749 60.6076 39.6238 60.6076 39.4752 60.5991C37.0879 60.5235 35.1553 59.7461 34.4339 58.5604C34.2326 58.2324 34.1202 57.8577 34.1078 57.473C34.0954 57.0884 34.1835 56.7072 34.3632 56.367C34.3934 56.2886 34.4394 56.2173 34.4984 56.1576C34.5575 56.0978 34.6282 56.051 34.7062 56.0199C34.7842 55.9888 34.8678 55.9742 34.9518 55.9769C35.0357 55.9797 35.1182 55.9997 35.194 56.0359C35.2698 56.072 35.3373 56.1234 35.3923 56.1869C35.4473 56.2504 35.4885 56.3245 35.5135 56.4047C35.5385 56.4849 35.5466 56.5693 35.5374 56.6528C35.5282 56.7363 35.5018 56.8169 35.4599 56.8897C35.3685 57.0476 35.3212 57.2273 35.3232 57.4097C35.3251 57.5922 35.3761 57.7708 35.4709 57.9267C35.9656 58.7359 37.5888 59.3208 39.5117 59.3817C43.2893 59.4975 48.2709 57.7135 50.0598 54.1138C50.1317 53.9684 50.2584 53.8574 50.4121 53.8055C50.5658 53.7535 50.7338 53.7647 50.8793 53.8366C51.0247 53.9085 51.1356 54.0352 51.1876 54.1889C51.2396 54.3426 51.2284 54.5106 51.1565 54.6561C49.1885 58.6128 44.1094 60.6076 39.926 60.6076Z" fill="white"/>
<path d="M42.2096 27.4023C42.1324 27.3959 42.0572 27.3748 41.9879 27.3402C40.8911 26.7955 38.5283 26.4616 37.8447 26.8844C37.7767 26.9286 37.7006 26.9588 37.6209 26.9733C37.5411 26.9877 37.4593 26.986 37.3802 26.9685C37.301 26.9509 37.2262 26.9176 37.1601 26.8708C37.094 26.8239 37.0378 26.7643 36.995 26.6955C36.9522 26.6266 36.9236 26.55 36.9108 26.4699C36.898 26.3899 36.9013 26.3081 36.9205 26.2293C36.9397 26.1506 36.9744 26.0765 37.0226 26.0113C37.0708 25.9461 37.1316 25.8912 37.2013 25.8498C38.4515 25.0724 41.3615 25.6671 42.5289 26.2495C42.6558 26.3126 42.7567 26.418 42.8143 26.5474C42.8719 26.6769 42.8826 26.8224 42.8445 26.9589C42.8064 27.0954 42.722 27.2143 42.6056 27.2953C42.4893 27.3762 42.3484 27.4141 42.2072 27.4023H42.2096Z" fill="#7C4545"/>
<path d="M23.8005 27.6693C23.8776 27.6624 23.9528 27.6413 24.0223 27.6071C25.119 27.0624 27.4818 26.7273 28.1654 27.1514C28.2334 27.1937 28.3091 27.2222 28.3882 27.2353C28.4672 27.2484 28.548 27.2458 28.6261 27.2276C28.7041 27.2094 28.7778 27.1761 28.8429 27.1294C28.908 27.0828 28.9633 27.0238 29.0057 26.9558C29.048 26.8878 29.0765 26.8121 29.0896 26.7331C29.1027 26.654 29.1 26.5732 29.0819 26.4952C29.0637 26.4172 29.0304 26.3435 28.9837 26.2783C28.9371 26.2132 28.8781 26.1579 28.8101 26.1156C27.5598 25.3393 24.6498 25.934 23.4824 26.5165C23.3555 26.5796 23.2546 26.6849 23.197 26.8144C23.1394 26.9439 23.1287 27.0894 23.1668 27.2258C23.2049 27.3623 23.2894 27.4813 23.4057 27.5622C23.522 27.6432 23.6629 27.681 23.8041 27.6693H23.8005Z" fill="#7C4545"/>
</svg>
