<svg width="80" height="80" viewBox="0 0 80 80" fill="none" xmlns="http://www.w3.org/2000/svg">
<rect width="80" height="80" rx="10" fill="#5A6478"/>
<path d="M59.0811 71.5423C59.0179 71.5803 58.9547 71.6183 58.8788 71.6563C57.7295 72.1884 56.5524 72.6579 55.3526 73.0628C54.5943 73.3035 53.7475 73.5569 52.8502 73.8104C52.4457 73.9244 51.5218 74.1512 51.0921 74.2652C51.1553 73.7584 51.2817 71.2977 51.3449 70.3867C51.9061 62.3546 50.1645 58.1264 49.9117 55.1741C54.5754 57.2521 59.9835 60.862 61.3055 65.184C61.5747 66.0621 62.0006 66.8439 62.1902 67.6929C62.6072 69.553 60.4713 70.6807 59.0811 71.5423Z" fill="#FCAC88"/>
<path d="M52.3863 69.819C52.0072 71.4662 51.6621 73.6202 51.5989 74.1347C47.4081 75.2353 43.1021 75.835 38.7707 75.9213C34.5713 76.0548 30.3777 75.5128 26.3494 74.3159C26.5453 73.3541 26.814 72.4086 27.1532 71.4877C29.0705 66.6272 30.1726 65.1434 31.3088 63.7484C32.7319 61.9998 35.2268 59.6177 35.2268 59.6177C37.3627 61.0368 42.6267 60.5224 44.9775 59.9268C45.3061 64.5264 46.8632 68.2795 51.2236 69.6606C51.6023 69.7655 51.9934 69.8187 52.3863 69.819Z" fill="#3ABFB2"/>
<path d="M34.3472 58.3899C32.1621 59.3413 30.0927 60.5401 28.1795 61.9631C26.0998 63.9408 24.2434 66.1419 22.6437 68.5266C21.7969 70.2371 21.8349 71.7703 23.4021 72.8727C24.3657 73.5217 25.4169 74.0295 26.5238 74.3805C26.5365 74.3425 26.5617 74.2538 26.6123 74.1017C26.7172 73.728 26.9687 72.974 27.3921 71.9008C28.3282 69.5357 29.4537 67.2504 30.7578 65.0674C32.1994 63.1972 33.7571 61.4198 35.4214 59.7457C34.9126 59.4377 34.5313 58.9564 34.3472 58.3899Z" fill="#FCAC88"/>
<path d="M44.8739 52.9329L44.8752 52.929V52.925L44.8739 52.9329Z" fill="#724948"/>
<path d="M55.8708 64.207C55.9214 64.2691 55.9719 64.3337 56.0187 64.3933C55.9719 64.3287 55.9226 64.2691 55.8708 64.207Z" fill="#724948"/>
<path d="M56.4522 65.1309C56.5181 65.2787 56.573 65.4312 56.6165 65.5871C56.5637 65.3945 56.4917 65.2077 56.4016 65.0295C56.4259 65.0591 56.4432 65.0937 56.4522 65.1309Z" fill="#724948"/>
<path d="M50.6119 26.7547C50.6119 17.5784 44.8752 9.611 34.7983 10.1394C27.109 10.5423 22.1887 17.1185 22.1887 26.2947C22.2874 27.0711 22.4308 27.8411 22.6184 28.6008C22.614 28.8334 22.6224 29.066 22.6437 29.2977C23.2125 33.2383 23.0102 37.7238 23.7812 41.6771C24.1895 43.3059 25.0481 44.786 26.2584 45.9472C28.3064 48.1315 31.0513 49.5298 34.0185 49.9005C35.3688 49.9744 36.7229 49.8807 38.0503 49.6217C39.0235 51.8011 39.7691 55.5137 38.4042 56.5274C37.0911 57.2309 35.7362 57.8529 34.3471 58.39C34.5313 58.9565 34.9126 59.4378 35.4214 59.7458C37.5574 61.1649 43.0603 61.0002 46.9846 59.4505C46.7192 55.966 46.4361 53.2291 47.384 50.2908C49.0169 45.2566 50.6119 30.727 50.6119 26.7547Z" fill="#FFBF94"/>
<path d="M46.9846 44.4951C46.796 44.8215 46.5717 45.1258 46.316 45.4024C43.9525 48.0886 39.1498 49.4317 38.0503 49.6217C38.4621 50.5645 38.7673 51.5505 38.9603 52.5614C39.2889 54.2466 39.251 55.9065 38.4042 56.5274C37.0911 57.2309 35.7362 57.8529 34.3471 58.39C34.5313 58.9565 34.9126 59.4377 35.4214 59.7458C37.5574 61.1649 42.0188 60.6834 44.3696 60.0879C44.16 56.6504 44.593 53.2039 45.6461 49.9258C46.2125 48.1475 46.6596 46.3332 46.9846 44.4951Z" fill="#FCAC88"/>
<path d="M44.9826 59.9357C44.9415 59.773 44.8376 59.6332 44.6937 59.5472C44.5499 59.4612 44.3778 59.436 44.2154 59.477C41.9582 60.0485 37.6711 60.4907 35.7601 59.2148C35.3764 58.9863 35.0881 58.6262 34.9487 58.2011C34.8968 58.0411 34.7836 57.9084 34.634 57.8321C34.4845 57.7559 34.3108 57.7423 34.1512 57.7944C33.9917 57.8464 33.8593 57.9599 33.7832 58.1099C33.7071 58.2598 33.6936 58.4339 33.7455 58.5939C33.9741 59.2965 34.4445 59.8947 35.0726 60.2816C35.4389 60.5129 35.833 60.6964 36.2455 60.8278C35.5461 61.9106 34.941 63.0518 34.4369 64.2388C34.3698 64.3928 34.3666 64.5673 34.4279 64.7238C34.4891 64.8803 34.6099 65.0059 34.7636 65.0731C34.9173 65.1403 35.0913 65.1436 35.2474 65.0822C35.4035 65.0207 35.5288 64.8997 35.5958 64.7456C36.1131 63.4708 36.7814 62.2631 37.5864 61.1483C37.9416 61.2041 38.3018 61.2484 38.6734 61.275C38.3227 62.443 38.0371 63.6295 37.8177 64.8292C37.8026 64.9125 37.8043 64.998 37.8227 65.0806C37.8411 65.1632 37.8758 65.2413 37.9248 65.3103C37.9738 65.3792 38.0361 65.4377 38.108 65.4821C38.1798 65.5265 38.2599 65.556 38.3434 65.5689C38.4268 65.5817 38.512 65.5777 38.5939 65.557C38.6758 65.5363 38.7527 65.4994 38.8201 65.4484C38.8875 65.3974 38.944 65.3334 38.9863 65.2601C39.0287 65.1868 39.0559 65.1058 39.0664 65.0218C39.3007 63.765 39.6075 62.5228 39.9853 61.3016C40.458 61.2928 40.9193 61.2674 41.3755 61.2256V65.1663C41.3755 65.3343 41.4421 65.4954 41.5606 65.6142C41.6791 65.7331 41.8399 65.7998 42.0075 65.7998C42.1751 65.7998 42.3358 65.7331 42.4543 65.6142C42.5728 65.4954 42.6394 65.3343 42.6394 65.1663V61.066C43.3611 60.9583 44.0195 60.8303 44.5263 60.7023C44.6879 60.6608 44.8265 60.5569 44.912 60.4133C44.9975 60.2697 45.0229 60.098 44.9826 59.9357Z" fill="white"/>
<path d="M72.0863 56.1219C71.8714 64.5227 63.315 66.5247 61.3308 65.1689L61.0274 64.6747C58.5081 60.667 54.8378 57.5175 50.4994 55.6404C50.638 57.2397 51.1364 58.7866 51.9574 60.1649C52.7783 61.5432 53.9003 62.7169 55.2389 63.5977C58.07 65.6377 56.9793 71.2129 52.2815 70.554C51.8027 70.4885 51.3295 70.3868 50.8659 70.2499C46.5056 68.8688 44.6982 64.6874 44.3696 60.0879C44.16 56.6504 44.593 53.2039 45.6461 49.9258C47.2435 45.1628 47.8164 40.1146 47.3271 35.1136C47.1838 33.5242 46.6339 31.9988 45.7306 30.6847C44.8272 29.3707 43.601 28.3125 42.1705 27.6125C35.5605 24.6475 30.0753 24.2294 27.7877 18.2234C27.7039 17.9378 27.5324 17.686 27.2976 17.5038C27.0628 17.3216 26.7767 17.2182 26.4799 17.2084C26.1832 17.1985 25.8909 17.2828 25.6446 17.4491C25.3984 17.6154 25.2107 17.8553 25.1083 18.1347C24.0933 20.7858 23.3274 23.5262 22.8207 26.3201C22.6378 27.3013 22.5784 28.3016 22.6437 29.2977C23.2125 33.2383 23.0103 37.7238 23.7812 41.6771C24.1895 43.3059 25.0481 44.786 26.2584 45.9472C28.3064 48.1315 31.0513 49.5298 34.0186 49.9005C35.3688 49.9744 36.723 49.8807 38.0503 49.6217C39.0235 51.8011 39.7692 55.5137 38.4042 56.5274C37.0911 57.2309 35.7362 57.8529 34.3472 58.39C32.1621 59.3414 30.0927 60.5402 28.1795 61.9632C28.6486 63.3162 29.4278 64.54 30.4544 65.5363C30.96 66.0432 31.4516 66.4879 31.8826 66.9301C32.1042 67.1707 32.311 67.4246 32.5019 67.6904C33.9895 69.8672 31.7057 73.1769 27.5223 71.6437C26.6733 71.3141 25.8932 70.8285 25.222 70.2119C24.3695 69.3326 23.7032 68.2896 23.263 67.1455C21.2953 67.5195 19.2793 67.5623 17.2976 67.2722C16.3564 67.0332 15.4959 66.5467 14.8049 65.8629C14.1139 65.179 13.6175 64.3227 13.3669 63.3823C12.9305 61.9727 12.8824 60.4709 13.2279 59.0362C13.5889 57.761 14.0365 56.5121 14.5676 55.2983C17.0252 50.7015 18.7764 45.7591 19.7621 40.6381C20.3298 36.9036 20.5161 33.1208 20.3182 29.3484C20.3056 29.1203 20.3056 28.8922 20.3056 28.6515V28.6261C20.116 21.3277 20.7353 12.0653 28.5586 7.21241C31.615 5.32505 35.0929 4.23227 38.677 4.03313C42.2612 3.834 45.8382 4.53481 49.0839 6.07203C55.8582 8.999 58.9294 15.3598 60.5977 25.3444C64.6042 49.267 72.2506 49.4697 72.0863 56.1219Z" fill="#BC6E4B"/>
<path d="M28.0025 52.5867C27.5084 55.1851 27.4359 57.8464 27.7877 60.4679C27.8836 60.9748 28.0145 61.4744 28.1795 61.9631C28.7684 61.4907 29.3892 61.0598 30.0374 60.6732C27.7548 58.4862 28.1593 53.3963 28.0025 52.5867Z" fill="#A05C42"/>
<path d="M22.6184 60.6706C22.6094 62.8454 22.8255 65.0153 23.263 67.1454C21.305 67.5681 19.2843 67.6111 17.3102 67.2721C21.1587 67.0529 21.5543 64.4656 21.711 61.2687C21.8594 56.9777 22.6073 52.7288 23.9329 48.646C23.1738 52.6124 22.7342 56.6336 22.6184 60.6706Z" fill="#A05C42"/>
<path d="M53.2483 55.5454C51.6899 51.6744 53.7323 45.9307 53.3342 39.6523C53.0562 42.4822 52.5721 45.2878 51.8858 48.0468C51.1479 50.5197 50.6817 53.066 50.4956 55.6404C52.1134 56.3712 53.6542 57.2626 55.0948 58.3013C54.3919 57.4447 53.7735 56.5217 53.2483 55.5454Z" fill="#A05C42"/>
<path d="M22.8207 26.9536C22.6887 26.9521 22.5605 26.9091 22.4541 26.8308C22.3477 26.7524 22.2685 26.6427 22.2275 26.5169C22.1865 26.3911 22.1858 26.2556 22.2256 26.1294C22.2653 26.0032 22.3435 25.8927 22.4491 25.8133C23.4321 25.2336 24.5532 24.9312 25.6936 24.9379C26.834 24.9445 27.9515 25.2602 28.9277 25.8513C28.9898 25.9066 29.0404 25.9737 29.0766 26.0486C29.1128 26.1235 29.134 26.2049 29.1388 26.288C29.1437 26.3711 29.1322 26.4544 29.105 26.5331C29.0777 26.6117 29.0353 26.6842 28.9801 26.7465C28.9249 26.8087 28.8581 26.8594 28.7833 26.8958C28.7086 26.9321 28.6275 26.9533 28.5445 26.9582C28.4616 26.9631 28.3786 26.9515 28.3001 26.9242C28.2216 26.8969 28.1493 26.8544 28.0872 26.7991C27.3314 26.4005 26.489 26.1954 25.635 26.2021C24.781 26.2087 23.9419 26.4268 23.1922 26.8371C23.0837 26.9142 22.9537 26.955 22.8207 26.9536Z" fill="#BC6E4B"/>
<path d="M40.755 29.5005H40.2368C39.6923 29.5005 39.251 29.943 39.251 30.4888V32.0347C39.251 32.5805 39.6923 33.023 40.2368 33.023H40.755C41.2994 33.023 41.7408 32.5805 41.7408 32.0347V30.4888C41.7408 29.943 41.2994 29.5005 40.755 29.5005Z" fill="#D35F5F"/>
<path d="M28.5081 30.5269V32.0727C28.5076 32.2018 28.4817 32.3295 28.4318 32.4485C28.3819 32.5674 28.3091 32.6754 28.2175 32.766C28.1259 32.8567 28.0173 32.9283 27.898 32.9768C27.7787 33.0252 27.651 33.0496 27.5223 33.0484H26.9914C26.8627 33.0496 26.735 33.0252 26.6157 32.9768C26.4964 32.9283 26.3878 32.8567 26.2962 32.766C26.2046 32.6754 26.1318 32.5674 26.0819 32.4485C26.032 32.3295 26.0061 32.2018 26.0056 32.0727V30.5269C26.0059 30.2649 26.1099 30.0137 26.2947 29.8284C26.4795 29.6431 26.7301 29.5389 26.9914 29.5386H27.5223C27.7836 29.5389 28.0342 29.6431 28.219 29.8284C28.4038 30.0137 28.5077 30.2649 28.5081 30.5269Z" fill="#D35F5F"/>
<path d="M28.1656 30.096C28.0228 30.0958 27.8842 30.0471 27.7725 29.9579C27.3879 29.6481 26.9092 29.4792 26.4158 29.4792C25.9223 29.4792 25.4437 29.6481 25.059 29.9579C24.9941 30.0099 24.9196 30.0486 24.8398 30.0717C24.76 30.0948 24.6765 30.102 24.5939 30.0928C24.5113 30.0835 24.4314 30.0581 24.3586 30.0179C24.2859 29.9777 24.2217 29.9235 24.1699 29.8584C24.118 29.7934 24.0794 29.7187 24.0563 29.6387C24.0333 29.5587 24.0261 29.4749 24.0353 29.3921C24.0539 29.225 24.138 29.072 24.2691 28.967C24.879 28.4781 25.6367 28.2117 26.4177 28.2117C27.1986 28.2117 27.9563 28.4781 28.5662 28.967C28.6688 29.049 28.7434 29.161 28.7797 29.2874C28.816 29.4138 28.8121 29.5483 28.7686 29.6724C28.7251 29.7965 28.6442 29.904 28.537 29.9799C28.4299 30.0558 28.3018 30.0964 28.1706 30.096H28.1656Z" fill="#7F3C3C"/>
<path d="M41.6763 30.134C41.5333 30.1334 41.3948 30.0843 41.2832 29.9946C40.8962 29.6841 40.4152 29.5149 39.9195 29.5149C39.4238 29.5149 38.9429 29.6841 38.5558 29.9946C38.4245 30.0981 38.2576 30.1452 38.0917 30.1257C37.9259 30.1062 37.7744 30.0217 37.6705 29.8905C37.5666 29.7594 37.5187 29.5924 37.5373 29.426C37.5559 29.2596 37.6394 29.1073 37.7697 29.0024C38.3807 28.5158 39.138 28.251 39.9183 28.251C40.6986 28.251 41.4559 28.5158 42.0668 29.0024C42.1694 29.0844 42.244 29.1964 42.2803 29.3228C42.3166 29.4492 42.3127 29.5838 42.2692 29.7079C42.2257 29.832 42.1448 29.9394 42.0376 30.0153C41.9305 30.0912 41.8024 30.1318 41.6712 30.1314L41.6763 30.134Z" fill="#7F3C3C"/>
<path d="M33.0959 41.9735H32.9518C32.5278 41.9743 32.1087 41.882 31.724 41.7031C31.3393 41.5243 30.9983 41.2633 30.7249 40.9383C30.6276 40.8049 30.5862 40.6386 30.6095 40.475C30.6328 40.3114 30.7189 40.1634 30.8495 40.0626C30.9801 39.9618 31.1448 39.9161 31.3086 39.9353C31.4723 39.9545 31.622 40.0371 31.7259 40.1654C31.8876 40.3409 32.0848 40.4799 32.3042 40.5732C32.5236 40.6664 32.7603 40.7119 32.9986 40.7064C33.371 40.7188 33.7419 40.6525 34.087 40.5116C34.4322 40.3708 34.7439 40.1587 35.0018 39.8892C35.0569 39.8263 35.1239 39.775 35.1989 39.7382C35.2739 39.7015 35.3554 39.68 35.4388 39.675C35.5221 39.67 35.6056 39.6816 35.6844 39.7091C35.7632 39.7366 35.8359 39.7795 35.8981 39.8354C35.9602 39.8912 36.0108 39.9588 36.0468 40.0343C36.0827 40.1099 36.1034 40.1918 36.1077 40.2754C36.1119 40.3589 36.0995 40.4425 36.0713 40.5213C36.0432 40.6001 35.9997 40.6725 35.9434 40.7343C35.5808 41.128 35.1402 41.4415 34.65 41.6548C34.1597 41.8682 33.6304 41.9768 33.0959 41.9735Z" fill="#F77261"/>
<path d="M31.7613 38.0824C31.4063 38.0787 31.0642 37.9489 30.7957 37.7162C30.5796 37.5521 30.413 37.3312 30.3144 37.078C30.2158 36.8249 30.189 36.5493 30.237 36.2818C30.2803 36.1254 30.3817 35.9916 30.5204 35.908C30.6592 35.8243 30.8247 35.7973 30.9827 35.8324C31.1408 35.8675 31.2794 35.9621 31.3699 36.0966C31.4605 36.2312 31.496 36.3954 31.4693 36.5555C31.5079 36.6539 31.5788 36.7361 31.6703 36.7887C31.6971 36.8039 31.7273 36.8119 31.7581 36.8119C31.7889 36.8119 31.8192 36.8039 31.8459 36.7887C31.9216 36.7507 32.0041 36.7283 32.0886 36.7228C32.173 36.7174 32.2577 36.729 32.3376 36.757C32.4175 36.785 32.4909 36.8288 32.5536 36.8858C32.6163 36.9428 32.6669 37.0119 32.7025 37.0889C32.738 37.1658 32.7578 37.2492 32.7606 37.334C32.7634 37.4188 32.7492 37.5033 32.7189 37.5825C32.6885 37.6617 32.6425 37.7339 32.5838 37.795C32.525 37.8561 32.4546 37.9046 32.3768 37.9379C32.1847 38.0307 31.9745 38.0801 31.7613 38.0824Z" fill="#F77261"/>
</svg>
