<svg width="80" height="80" viewBox="0 0 80 80" fill="none" xmlns="http://www.w3.org/2000/svg">
<rect width="80" height="80" rx="10" fill="#5A6478"/>
<path d="M30.6834 47.3911L29.7728 49.6364C22.7093 49.1161 19.002 48.5177 14.6962 45.6689C13.4124 44.828 12.3911 43.6427 11.7493 42.2486C11.1075 40.8546 10.871 39.308 11.0669 37.7858C11.3531 34.4817 14.8003 30.7223 16.5824 27.2881C17.7857 24.5733 23.5731 22.7131 23.9373 22.6221C23.9633 24.3392 24.4004 35.8736 24.4004 35.8736C24.5409 38.9618 27.3923 46.0175 30.6834 47.3911Z" fill="#F94926"/>
<path d="M51.1299 39.5993C53.7966 40.2107 56.047 37.6611 56.6454 34.9424C57.2438 32.2236 57.2958 26.258 55.5071 23.1959C49.725 13.277 43.7672 10.2695 35.5889 10.2695C27.4105 10.2695 18.9278 15.4065 19.7344 23.5614C19.8527 24.7543 20.8752 28.7335 20.8752 28.7335C20.9636 29.2785 21.0209 29.7963 21.069 30.3218C21.3812 34.0812 21.2862 38.8097 22.4076 42.175C23.7895 45.5289 26.4336 48.2057 29.7703 49.6287C30.6846 50.0334 31.6612 50.2798 32.6581 50.3572C34.0435 50.4391 35.4338 50.3429 36.7947 50.071C37.3314 51.2973 37.6906 52.5938 37.8614 53.9214C38.0305 55.3393 37.8874 56.6272 37.159 57.1605C36.2614 57.8239 33.1654 58.8646 29.8093 60.7898V60.8028C32.7492 63.3264 43.0387 64.4061 49.5168 63.2744C53.1071 62.65 55.5136 61.3492 54.8372 59.2418C54.2779 58.8386 53.7055 58.4483 53.1071 58.0971C52.1405 57.4964 51.1319 56.966 50.0892 56.5101C48.5412 55.6125 47.6697 53.3231 47.1753 51.0076C47.0583 50.4222 46.9542 49.8238 46.8762 49.2515C46.6628 47.7212 46.5498 46.1786 46.5379 44.6335C48.1053 42.9913 49.1039 40.8892 49.3867 38.6367C49.8851 39.0887 50.4819 39.4183 51.1299 39.5993Z" fill="#FCCAAE"/>
<path d="M68.9902 36.8806C67.5983 42.4872 60.834 48.484 46.9412 49.2384L46.8761 49.2515C46.6628 47.7212 46.5498 46.1786 46.5379 44.6335C48.1053 42.9913 49.1039 40.8892 49.3867 38.6367C49.8851 39.0887 50.4819 39.4183 51.1298 39.5993C53.7965 40.2107 56.047 37.6611 56.6454 34.9423C57.2437 32.2236 56.3852 29.0496 53.7185 28.4512C53.078 28.3448 52.4222 28.3781 51.7957 28.5487C51.1693 28.7193 50.5872 29.0233 50.0892 29.4398C50.0502 29.4789 50.0111 29.5049 49.9721 29.5439C49.6088 29.8755 49.3052 30.2672 49.0745 30.7016C45.7054 30.2333 42.5834 23.1178 42.5834 23.1178C42.3179 24.3171 41.6511 25.3898 40.6931 26.1586C39.7351 26.9274 38.5434 27.3461 37.315 27.3455C36.271 27.3495 35.2643 26.9568 34.4988 26.2468C33.7332 25.5368 33.2659 24.5625 33.1914 23.5211C32.9153 24.5822 32.3188 25.5325 31.4831 26.2425C30.6475 26.9524 29.6133 27.3875 28.5214 27.4886C28.0251 27.5277 27.5258 27.4684 27.0524 27.3143C26.5789 27.1601 26.1405 26.9141 25.7623 26.5903C25.3841 26.2664 25.0735 25.8711 24.8483 25.4271C24.6231 24.983 24.4877 24.4989 24.4499 24.0024C24.2467 24.9524 23.8096 25.8367 23.1781 26.575C22.5466 27.3133 21.7407 27.8822 20.8335 28.2301C20.2895 28.3949 19.724 28.4782 19.1555 28.4772C18.6625 28.5021 18.1709 28.4074 17.7224 28.2013C17.274 27.9952 16.882 27.6838 16.5798 27.2935V27.2805C15.6279 25.6329 15.3219 23.6904 15.7213 21.83C16.5798 14.6884 22.8108 4.13872 35.2337 3.12407C47.5656 2.10943 53.4843 7.42982 58.3885 14.9876C61.1332 19.2153 71.4228 27.0463 68.9902 36.8806Z" fill="#FF5E33"/>
<path d="M54.8372 59.2418C53.3591 58.1605 51.7669 57.2444 50.0892 56.5101C48.5412 55.6125 47.6696 53.3231 47.1753 51.0076C47.0583 50.4222 46.9542 49.8239 46.8761 49.2515C46.6628 47.7212 46.5498 46.1786 46.5379 44.6335C46.2793 44.9051 46.001 45.1573 45.7054 45.388C43.0814 47.534 40.0504 49.1269 36.7947 50.071C37.3314 51.2973 37.6906 52.5938 37.8614 53.9215C38.0305 55.3394 37.8874 56.6272 37.1589 57.1605C36.2614 57.8239 33.1654 58.8646 29.8093 60.7898V60.8028C34.3752 64.7313 56.7494 65.1476 54.8372 59.2418Z" fill="#FFAB8D"/>
<path d="M49.1005 47.066C48.2962 47.2012 47.4833 47.2794 46.668 47.3002C46.5639 46.0904 46.5509 45.0888 46.5379 44.6335C48.1053 42.9913 49.1039 40.8891 49.3867 38.6367C49.885 39.0887 50.4819 39.4183 51.1298 39.5993C53.7965 40.2107 56.047 37.6611 56.6453 34.9423C57.2437 32.2236 56.3852 29.0496 53.7185 28.4512C53.078 28.3448 52.4221 28.3781 51.7957 28.5487C51.1693 28.7193 50.5872 29.0233 50.0892 29.4398C49.671 29.7893 49.3261 30.2182 49.0745 30.7016C47.2013 30.4415 45.3021 28.1845 44.2185 26.1071C43.8205 25.3435 44.9119 24.1324 47.0192 26.3829C48.9705 28.4642 51.338 25.2121 54.6811 25.9146C59.286 26.8902 60.5869 31.5602 60.6909 33.0691C61.2503 40.9261 56.6323 45.3229 49.1005 47.066Z" fill="#F94926"/>
<path d="M38.3167 38.4885C41.3168 38.4885 43.7489 36.0564 43.7489 33.0563C43.7489 30.0561 41.3168 27.624 38.3167 27.624C35.3165 27.624 32.8844 30.0561 32.8844 33.0563C32.8844 36.0564 35.3165 38.4885 38.3167 38.4885Z" fill="#FFE8D2"/>
<path d="M23.4469 38.4885C26.4471 38.4885 28.8792 36.0564 28.8792 33.0563C28.8792 30.0561 26.4471 27.624 23.4469 27.624C20.4468 27.624 18.0147 30.0561 18.0147 33.0563C18.0147 36.0564 20.4468 38.4885 23.4469 38.4885Z" fill="#FFE8D2"/>
<path d="M21.6011 38.1684C20.5493 37.7893 19.6401 37.0949 18.9975 36.1799C18.355 35.265 18.0104 34.1741 18.0108 33.0561C18.0128 32.0792 18.2754 31.1205 18.7716 30.279C19.2679 29.4375 19.9797 28.7436 20.8336 28.269C21.2759 31.0268 21.2108 34.7862 21.6011 38.1684Z" fill="#F4A790"/>
<path d="M39.5785 29.4138H39.0451C38.4848 29.4138 38.0305 29.8681 38.0305 30.4285V32.0155C38.0305 32.5758 38.4848 33.0301 39.0451 33.0301H39.5785C40.1388 33.0301 40.5931 32.5758 40.5931 32.0155V30.4285C40.5931 29.8681 40.1388 29.4138 39.5785 29.4138Z" fill="#48CCB2"/>
<path d="M26.9734 30.4675V32.0545C26.9729 32.187 26.9462 32.3181 26.8949 32.4403C26.8436 32.5624 26.7686 32.6732 26.6743 32.7663C26.58 32.8594 26.4683 32.9329 26.3455 32.9826C26.2227 33.0324 26.0913 33.0574 25.9588 33.0562H25.4124C25.28 33.0574 25.1485 33.0324 25.0257 32.9826C24.9029 32.9329 24.7912 32.8594 24.6969 32.7663C24.6026 32.6732 24.5277 32.5624 24.4763 32.4403C24.425 32.3181 24.3983 32.187 24.3978 32.0545V30.4675C24.3981 30.1985 24.5052 29.9407 24.6954 29.7504C24.8856 29.5602 25.1434 29.4532 25.4124 29.4529H25.9588C26.2278 29.4532 26.4857 29.5602 26.6759 29.7504C26.8661 29.9407 26.9731 30.1985 26.9734 30.4675Z" fill="#48CCB2"/>
<path d="M38.7342 54.5966C38.4337 54.5966 38.1293 54.5888 37.8236 54.5706C37.6511 54.5609 37.4895 54.4831 37.3744 54.3543C37.2592 54.2255 37.2 54.0562 37.2096 53.8837C37.2193 53.7112 37.2971 53.5496 37.4259 53.4345C37.5547 53.3194 37.724 53.2601 37.8965 53.2697C41.0876 53.5088 44.2501 52.5247 46.7421 50.5172C46.8061 50.4606 46.8806 50.4171 46.9614 50.3893C47.0421 50.3614 47.1276 50.3498 47.2129 50.355C47.2982 50.3602 47.3816 50.3821 47.4584 50.4195C47.5352 50.457 47.6039 50.5092 47.6605 50.5731C47.7171 50.6371 47.7606 50.7116 47.7884 50.7924C47.8163 50.8732 47.8279 50.9586 47.8227 51.0439C47.8175 51.1292 47.7956 51.2126 47.7582 51.2894C47.7207 51.3662 47.6685 51.4349 47.6046 51.4915C45.12 53.5642 41.969 54.6672 38.7342 54.5966Z" fill="#562B48"/>
<path d="M33.6571 40.077C33.392 40.3542 33.0712 40.5723 32.7159 40.7169C32.3605 40.8615 31.9787 40.9294 31.5953 40.916C31.35 40.9216 31.1064 40.8749 30.8806 40.7792C30.6547 40.6834 30.4518 40.5407 30.2853 40.3605C30.1784 40.2288 30.0243 40.144 29.8558 40.1243C29.6873 40.1046 29.5177 40.1515 29.3833 40.255C29.2489 40.3585 29.1603 40.5105 29.1363 40.6784C29.1124 40.8464 29.155 41.0171 29.2551 41.154C29.5365 41.4876 29.8875 41.7556 30.2834 41.9392C30.6794 42.1228 31.1107 42.2176 31.5471 42.2168H31.6954C32.2457 42.2198 32.7906 42.108 33.2952 41.8885C33.7999 41.6689 34.2532 41.3466 34.6262 40.942C34.6841 40.8785 34.7289 40.8042 34.7579 40.7233C34.7869 40.6425 34.7996 40.5566 34.7952 40.4708C34.7909 40.385 34.7696 40.3009 34.7326 40.2234C34.6955 40.1458 34.6435 40.0764 34.5795 40.0191C34.5155 39.9618 34.4408 39.9177 34.3596 39.8895C34.2785 39.8612 34.1925 39.8493 34.1068 39.8544C34.021 39.8596 33.9371 39.8816 33.8599 39.9194C33.7827 39.9571 33.7138 40.0098 33.6571 40.0744V40.077Z" fill="#F77261"/>
<path d="M30.3218 38.2246C30.5403 38.224 30.7561 38.1756 30.954 38.0828C31.0341 38.0486 31.1066 37.9987 31.1671 37.936C31.2275 37.8734 31.2748 37.7992 31.3061 37.7179C31.3373 37.6366 31.352 37.5498 31.3491 37.4628C31.3462 37.3757 31.3258 37.2901 31.2892 37.2111C31.2526 37.1321 31.2005 37.0612 31.136 37.0027C31.0715 36.9441 30.9959 36.8992 30.9137 36.8704C30.8314 36.8417 30.7443 36.8297 30.6574 36.8353C30.5704 36.8409 30.4855 36.8639 30.4076 36.9029C30.3801 36.9185 30.3489 36.9267 30.3172 36.9267C30.2855 36.9267 30.2544 36.9185 30.2268 36.9029C30.1327 36.8489 30.0597 36.7645 30.02 36.6636C30.0475 36.4992 30.0109 36.3306 29.9177 36.1924C29.8245 36.0543 29.6819 35.9572 29.5192 35.9212C29.3565 35.8851 29.1862 35.9129 29.0434 35.9987C28.9006 36.0846 28.7962 36.222 28.7517 36.3826C28.7037 36.6563 28.7321 36.938 28.8338 37.1966C28.9354 37.4552 29.1064 37.6808 29.328 37.8486C29.6043 38.0876 29.9565 38.2208 30.3218 38.2246Z" fill="#F77261"/>
<path d="M50.9815 34.9802C51.0243 34.989 51.0679 34.9938 51.1116 34.9945C51.2613 34.9942 51.4064 34.9423 51.5223 34.8475C51.6381 34.7527 51.7178 34.6208 51.7477 34.4742C51.8607 34.132 52.085 33.8375 52.385 33.6378C52.6849 33.438 53.0431 33.3446 53.4024 33.3723C53.5738 33.3927 53.7464 33.3441 53.882 33.2373C54.0177 33.1304 54.1053 32.9741 54.1256 32.8026C54.146 32.6311 54.0974 32.4586 53.9906 32.323C53.8837 32.1873 53.7273 32.0997 53.5559 32.0793C52.8739 32.0104 52.1896 32.1863 51.6254 32.5754C51.0611 32.9646 50.6535 33.5416 50.4755 34.2036C50.4571 34.2878 50.4555 34.3749 50.4711 34.4598C50.4866 34.5446 50.5188 34.6256 50.5659 34.6978C50.613 34.7701 50.674 34.8323 50.7454 34.8808C50.8167 34.9292 50.897 34.963 50.9815 34.9802Z" fill="#F77261"/>
<path d="M26.6209 30.0253C26.4739 30.0251 26.3313 29.9752 26.2164 29.8835C25.8205 29.5655 25.3278 29.3921 24.8199 29.3921C24.3121 29.3921 23.8194 29.5655 23.4235 29.8835C23.3567 29.9369 23.28 29.9766 23.1979 30.0004C23.1158 30.0241 23.0298 30.0315 22.9448 30.022C22.8598 30.0125 22.7775 29.9864 22.7026 29.9451C22.6278 29.9038 22.5617 29.8482 22.5084 29.7814C22.455 29.7146 22.4153 29.638 22.3915 29.5558C22.3678 29.4737 22.3604 29.3877 22.3699 29.3027C22.389 29.1311 22.4756 28.9741 22.6105 28.8663C23.2382 28.3643 24.0181 28.0908 24.8219 28.0908C25.6257 28.0908 26.4055 28.3643 27.0333 28.8663C27.1389 28.9505 27.2157 29.0654 27.253 29.1952C27.2903 29.3249 27.2863 29.4631 27.2416 29.5905C27.1968 29.7179 27.1135 29.8282 27.0032 29.9061C26.893 29.984 26.7612 30.0257 26.6261 30.0253H26.6209Z" fill="#562B48"/>
<path d="M40.5267 30.0645C40.3796 30.0639 40.237 30.0135 40.1222 29.9214C39.7238 29.6026 39.2288 29.4289 38.7186 29.4289C38.2084 29.4289 37.7134 29.6026 37.315 29.9214C37.1798 30.0276 37.0081 30.076 36.8374 30.056C36.6666 30.036 36.5107 29.9492 36.4038 29.8146C36.2969 29.68 36.2476 29.5085 36.2667 29.3376C36.2858 29.1668 36.3718 29.0105 36.5059 28.9028C37.1347 28.4033 37.9142 28.1313 38.7173 28.1313C39.5204 28.1313 40.2999 28.4033 40.9287 28.9028C41.0343 28.987 41.1111 29.1019 41.1484 29.2317C41.1857 29.3615 41.1817 29.4996 41.137 29.627C41.0922 29.7544 41.0089 29.8647 40.8986 29.9427C40.7884 30.0206 40.6566 30.0622 40.5215 30.0619L40.5267 30.0645Z" fill="#562B48"/>
<path d="M49.6833 30.807C49.653 30.7271 49.6073 30.654 49.5487 30.5918C49.4901 30.5297 49.4199 30.4796 49.342 30.4446C49.264 30.4096 49.18 30.3902 49.0946 30.3877C49.0092 30.3851 48.9242 30.3994 48.8443 30.4298L44.3083 32.1482C44.0949 30.6878 43.3551 29.3558 42.2282 28.4028C41.1013 27.4497 39.6649 26.9414 38.1894 26.9733C36.7139 27.0053 35.3009 27.5754 34.2163 28.5764C33.1318 29.5773 32.4504 30.9401 32.3004 32.4083H29.4646C29.2981 30.8604 28.5444 29.4352 27.3588 28.4263C26.1731 27.4174 24.6457 26.9014 23.0911 26.9848C21.5365 27.0682 20.073 27.7444 19.002 28.8744C17.931 30.0043 17.3341 31.5019 17.3341 33.0588C17.3341 34.6156 17.931 36.1132 19.002 37.2431C20.073 38.3731 21.5365 39.0493 23.0911 39.1327C24.6457 39.2161 26.1731 38.7001 27.3588 37.6912C28.5444 36.6823 29.2981 35.2571 29.4646 33.7092H32.3004C32.4561 35.2138 33.1698 36.6055 34.3008 37.6099C35.4317 38.6144 36.898 39.1588 38.4104 39.1357C39.9229 39.1127 41.3719 38.524 42.4718 37.4856C43.5717 36.4471 44.2427 35.0344 44.3525 33.5257L49.3048 31.6513C49.3854 31.6211 49.4592 31.5752 49.522 31.5164C49.5847 31.4575 49.6352 31.3867 49.6704 31.3082C49.7056 31.2297 49.7249 31.1449 49.7271 31.0589C49.7293 30.9729 49.7144 30.8873 49.6833 30.807ZM23.4469 37.838C22.5012 37.838 21.5766 37.5575 20.7903 37.0321C20.0039 36.5067 19.391 35.7598 19.0291 34.8861C18.6671 34.0123 18.5724 33.0508 18.757 32.1233C18.9415 31.1957 19.3969 30.3436 20.0656 29.6749C20.7344 29.0061 21.5864 28.5507 22.514 28.3662C23.4416 28.1817 24.4031 28.2764 25.2769 28.6383C26.1506 29.0002 26.8974 29.6131 27.4229 30.3995C27.9483 31.1859 28.2288 32.1104 28.2288 33.0561C28.2274 34.3239 27.7231 35.5394 26.8267 36.4359C25.9302 37.3324 24.7147 37.8366 23.4469 37.838ZM38.3167 37.838C37.3709 37.838 36.4464 37.5575 35.66 37.0321C34.8737 36.5067 34.2608 35.7598 33.8988 34.8861C33.5369 34.0123 33.4422 33.0508 33.6267 32.1233C33.8112 31.1957 34.2667 30.3436 34.9354 29.6749C35.6042 29.0061 36.4562 28.5507 37.3838 28.3662C38.3114 28.1817 39.2729 28.2764 40.1466 28.6383C41.0204 29.0002 41.7672 29.6131 42.2927 30.3995C42.8181 31.1859 43.0985 32.1104 43.0985 33.0561C43.0972 34.3239 42.5929 35.5394 41.6964 36.4359C40.8 37.3324 39.5845 37.8366 38.3167 37.838Z" fill="white"/>
<path d="M61.5111 68.2877C61.9404 70.1999 59.742 71.3576 58.3111 72.2422C56.1387 73.569 46.0573 76.743 37.4068 76.743C28.5871 76.743 24.0212 75.2991 21.5887 73.6081C19.9757 72.4763 19.9366 70.9023 20.8082 69.1462C22.8486 65.4418 25.9339 62.4198 29.6798 60.4567V60.4697C32.6197 62.9933 42.9093 64.073 49.3874 62.9413C52.9777 62.3169 55.3842 61.016 54.7078 58.9087C58.0488 61.0952 60.4699 64.433 61.5111 68.2877Z" fill="#FFF1B8"/>
<path d="M49.3874 63.5918C49.2512 63.5919 49.1185 63.5492 49.0079 63.4699C48.8973 63.3905 48.8143 63.2785 48.7708 63.1495C48.6294 62.1316 48.8579 61.0968 49.4147 60.233C50.1061 58.8211 51.3018 57.7197 52.7656 57.1462C52.8641 57.1077 52.9706 57.0938 53.0757 57.1057C53.1808 57.1176 53.2814 57.155 53.3688 57.2146C53.4562 57.2742 53.5277 57.3542 53.5772 57.4477C53.6267 57.5411 53.6526 57.6453 53.6528 57.7511C53.6527 57.8739 53.6178 57.9942 53.5522 58.098C53.4866 58.2018 53.3929 58.2849 53.282 58.3377C53.2345 58.3637 53.1838 58.3834 53.1311 58.3963C51.9966 58.8704 51.078 59.7481 50.5529 60.86C50.1724 61.4088 49.9798 62.0659 50.004 62.7332C50.037 62.8311 50.0463 62.9355 50.031 63.0376C50.0157 63.1398 49.9763 63.2369 49.916 63.3208C49.8558 63.4047 49.7764 63.473 49.6844 63.5202C49.5925 63.5673 49.4907 63.5919 49.3874 63.5918Z" fill="#FFF1B8"/>
</svg>
