<svg width="80" height="80" viewBox="0 0 80 80" fill="none" xmlns="http://www.w3.org/2000/svg">
<rect width="80" height="80" rx="10" fill="#5A6478"/>
<path d="M21.6151 65.6415C21.1432 67.3638 23.2194 68.4255 24.5169 69.2276C26.4869 70.4308 35.6291 73.3091 43.4736 73.3091C51.4715 73.3091 55.612 71.9997 57.8179 70.4662C59.2807 69.44 59.316 68.0126 58.5257 66.4201C56.8884 62.2336 50.4971 58.296 50.1503 57.8713C48.8249 58.7641 47.2949 59.3067 45.7031 59.4485L45.4672 64.4737L43.3674 59.8378C40.3983 59.2831 37.5018 58.3926 34.7337 57.1836C31.4508 62.6252 26.1566 66.3375 22.0161 64.2614C22.0161 64.2614 21.6269 65.5944 21.6151 65.6415Z" fill="#3ABFB2"/>
<path d="M36.1009 47.3812C36.3037 46.8247 36.5494 46.2848 36.8358 45.7663C35.03 42.8625 33.9468 39.568 33.6773 36.1591C33.4079 32.7503 33.9598 29.3265 35.2869 26.175C37.9411 19.5832 40.4643 12.0631 49.0768 15.7435C53.005 13.0658 56.3351 17.3243 57.8061 21.795C58.7229 24.5024 59.2124 27.336 59.257 30.194C58.7262 33.8627 58.9149 38.0386 58.1954 41.719C57.4758 45.3994 51.8065 49.0964 47.8901 49.3323C47.0941 49.2894 46.3026 49.1853 45.5226 49.0209C44.0363 53.94 46.7848 56.1577 47.8936 56.7475C48.5457 57.1365 49.1116 57.6543 49.5569 58.2692C48.4189 59.0411 47.0747 59.4522 45.6995 59.4488L45.4636 64.4741L43.3674 59.8381C41.1167 59.5778 38.9178 58.9813 36.844 58.0687C37.8349 54.0343 34.6499 52.7014 36.1009 47.3812Z" fill="#FFD2C0"/>
<path d="M35.4344 47.1567C35.5834 46.5963 35.7743 46.0478 36.0053 45.5159C36.2976 45.5261 36.5822 45.6123 36.8311 45.7659C39.0569 47.2317 41.5376 48.2676 44.1448 48.82C44.9023 48.9605 45.6684 49.0499 46.438 49.0878C44.9516 54.0068 47.0549 55.5368 48.1638 56.1266C48.9245 56.5868 49.5981 57.1774 50.1538 57.8713C48.8273 58.7647 47.2961 59.3073 45.7031 59.4485L45.4671 64.4737L43.3674 59.8378C40.3982 59.2831 37.5017 58.3926 34.7337 57.1836C34.0719 54.1401 33.9834 52.4769 35.4344 47.1567Z" fill="#FCA383"/>
<path d="M45.4671 65.07C45.5043 65.0699 45.5414 65.0663 45.578 65.0594C45.708 65.0343 45.8259 64.9663 45.9125 64.8661C45.9992 64.766 46.0496 64.6396 46.0557 64.5073L46.2716 59.9987C47.5999 59.9315 48.8804 59.4808 49.9579 58.7011C50.0686 58.5947 50.1334 58.4494 50.1386 58.296C50.1438 58.1425 50.0889 57.9931 49.9857 57.8795C49.8825 57.7658 49.7391 57.6969 49.5859 57.6873C49.4327 57.6778 49.2818 57.7283 49.1652 57.8282C48.1339 58.5073 46.9236 58.8637 45.6888 58.8521C45.5403 58.8567 45.399 58.9173 45.2931 59.0216C45.1872 59.1259 45.1247 59.2664 45.1179 59.4148L44.994 62.0018L43.9052 59.5929C43.8618 59.4971 43.7935 59.4146 43.7074 59.354C43.6213 59.2934 43.5206 59.257 43.4157 59.2485C41.2567 58.9963 39.1466 58.4279 37.153 57.5616C37.0198 57.4795 36.8593 57.4537 36.707 57.4898C36.5547 57.526 36.423 57.6212 36.3409 57.7545C36.2587 57.8878 36.2329 58.0482 36.2691 58.2005C36.3053 58.3528 36.4005 58.4845 36.5337 58.5667C38.5788 59.4844 40.7471 60.098 42.9698 60.388L44.9292 64.7196C44.9754 64.8237 45.0508 64.9122 45.1463 64.9744C45.2417 65.0366 45.3532 65.0698 45.4671 65.07Z" fill="white"/>
<path d="M7.05836 51.7811C7.70715 47.2396 9.38223 47.4755 13.0627 43.217C14.8557 41.1291 13.7587 36.0213 15.7286 30.6422C17.6986 25.2631 20.8246 25.9472 24.7528 18.4684C28.681 10.9895 35.629 6.47155 44.429 7.04957C50.5277 7.39166 54.4323 9.44422 57.0393 12.7944C60.0945 16.7343 59.7878 18.8577 60.5074 21.3349C60.786 22.282 61.2077 23.181 61.7578 24.0009C64.3058 27.9408 68.7058 30.418 67.4318 38.6401C66.1578 46.8621 66.0163 47.1216 70.2865 50.6959C75.8308 55.3436 74.3327 62.0557 68.812 63.3769C64.5181 64.4032 64.9782 67.2107 58.5256 66.4204C52.9814 65.7362 52.3679 62.1501 50.6221 59.6965C49.8297 58.6124 48.9154 57.6229 47.8971 56.7474C46.7883 56.1576 44.0398 53.9399 45.5261 49.0208C46.3175 49.1047 47.1144 49.1244 47.9089 49.0798C51.8253 48.8439 56.7326 45.1044 57.4639 41.424C58.1953 37.7435 57.9948 33.5677 58.5256 29.899C58.481 27.041 57.9915 24.2074 57.0747 21.5C55.6001 17.0292 53.0392 13.2922 49.111 15.9711C40.3345 12.2199 43.8746 20.0574 38.5309 26.1159C36.1716 28.7937 36.6317 32.5367 38.236 36.8305C39.9582 41.4547 37.7995 43.9673 36.6317 46.126C36.4123 46.5235 36.2344 46.9425 36.1008 47.3764C34.6499 52.7013 37.9411 54.0578 36.844 58.0686C36.4603 59.4177 35.8326 60.6852 34.992 61.808C30.8869 67.3877 25.8263 67.4938 21.6858 65.4177C20.8693 65.0045 20.0916 64.5189 19.3619 63.9667C17.3181 62.4445 15.022 61.2945 12.579 60.5694C8.65086 59.4487 6.62189 54.7774 7.05836 51.7811Z" fill="#FF5E33"/>
<path d="M41.6215 30.0876H42.1052C42.6133 30.0876 43.0253 30.4996 43.0253 31.0078V32.4469C43.0253 32.9551 42.6133 33.367 42.1052 33.367H41.6215C41.1133 33.367 40.7014 32.9551 40.7014 32.4469V31.0078C40.7014 30.4996 41.1133 30.0876 41.6215 30.0876Z" fill="#2AB7B7"/>
<path d="M53.0521 31.0432V32.4823C53.0525 32.6025 53.0767 32.7213 53.1233 32.8321C53.1698 32.9429 53.2378 33.0433 53.3233 33.1277C53.4088 33.2121 53.5102 33.2788 53.6215 33.3239C53.7329 33.369 53.8521 33.3917 53.9722 33.3906H54.4676C54.5878 33.3917 54.707 33.369 54.8183 33.3239C54.9297 33.2788 55.031 33.2121 55.1165 33.1277C55.202 33.0433 55.27 32.9429 55.3165 32.8321C55.3631 32.7213 55.3873 32.6025 55.3878 32.4823V31.0432C55.3874 30.7992 55.2904 30.5654 55.1179 30.3929C54.9454 30.2204 54.7116 30.1234 54.4676 30.123H53.9722C53.7283 30.1234 53.4944 30.2204 53.3219 30.3929C53.1494 30.5654 53.0524 30.7992 53.0521 31.0432Z" fill="#2AB7B7"/>
<path d="M57.6609 27.2427C57.79 27.2421 57.9152 27.1993 58.0176 27.1207C58.1199 27.0422 58.1937 26.9322 58.2275 26.8077C58.2614 26.6832 58.2535 26.551 58.2051 26.4315C58.1567 26.3119 58.0703 26.2115 57.9594 26.1456C57.1921 25.7958 56.3628 25.6026 55.52 25.5773C54.6772 25.552 53.8378 25.6951 53.0509 25.9982C52.9017 26.0451 52.7772 26.1494 52.7049 26.2881C52.6325 26.4268 52.6183 26.5886 52.6652 26.7378C52.7121 26.887 52.8164 27.0115 52.9551 27.0839C53.0938 27.1562 53.2556 27.1705 53.4048 27.1235C54.6822 26.6193 56.1063 26.6354 57.3719 27.1684C57.4603 27.2175 57.5598 27.2431 57.6609 27.2427Z" fill="#FF5E33"/>
<path d="M40.4655 26.9856C40.5414 26.9859 40.6167 26.9715 40.6872 26.9432C41.7772 26.5008 44.0858 26.3687 44.7145 26.8335C44.7765 26.8799 44.847 26.9138 44.922 26.933C44.997 26.9522 45.0751 26.9565 45.1518 26.9455C45.2285 26.9346 45.3022 26.9086 45.3689 26.8691C45.4355 26.8297 45.4938 26.7775 45.5402 26.7155C45.5867 26.6535 45.6205 26.583 45.6398 26.508C45.659 26.433 45.6632 26.3549 45.6523 26.2782C45.6413 26.2015 45.6154 26.1278 45.5759 26.0611C45.5364 25.9945 45.4842 25.9362 45.4223 25.8898C44.2686 25.0345 41.4186 25.3778 40.2496 25.852C40.1231 25.9036 40.0185 25.9974 39.9535 26.1175C39.8885 26.2376 39.8672 26.3766 39.8933 26.5106C39.9193 26.6447 39.991 26.7656 40.0963 26.8526C40.2015 26.9397 40.3336 26.9875 40.4702 26.988L40.4655 26.9856Z" fill="#FF5E33"/>
<path d="M53.3719 30.6422C53.5052 30.642 53.6345 30.5967 53.7387 30.5136C54.0977 30.225 54.5444 30.0676 55.0051 30.0676C55.4657 30.0676 55.9124 30.225 56.2714 30.5136C56.332 30.562 56.4015 30.598 56.476 30.6196C56.5504 30.6411 56.6284 30.6478 56.7055 30.6392C56.7826 30.6306 56.8572 30.6069 56.9251 30.5695C56.993 30.532 57.0528 30.4816 57.1013 30.421C57.1497 30.3605 57.1857 30.2909 57.2072 30.2165C57.2288 30.142 57.2354 30.064 57.2268 29.9869C57.2095 29.8313 57.131 29.6889 57.0087 29.5912C56.4394 29.1359 55.7322 28.8879 55.0033 28.8879C54.2744 28.8879 53.5672 29.1359 52.9979 29.5912C52.9022 29.6675 52.8325 29.7717 52.7987 29.8894C52.7648 30.0071 52.7685 30.1324 52.8091 30.2479C52.8496 30.3634 52.9252 30.4634 53.0252 30.5341C53.1252 30.6048 53.2447 30.6425 53.3671 30.6422H53.3719Z" fill="#7F3C3C"/>
<path d="M40.7616 30.6775C40.8949 30.6773 41.0242 30.632 41.1284 30.5489C41.49 30.2606 41.9388 30.1036 42.4013 30.1036C42.8637 30.1036 43.3125 30.2606 43.6741 30.5489C43.7966 30.6452 43.9524 30.6891 44.1072 30.671C44.262 30.6528 44.4034 30.5741 44.5004 30.452C44.5973 30.33 44.642 30.1745 44.6247 30.0195C44.6073 29.8646 44.5294 29.7228 44.4078 29.6252C43.8379 29.1714 43.1309 28.9243 42.4024 28.9243C41.6739 28.9243 40.967 29.1714 40.3971 29.6252C40.3018 29.7017 40.2326 29.8058 40.199 29.9233C40.1655 30.0407 40.1692 30.1657 40.2098 30.281C40.2503 30.3962 40.3256 30.496 40.4253 30.5666C40.525 30.6372 40.6441 30.6751 40.7663 30.6751L40.7616 30.6775Z" fill="#7F3C3C"/>
<path d="M48.7713 41.699C48.8162 41.699 48.861 41.699 48.9058 41.699C49.3014 41.7006 49.6926 41.6153 50.0516 41.4489C50.4106 41.2826 50.7286 41.0393 50.9831 40.7364C51.0739 40.6122 51.1126 40.4575 51.0908 40.3051C51.0691 40.1528 50.9887 40.015 50.8668 39.9212C50.7449 39.8273 50.5912 39.7847 50.4384 39.8026C50.2856 39.8205 50.1458 39.8974 50.0489 40.0169C49.8979 40.1799 49.7141 40.3091 49.5095 40.3959C49.305 40.4827 49.0843 40.5252 48.8622 40.5206C48.5142 40.5339 48.1673 40.473 47.8447 40.3418C47.5221 40.2106 47.2312 40.0122 46.9913 39.7597C46.9407 39.6986 46.8783 39.6484 46.8078 39.612C46.7373 39.5755 46.6602 39.5537 46.5811 39.5478C46.502 39.5419 46.4225 39.552 46.3474 39.5775C46.2723 39.603 46.2031 39.6434 46.1439 39.6962C46.0848 39.7491 46.0369 39.8134 46.0032 39.8852C45.9695 39.957 45.9506 40.0348 45.9476 40.1141C45.9447 40.1934 45.9578 40.2724 45.9861 40.3465C46.0144 40.4206 46.0574 40.4882 46.1124 40.5453C46.4509 40.9121 46.8622 41.2042 47.3201 41.4029C47.7779 41.6015 48.2722 41.7024 48.7713 41.699Z" fill="#F77261"/>
<path d="M50.0146 38.0776C50.3463 38.0744 50.666 37.9536 50.917 37.7367C51.1187 37.584 51.2742 37.3783 51.3662 37.1426C51.4582 36.907 51.4832 36.6504 51.4384 36.4014C51.3981 36.2558 51.3034 36.1312 51.1739 36.0533C51.0444 35.9755 50.89 35.9503 50.7424 35.983C50.5949 36.0156 50.4656 36.1037 50.381 36.229C50.2965 36.3542 50.2633 36.5072 50.2883 36.6562C50.2519 36.7476 50.1859 36.824 50.1007 36.8732C50.0758 36.8876 50.0475 36.8952 50.0187 36.8952C49.99 36.8952 49.9617 36.8876 49.9368 36.8732C49.866 36.8358 49.7883 36.8131 49.7085 36.8067C49.6287 36.8002 49.5484 36.8101 49.4726 36.8356C49.3967 36.8612 49.3268 36.9019 49.2672 36.9554C49.2076 37.0088 49.1595 37.0739 49.1258 37.1465C49.0921 37.2191 49.0736 37.2979 49.0713 37.3779C49.0691 37.458 49.0831 37.5376 49.1126 37.612C49.1422 37.6865 49.1865 37.7541 49.243 37.8108C49.2995 37.8675 49.367 37.9122 49.4413 37.942C49.62 38.0292 49.8158 38.0755 50.0146 38.0776Z" fill="#F77261"/>
</svg>
