<svg width="80" height="80" viewBox="0 0 80 80" fill="none" xmlns="http://www.w3.org/2000/svg">
<rect width="80" height="80" rx="10" fill="#5A6478"/>
<path d="M54.0897 50.1543C53.8168 49.7864 53.5201 49.4304 53.2234 49.0743C52.1541 47.5796 50.7033 46.3993 49.0223 45.6565H49.0104C49.0522 47.182 49.2997 48.695 49.7462 50.1543C50.2017 51.5049 50.1808 52.9708 49.6869 54.3079C49.2715 55.4234 48.7968 56.5983 48.2984 57.8325C48.2984 57.8357 48.2971 57.8387 48.2949 57.8409C48.2927 57.8432 48.2897 57.8444 48.2865 57.8444C45.735 64.0511 39.6351 76.5476 39.6351 76.5476C39.8131 76.5476 40.9999 76.4645 41.4271 76.4408C53.7693 75.4914 66.8473 71.6107 66.8473 66.9824C66.8354 61.0012 60.8423 54.0468 54.0897 50.1543Z" fill="#1C9699"/>
<path d="M26.7588 53.7146C26.4653 54.0736 26.1995 54.4545 25.9637 54.8539C20.8251 57.4647 16.1968 62.366 14.6303 65.855C13.7165 67.8844 13.6453 70.246 15.4373 71.5752C17.2886 72.9399 21.0743 75.0998 27.8744 76.1085C28.444 76.1916 29.0374 76.2628 29.6545 76.334C28.0287 67.4809 28.5746 61.3691 30.3666 57.8445V57.8326C30.6402 57.279 30.9745 56.7576 31.3634 56.278C32.5146 54.8776 32.8908 49.6713 32.5941 48.6626C30.4049 50.042 28.4374 51.7454 26.7588 53.7146Z" fill="#1C9699"/>
<path d="M57.5431 32.4717C57.9626 29.235 57.6677 25.9457 56.6791 22.8353C55.0996 17.9162 52.084 9.89144 41.6881 8.11132C34.8216 6.93525 26.0468 8.70469 23.252 14.5399C21.8148 17.54 20.8785 21.3388 21.9169 22.9659C21.4303 26.0395 22.2136 28.6385 22.2254 31.5104C22.2373 38.0138 23.5546 42.9744 26.118 45.8108C27.8342 47.5543 30.1394 48.5945 32.5822 48.7278C32.8789 49.7365 32.5146 54.8775 31.3634 56.2779C30.9745 56.7575 30.6402 57.279 30.3665 57.8325V57.8444C29.5596 63.1373 44.9636 62.8525 48.2864 57.8444C48.2896 57.8444 48.2926 57.8432 48.2948 57.8409C48.2971 57.8387 48.2983 57.8357 48.2983 57.8325C48.7967 56.5983 49.2715 55.4234 49.6868 54.3079C50.1807 52.9708 50.2016 51.5049 49.7461 50.1543C49.2996 48.695 49.0521 47.182 49.0104 45.6565C48.9688 44.5171 48.9846 43.3764 49.0578 42.2387V42.2268C49.9452 41.1704 50.622 39.9538 51.0516 38.6428C51.4995 39.0439 52.0365 39.3328 52.6181 39.4854C55.0153 40.0076 57.0209 37.7527 57.555 35.3555C57.7707 34.4059 57.7666 33.4195 57.5431 32.4717Z" fill="#FFBF94"/>
<path d="M59.1097 15.7267C61.4832 20.8178 59.2521 23.4049 57.7093 23.3812C58.9316 25.9802 59.1334 29.9677 57.5431 32.4717C57.4244 31.7965 57.1123 31.1702 56.6447 30.6688C56.177 30.1675 55.5739 29.8126 54.9086 29.6472C54.3326 29.5556 53.7437 29.5876 53.181 29.741C52.6183 29.8945 52.0947 30.1659 51.645 30.5373C51.1962 30.9174 50.815 31.3709 50.5176 31.8783C44.9517 32.0919 47.3846 22.2182 47.3846 22.2182C41.1541 21.5892 41.9967 18.112 41.9967 15.7385C38.1042 18.1476 33.3928 17.6729 33.6895 15.0502C29.2273 19.2395 25.2992 18.8004 24.6227 17.0084H24.6109C23.0824 18.6441 22.1356 20.7379 21.9169 22.9658C16.0425 20.5923 17.9651 15.1333 20.8845 13.6973C20.8845 13.6973 18.3211 12.5106 20.7302 10.0065C23.1512 7.47877 27.9812 7.44317 27.9812 7.44317C27.9812 7.44317 26.7233 7.28889 27.5184 5.85293C28.2661 4.52377 32.4671 3.96599 38.1161 4.0016C42.5426 4.02533 48.1322 6.57684 48.4883 6.73112C48.3696 6.56497 47.2659 5.0222 48.239 4.33389C49.8649 3.18274 50.5176 6.70738 50.5176 6.70738C50.5176 6.70738 53.7812 5.56811 53.9473 7.44317C54.1134 9.22329 52.2621 8.66552 52.0604 8.60618C55.0998 10.1802 57.5662 12.6716 59.1097 15.7267Z" fill="#934747"/>
<path d="M48.2865 57.8445C45.735 64.0512 40.238 76.5239 40.238 76.5239C40.0006 76.5358 38.6026 76.5951 38.4483 76.5951C35.5146 76.7225 32.5755 76.6353 29.6545 76.334C28.0287 67.4809 28.5746 61.3691 30.3666 57.8445C29.5596 63.1374 44.9636 62.8526 48.2865 57.8445Z" fill="#EDEAE8"/>
<path d="M30.3665 57.8445C28.5745 61.3691 28.0286 67.4809 29.6545 76.334C29.0374 76.2628 28.444 76.1916 27.8744 76.1085C25.4415 71.7176 24.0174 62.4847 24.4328 58.9007C24.6282 57.4528 25.1518 56.0686 25.9637 54.8539C26.1995 54.4545 26.4653 54.0736 26.7588 53.7146C28.4374 51.7454 30.4048 50.042 32.5941 48.6626C32.8908 49.6713 32.5146 54.8776 31.3634 56.278C30.9745 56.7576 30.6402 57.279 30.3665 57.8326V57.8445Z" fill="#32B7B3"/>
<path d="M56.0004 54.6639C55.5138 58.2123 49.4258 67.8012 41.4271 76.4408C40.9239 76.4977 39.8131 76.5476 39.6351 76.5476C39.6351 76.5476 45.735 64.0511 48.2865 57.8444C48.2897 57.8444 48.2927 57.8432 48.2949 57.8409C48.2971 57.8387 48.2984 57.8357 48.2984 57.8325C48.7968 56.5983 49.2715 55.4234 49.6869 54.3079C50.1808 52.9708 50.2017 51.5049 49.7462 50.1543C49.2997 48.695 49.0522 47.182 49.0104 45.6565H49.0223C50.7033 46.3993 52.1541 47.5796 53.2234 49.0743C53.5201 49.4304 53.8168 49.7864 54.0897 50.1543C55.3002 51.792 56.1665 53.489 56.0004 54.6639Z" fill="#32B7B3"/>
<path d="M45.6697 45.1234C46.0257 44.8861 46.8149 44.3152 47.0641 44.1254C47.8032 43.5755 48.4726 42.9379 49.0578 42.2266C48.9846 43.3683 48.9688 44.513 49.0104 45.6563C49.0521 47.1818 49.2996 48.6947 49.7462 50.154C50.2016 51.5047 50.1807 52.9706 49.6868 54.3077C49.2715 55.4232 48.7968 56.5981 48.2983 57.8323C48.2983 57.8355 48.2971 57.8385 48.2948 57.8407C48.2926 57.8429 48.2896 57.8442 48.2865 57.8442C44.9636 62.8523 29.5596 63.1371 30.3665 57.8442V57.8323C30.6402 57.2787 30.9745 56.7573 31.3634 56.2777C32.5146 54.8773 32.8789 49.7363 32.5822 48.7276C33.3605 48.7706 34.1406 48.7706 34.9189 48.7276C36.5113 48.6621 38.0903 48.4088 39.6232 47.9728C41.7702 47.3317 43.8085 46.3712 45.6697 45.1234Z" fill="#FFA87D"/>
<path d="M32.5443 40.6103C32.3259 40.6103 32.1064 40.5996 31.8821 40.5783C31.3471 40.5735 30.8189 40.4579 30.3308 40.239C29.8426 40.02 29.4051 39.7024 29.0457 39.3061C29.0018 39.2417 28.971 39.1693 28.955 39.093C28.939 39.0168 28.9382 38.9381 28.9527 38.8615C28.9671 38.7849 28.9965 38.7119 29.0391 38.6467C29.0818 38.5814 29.1368 38.5252 29.2012 38.4813C29.3312 38.3925 29.4911 38.359 29.6458 38.3882C29.7224 38.4026 29.7954 38.432 29.8606 38.4747C29.9259 38.5173 29.982 38.5724 30.026 38.6368C30.5631 39.1274 31.2649 39.3985 31.9924 39.3963C32.5339 39.481 33.0871 39.454 33.6177 39.3168C34.1484 39.1796 34.6453 38.9353 35.078 38.5988C35.1899 38.4907 35.3398 38.4309 35.4954 38.4322C35.6509 38.4336 35.7998 38.496 35.9098 38.606C36.0198 38.716 36.0822 38.8648 36.0836 39.0204C36.0849 39.176 36.0251 39.3259 35.917 39.4378C34.9871 40.2508 33.778 40.6712 32.5443 40.6103Z" fill="#F77261"/>
<path d="M31.5818 36.1391C30.8879 36.1422 30.2207 35.8719 29.7246 35.3867C29.5016 35.174 29.3495 34.8978 29.2889 34.5957C29.2284 34.2935 29.2624 33.9801 29.3863 33.6979C29.4159 33.6236 29.4602 33.5559 29.5166 33.4991C29.573 33.4423 29.6403 33.3975 29.7144 33.3674C29.7886 33.3372 29.868 33.3224 29.9481 33.3238C30.0281 33.3252 30.107 33.3428 30.1801 33.3755C30.2531 33.4081 30.3188 33.4553 30.3732 33.514C30.4276 33.5727 30.4695 33.6419 30.4965 33.7172C30.5234 33.7926 30.5349 33.8726 30.5301 33.9525C30.5253 34.0324 30.5044 34.1105 30.4687 34.1821C30.4449 34.2367 30.388 34.3637 30.5814 34.5655C30.7791 34.7459 31.0224 34.8688 31.285 34.9207C31.5475 34.9726 31.8193 34.9515 32.0708 34.8598C32.2171 34.8017 32.3806 34.8041 32.5251 34.8666C32.6697 34.929 32.7835 35.0463 32.8416 35.1926C32.8996 35.339 32.8972 35.5024 32.8348 35.647C32.7723 35.7915 32.655 35.9054 32.5087 35.9634C32.2135 36.0796 31.8991 36.1392 31.5818 36.1391Z" fill="#F77261"/>
<path d="M22.5697 25.0665C22.4622 25.0672 22.3566 25.038 22.2647 24.9822C22.1978 24.9422 22.1395 24.8894 22.093 24.8268C22.0466 24.7642 22.0129 24.6931 21.994 24.6174C21.975 24.5418 21.9712 24.4633 21.9826 24.3862C21.994 24.3091 22.0205 24.235 22.0606 24.1681C22.4928 23.5749 23.1405 23.1748 23.8644 23.0538C25.2307 22.7209 26.6726 22.9257 27.8923 23.6258C28.0257 23.7093 28.1205 23.8425 28.1558 23.9959C28.191 24.1494 28.1639 24.3106 28.0804 24.444C27.9968 24.5775 27.8636 24.6723 27.7102 24.7075C27.5567 24.7428 27.3955 24.7157 27.2621 24.6321C26.3124 24.1037 25.1986 23.952 24.1421 24.2073C23.729 24.2628 23.3498 24.4655 23.0741 24.7781C23.0218 24.8654 22.9479 24.9377 22.8596 24.9882C22.7713 25.0387 22.6714 25.0657 22.5697 25.0665Z" fill="#934747"/>
<path d="M41.0948 24.8172C40.9988 24.8171 40.9043 24.7937 40.8193 24.7491C40.7344 24.7044 40.6615 24.6398 40.607 24.5608C40.1746 24.2699 39.6684 24.1077 39.1473 24.0933C37.9658 23.8645 36.7422 24.0148 35.6512 24.5229C35.5916 24.5732 35.5228 24.6113 35.4485 24.635C35.3742 24.6588 35.296 24.6676 35.2183 24.6611C35.1406 24.6546 35.065 24.6329 34.9957 24.5972C34.9264 24.5614 34.8648 24.5124 34.8145 24.4528C34.7642 24.3933 34.726 24.3244 34.7023 24.2502C34.6786 24.1759 34.6697 24.0977 34.6762 24.02C34.6827 23.9423 34.7045 23.8667 34.7402 23.7974C34.776 23.7281 34.825 23.6665 34.8845 23.6162C35.7864 22.8531 37.8099 22.7214 39.3016 22.9172C40.1559 22.9459 40.969 23.2915 41.5825 23.8868C41.6277 23.951 41.6596 24.0236 41.6764 24.1003C41.6933 24.1771 41.6947 24.2563 41.6807 24.3336C41.6667 24.4109 41.6375 24.4846 41.5948 24.5505C41.552 24.6164 41.4966 24.6732 41.4318 24.7175C41.3325 24.7848 41.2147 24.8196 41.0948 24.8172Z" fill="#934747"/>
<path d="M52.6775 34.9992C52.6344 34.9988 52.5915 34.9945 52.5493 34.9861C52.4728 34.9693 52.4003 34.9375 52.3361 34.8925C52.272 34.8475 52.2174 34.7903 52.1754 34.7241C52.1335 34.6579 52.1051 34.584 52.0919 34.5068C52.0786 34.4296 52.0808 34.3505 52.0983 34.2741C52.2633 33.6795 52.6336 33.1625 53.1435 32.8149C53.6533 32.4673 54.2698 32.3116 54.8836 32.3753C54.961 32.3845 55.0358 32.409 55.1037 32.4471C55.1717 32.4853 55.2315 32.5365 55.2796 32.5978C55.3278 32.659 55.3634 32.7292 55.3844 32.8042C55.4055 32.8793 55.4115 32.9577 55.4022 33.0351C55.3944 33.113 55.3709 33.1885 55.3331 33.2571C55.2953 33.3257 55.2441 33.386 55.1825 33.4343C55.1209 33.4826 55.0501 33.518 54.9745 33.5383C54.8989 33.5587 54.8199 33.5635 54.7424 33.5525C54.4217 33.5277 54.1018 33.61 53.8329 33.7865C53.564 33.9631 53.3613 34.2239 53.2566 34.528C53.2286 34.661 53.1558 34.7804 53.0504 34.8661C52.945 34.9519 52.8133 34.9988 52.6775 34.9992Z" fill="#F77261"/>
<path d="M40.8455 29.2554V29.9794C40.8629 30.1604 40.8422 30.3431 40.7847 30.5158C40.7273 30.6884 40.6344 30.8471 40.5121 30.9817C40.3897 31.1163 40.2406 31.2239 40.0742 31.2975C39.9079 31.3711 39.728 31.4091 39.5461 31.4091C39.3641 31.4091 39.1842 31.3711 39.0179 31.2975C38.8515 31.2239 38.7024 31.1163 38.58 30.9817C38.4577 30.8471 38.3648 30.6884 38.3074 30.5158C38.25 30.3431 38.2292 30.1604 38.2466 29.9794V29.2554C38.2292 29.0743 38.25 28.8916 38.3074 28.719C38.3648 28.5464 38.4577 28.3877 38.58 28.2531C38.7024 28.1185 38.8515 28.0109 39.0179 27.9373C39.1842 27.8637 39.3641 27.8257 39.5461 27.8257C39.728 27.8257 39.9079 27.8637 40.0742 27.9373C40.2406 28.0109 40.3897 28.1185 40.5121 28.2531C40.6344 28.3877 40.7273 28.5464 40.7847 28.719C40.8422 28.8916 40.8629 29.0743 40.8455 29.2554Z" fill="#B27757"/>
<path d="M27.5777 29.2676V29.9916C27.595 30.1726 27.5743 30.3554 27.5168 30.528C27.4594 30.7006 27.3666 30.8593 27.2442 30.9939C27.1218 31.1285 26.9727 31.2361 26.8064 31.3097C26.64 31.3833 26.4601 31.4213 26.2782 31.4213C26.0963 31.4213 25.9164 31.3833 25.75 31.3097C25.5836 31.2361 25.4345 31.1285 25.3121 30.9939C25.1898 30.8593 25.0969 30.7006 25.0395 30.528C24.9821 30.3554 24.9614 30.1726 24.9787 29.9916V29.2676C24.9614 29.0866 24.9821 28.9038 25.0395 28.7312C25.0969 28.5586 25.1898 28.3999 25.3121 28.2653C25.4345 28.1307 25.5836 28.0231 25.75 27.9495C25.9164 27.8759 26.0963 27.8379 26.2782 27.8379C26.4601 27.8379 26.64 27.8759 26.8064 27.9495C26.9727 28.0231 27.1218 28.1307 27.2442 28.2653C27.3666 28.3999 27.4594 28.5586 27.5168 28.7312C27.5743 28.9038 27.595 29.0866 27.5777 29.2676Z" fill="#B27757"/>
<path d="M23.1701 29.3205C23.0094 29.315 22.8572 29.2466 22.7463 29.1301C22.6353 29.0137 22.5745 28.8583 22.5768 28.6975C22.5768 28.1599 23.0384 27.6294 23.8454 27.2425C24.4863 26.9069 25.2066 26.7523 25.9289 26.7954C26.6511 26.8385 27.3479 27.0776 27.9444 27.487C28.066 27.586 28.1435 27.7291 28.16 27.8851C28.1764 28.041 28.1304 28.1971 28.0321 28.3193C27.9338 28.4414 27.7911 28.5197 27.6352 28.537C27.4794 28.5543 27.323 28.5091 27.2003 28.4115C26.8848 28.1993 26.5265 28.0593 26.1507 28.0012C25.775 27.9432 25.391 27.9686 25.0262 28.0756C24.5383 28.156 24.0908 28.396 23.754 28.758C23.7539 28.8337 23.7386 28.9085 23.7089 28.9781C23.6793 29.0477 23.6359 29.1107 23.5814 29.1632C23.5269 29.2156 23.4624 29.2566 23.3918 29.2837C23.3211 29.3107 23.2457 29.3233 23.1701 29.3205Z" fill="#7F3C3C"/>
<path d="M36.4546 29.3088C36.2939 29.3029 36.142 29.2345 36.0311 29.118C35.9202 29.0016 35.8593 28.8465 35.8612 28.6857C35.8612 28.147 36.3241 27.6177 37.131 27.2284C37.7691 26.8904 38.4879 26.7346 39.2087 26.7782C39.9294 26.8217 40.6243 27.0629 41.217 27.4753C41.3343 27.5754 41.4079 27.7172 41.4224 27.8707C41.437 28.0241 41.3912 28.1772 41.2948 28.2975C41.1984 28.4179 41.0589 28.4959 40.906 28.5152C40.753 28.5345 40.5986 28.4935 40.4753 28.4009C40.1604 28.1885 39.8025 28.0481 39.4271 27.9898C39.0517 27.9316 38.6681 27.9569 38.3036 28.0639C37.818 28.1451 37.3731 28.3851 37.0385 28.7463C37.0384 28.8219 37.023 28.8968 36.9934 28.9664C36.9637 29.036 36.9204 29.0989 36.8659 29.1514C36.8114 29.2039 36.7469 29.2449 36.6762 29.2719C36.6056 29.299 36.5302 29.3115 36.4546 29.3088Z" fill="#7F3C3C"/>
</svg>
