<svg width="80" height="80" viewBox="0 0 80 80" fill="none" xmlns="http://www.w3.org/2000/svg">
<rect width="80" height="80" rx="10" fill="#5A6478"/>
<path d="M51.6875 50.176C51.4218 45.7772 52.9492 42.6089 53.2812 34.6566C53.5171 29.0105 52.2788 21.2037 50.5655 18.0858C47.2579 12.0657 41.275 7.54053 34.7039 7.54053C34.7039 7.54053 31.1015 8.2099 30.5703 8.52546C29.0589 9.42062 25.8948 10.7222 23 15.2128C17.8203 23.248 16.2706 64.626 16.2706 64.626H56.5792C55.8488 56.3799 52.0498 56.1796 51.6875 50.176Z" fill="#9E5969"/>
<path d="M51.6875 50.176C51.4218 45.7772 52.9492 42.6089 53.2812 34.6566C53.5171 29.0105 52.2788 21.2037 50.5655 18.0858C47.2579 12.0657 41.275 7.54053 34.7039 7.54053C34.7039 7.54053 31.1015 8.2099 30.5703 8.52546C29.0589 9.42062 25.8948 10.7222 23 15.2128C17.8203 23.248 16.2706 64.626 16.2706 64.626H56.5792C55.8488 56.3799 52.0498 56.1796 51.6875 50.176Z" fill="#9E5969"/>
<path d="M25.9602 62.1357C30.0399 62.1357 33.3472 55.3416 33.3472 46.9606C33.3472 38.5795 30.0399 31.7854 25.9602 31.7854C21.8804 31.7854 18.5731 38.5795 18.5731 46.9606C18.5731 55.3416 21.8804 62.1357 25.9602 62.1357Z" fill="#894255"/>
<path d="M54.5413 71.843H14.8336C12.3633 71.843 13.5092 62.9712 15.3606 61.2552C17.6875 59.1037 23.5737 58.0305 26.5859 56.5058C27.4723 56.0713 28.2362 55.4225 28.8085 54.6183C29.3809 53.814 29.7436 52.8797 29.8637 51.8999C30.0284 50.9596 30.039 49.5358 30.0922 48.8452H39.2828C39.3359 49.5358 39.3465 50.9596 39.5112 51.8999C39.6314 52.8797 39.994 53.814 40.5664 54.6183C41.1387 55.4225 41.9027 56.0713 42.789 56.5058C45.8012 58.0305 51.6875 59.1037 54.0143 61.2552C55.8658 62.9712 57.0117 71.843 54.5413 71.843Z" fill="#FFA39C"/>
<path d="M39.5113 51.8999C38.2247 52.6299 36.8347 53.1601 35.3888 53.4724C34.9273 53.5786 34.4477 53.5786 33.9863 53.4724C32.5404 53.1601 31.1503 52.6299 29.8638 51.8999C30.0285 50.9596 30.0391 49.5358 30.0922 48.8452H39.2828C39.336 49.5358 39.3466 50.9596 39.5113 51.8999Z" fill="#FF6C73"/>
<path d="M57.8936 72.9054H11.4815C11.3216 72.905 11.164 72.8686 11.0201 72.7989C10.8762 72.7293 10.7499 72.6282 10.6503 72.5031C10.5508 72.378 10.4807 72.2322 10.4452 72.0763C10.4096 71.9205 10.4096 71.7587 10.445 71.6028C11.5851 66.6091 12.8765 63.5581 15.3607 61.2551C20.6094 66.1639 31.2769 66.4242 34.6875 66.387C38.0982 66.4242 48.7657 66.1639 54.0144 61.2551C56.4985 63.5581 57.79 66.6112 58.9301 71.6028C58.9655 71.7587 58.9654 71.9205 58.9299 72.0763C58.8944 72.2322 58.8242 72.378 58.7247 72.5031C58.6252 72.6282 58.4988 72.7293 58.355 72.7989C58.2111 72.8686 58.0534 72.905 57.8936 72.9054Z" fill="#F7CEBA"/>
<path d="M72.6256 15.2155V15.1799C72.6229 14.5135 72.4223 13.8629 72.0492 13.3106C71.6762 12.7584 71.1476 12.3293 70.5304 12.0779C70.3458 12.0031 70.1912 11.869 70.091 11.6968C69.9908 11.5246 69.9507 11.324 69.9768 11.1265C70.0626 10.4661 69.9505 9.79521 69.6548 9.19859C69.3591 8.60197 68.893 8.10648 68.3156 7.77482C67.737 7.44295 67.0729 7.29046 66.4074 7.33672C65.742 7.38297 65.1054 7.62588 64.5783 8.03461C64.4212 8.15701 64.2279 8.22378 64.0288 8.22446C63.8296 8.22513 63.6359 8.15966 63.478 8.03832C62.9484 7.63276 62.3102 7.39375 61.6445 7.35166C60.9788 7.30956 60.3156 7.46629 59.7391 7.80192C59.1637 8.13705 58.7006 8.63536 58.4085 9.23378C58.1164 9.8322 58.0083 10.5038 58.0981 11.1637C58.1258 11.3612 58.087 11.5624 57.9878 11.7355C57.8887 11.9086 57.7348 12.0438 57.5504 12.1199C56.9351 12.3751 56.4095 12.8072 56.0401 13.3614C55.6707 13.9156 55.4741 14.567 55.4753 15.233C55.4767 15.8994 55.6759 16.5503 56.0477 17.1033C56.4195 17.6563 56.9471 18.0865 57.5636 18.3393C57.7483 18.4142 57.9028 18.5485 58.0027 18.721C58.1027 18.8935 58.1424 19.0943 58.1156 19.2918C58.0285 19.9521 58.1392 20.6233 58.4338 21.2206C58.7284 21.8179 59.1936 22.3144 59.7704 22.6472C60.3482 22.9804 61.012 23.1343 61.6774 23.0895C62.3428 23.0446 62.9799 22.803 63.5078 22.3954C63.6653 22.2734 63.8589 22.2072 64.0582 22.2072C64.2574 22.2072 64.451 22.2734 64.6085 22.3954C65.1373 22.8018 65.7749 23.042 66.4404 23.0854C67.1059 23.1288 67.7693 22.9735 68.3464 22.6392C68.9225 22.3052 69.3865 21.8078 69.6796 21.2099C69.9728 20.612 70.082 19.9406 69.9933 19.2806C69.9661 19.0825 70.0058 18.8809 70.1061 18.7078C70.2063 18.5347 70.3614 18.4 70.5468 18.3249C71.162 18.0704 71.6879 17.6391 72.058 17.0856C72.428 16.5321 72.6255 15.8813 72.6256 15.2155Z" fill="#FFB05A"/>
<path d="M48.0399 31.5684L46.8122 40.2475C48.9956 40.604 51.4962 38.0901 51.8591 35.9077C52.3027 33.2265 50.7748 31.3405 48.0399 31.5684Z" fill="#FFA39C"/>
<path d="M47.0916 36.7133C46.9576 36.7133 46.8257 36.6795 46.7082 36.615C46.5907 36.5505 46.4914 36.4574 46.4194 36.3443C46.3474 36.2312 46.3051 36.1018 46.2964 35.9681C46.2877 35.8343 46.3129 35.7005 46.3697 35.5791C46.6583 35.0655 47.0808 34.6398 47.5921 34.3473C48.1034 34.0548 48.6845 33.9064 49.2735 33.9179C49.3781 33.9274 49.4797 33.9575 49.5727 34.0065C49.6656 34.0554 49.7479 34.1223 49.8149 34.2031C49.8819 34.284 49.9322 34.3774 49.963 34.4778C49.9938 34.5782 50.0044 34.6837 49.9943 34.7882C49.9842 34.8927 49.9535 34.9942 49.9041 35.0869C49.8546 35.1795 49.7873 35.2615 49.706 35.328C49.6247 35.3945 49.5311 35.4443 49.4306 35.4746C49.33 35.5048 49.2244 35.5149 49.1199 35.5042C48.8589 35.5182 48.6047 35.5933 48.3779 35.7234C48.1511 35.8534 47.958 36.0349 47.8141 36.2532C47.75 36.3907 47.6479 36.5071 47.52 36.5886C47.392 36.6701 47.2434 36.7133 47.0916 36.7133Z" fill="#FF6C73"/>
<path d="M42.0315 18.7701C41.5855 18.6039 41.1898 18.3259 40.8824 17.9626C39.2785 15.9911 37.1833 15.4126 35.0455 15.3435C25.3768 15.0455 21.946 21.4125 21.335 31.5684C21.3281 38.1384 23.0584 43.3956 26.0366 46.2809C27.8753 48.0621 30.2144 49.9874 33.9836 50.8188C34.4472 50.9213 34.9277 50.9213 35.3914 50.8188C39.1606 49.9874 41.5008 48.0621 43.3384 46.2809C46.3165 43.3956 48.0468 38.1384 48.0399 31.5684C42.8098 26.6432 46.3484 20.468 42.0315 18.7701Z" fill="#FFB3A9"/>
<path d="M41.6378 31.4756H41.6373C40.9243 31.4756 40.3464 32.0536 40.3464 32.7665V33.4524C40.3464 34.1653 40.9243 34.7433 41.6373 34.7433H41.6378C42.3508 34.7433 42.9288 34.1653 42.9288 33.4524V32.7665C42.9288 32.0536 42.3508 31.4756 41.6378 31.4756Z" fill="#9E5969"/>
<path d="M48.0399 41.8754C48.6813 41.8754 49.2012 41.3554 49.2012 40.7141C49.2012 40.0727 48.6813 39.5527 48.0399 39.5527C47.3985 39.5527 46.8786 40.0727 46.8786 40.7141C46.8786 41.3554 47.3985 41.8754 48.0399 41.8754Z" fill="#F7F0E8"/>
<path d="M66.2709 16.8209H65.075C64.5407 16.8201 64.0285 16.6075 63.6507 16.2297C63.2729 15.8518 63.0603 15.3397 63.0594 14.8054V12.3218C63.0594 12.1104 63.1434 11.9077 63.2928 11.7583C63.4423 11.6089 63.645 11.5249 63.8563 11.5249C64.0677 11.5249 64.2704 11.6089 64.4198 11.7583C64.5692 11.9077 64.6532 12.1104 64.6532 12.3218V14.8048C64.654 14.9165 64.6987 15.0233 64.7777 15.1022C64.8566 15.1811 64.9634 15.2258 65.075 15.2267H66.2709C66.4822 15.2267 66.6849 15.3106 66.8343 15.4601C66.9838 15.6095 67.0677 15.8122 67.0677 16.0235C67.0677 16.2349 66.9838 16.4376 66.8343 16.587C66.6849 16.7364 66.4822 16.8204 66.2709 16.8204V16.8209Z" fill="#F7F0E8"/>
<path d="M13.038 14.0256L13.4811 14.8357C13.5582 14.9765 13.6739 15.0923 13.8147 15.1694L14.6249 15.6124C14.757 15.6846 14.8672 15.7911 14.944 15.9206C15.0208 16.0501 15.0614 16.1979 15.0614 16.3485C15.0614 16.499 15.0208 16.6468 14.944 16.7763C14.8672 16.9058 14.757 17.0123 14.6249 17.0845L13.8147 17.5281C13.6739 17.6052 13.5582 17.7209 13.4811 17.8617L13.038 18.6714C12.9658 18.8035 12.8594 18.9137 12.7299 18.9905C12.6004 19.0673 12.4526 19.1078 12.302 19.1078C12.1514 19.1078 12.0036 19.0673 11.8741 18.9905C11.7446 18.9137 11.6382 18.8035 11.5659 18.6714L11.1229 17.8617C11.0458 17.7209 10.9301 17.6052 10.7893 17.5281L9.97964 17.085C9.84752 17.0128 9.73728 16.9064 9.66048 16.7769C9.58368 16.6474 9.54315 16.4996 9.54315 16.349C9.54315 16.1984 9.58368 16.0506 9.66048 15.9211C9.73728 15.7916 9.84752 15.6852 9.97964 15.6129L10.7893 15.1699C10.9301 15.0928 11.0458 14.9771 11.1229 14.8363L11.5659 14.0261C11.6381 13.894 11.7445 13.7837 11.874 13.7068C12.0035 13.63 12.1513 13.5894 12.3018 13.5894C12.4524 13.5893 12.6002 13.6298 12.7297 13.7065C12.8593 13.7833 12.9658 13.8935 13.038 14.0256Z" fill="#FFB273"/>
<path d="M59.6414 34.5812L59.9925 35.2187C60.0533 35.3312 60.1457 35.4235 60.2581 35.4844L60.8993 35.8355C61.004 35.8927 61.0913 35.9769 61.1521 36.0795C61.213 36.182 61.2451 36.2991 61.2451 36.4183C61.2451 36.5375 61.213 36.6546 61.1521 36.7571C61.0913 36.8596 61.004 36.9439 60.8993 37.0011L60.2581 37.3522C60.1458 37.4132 60.0535 37.5055 59.9925 37.6179L59.6414 38.2591C59.5842 38.3637 59.4999 38.451 59.3974 38.5119C59.2948 38.5727 59.1778 38.6048 59.0586 38.6048C58.9393 38.6048 58.8223 38.5727 58.7198 38.5119C58.6172 38.451 58.5329 38.3637 58.4758 38.2591L58.1246 37.6179C58.0636 37.5055 57.9714 37.4132 57.859 37.3522L57.2178 37.0011C57.1132 36.9439 57.0258 36.8596 56.965 36.7571C56.9042 36.6546 56.8721 36.5375 56.8721 36.4183C56.8721 36.2991 56.9042 36.182 56.965 36.0795C57.0258 35.9769 57.1132 35.8927 57.2178 35.8355L57.8606 35.4844C57.9731 35.4235 58.0654 35.3312 58.1262 35.2187L58.4774 34.5775C58.535 34.4735 58.6195 34.3868 58.7221 34.3265C58.8247 34.2663 58.9415 34.2347 59.0605 34.2351C59.1794 34.2355 59.2961 34.2678 59.3983 34.3287C59.5004 34.3896 59.5844 34.4768 59.6414 34.5812Z" fill="#FFCBA4"/>
<path d="M35.2602 67.185C35.0546 67.185 34.8612 67.185 34.6758 67.1818C30.488 67.2275 20.1286 66.8068 14.8172 61.838C14.7378 61.7673 14.6734 61.6815 14.6277 61.5856C14.582 61.4896 14.556 61.3855 14.5511 61.2794C14.5463 61.1732 14.5627 61.0672 14.5994 60.9675C14.6361 60.8677 14.6925 60.7764 14.765 60.6988C14.8376 60.6211 14.9249 60.5588 15.0219 60.5154C15.1189 60.4721 15.2237 60.4485 15.3299 60.4462C15.4361 60.4439 15.5418 60.4629 15.6405 60.502C15.7393 60.5411 15.8293 60.5996 15.9052 60.674C20.9324 65.3767 31.5393 65.621 34.6758 65.5881C37.8224 65.6178 48.4379 65.3756 53.4656 60.674C53.5415 60.5996 53.6314 60.5411 53.7302 60.502C53.829 60.4629 53.9347 60.4439 54.0409 60.4462C54.1471 60.4485 54.2518 60.4721 54.3488 60.5154C54.4459 60.5588 54.5332 60.6211 54.6058 60.6988C54.6783 60.7764 54.7346 60.8677 54.7714 60.9675C54.8081 61.0672 54.8245 61.1732 54.8197 61.2794C54.8148 61.3855 54.7888 61.4896 54.7431 61.5856C54.6974 61.6815 54.633 61.7673 54.5536 61.838C49.4754 66.5916 39.7758 67.185 35.2602 67.185Z" fill="#F7F0E8"/>
<path d="M43.5982 70.9452C43.4086 70.9449 43.2254 70.877 43.0814 70.7537C42.9374 70.6304 42.842 70.4599 42.8125 70.2726C42.591 68.8607 42.2878 67.4627 41.9046 66.0859C41.8693 65.9854 41.8546 65.879 41.8611 65.7728C41.8677 65.6666 41.8955 65.5628 41.9428 65.4675C41.9902 65.3722 42.0562 65.2873 42.1368 65.2179C42.2175 65.1485 42.3113 65.096 42.4126 65.0634C42.5139 65.0308 42.6207 65.0189 42.7267 65.0282C42.8327 65.0376 42.9357 65.0681 43.0298 65.118C43.1238 65.1678 43.2069 65.236 43.2741 65.3185C43.3413 65.4009 43.3914 65.496 43.4213 65.5982C43.8315 67.0528 44.1538 68.5307 44.3866 70.024C44.4194 70.2327 44.3681 70.4458 44.2439 70.6167C44.1197 70.7875 43.9327 70.9021 43.7241 70.9351C43.6825 70.9419 43.6404 70.9453 43.5982 70.9452Z" fill="#F7F0E8"/>
<path d="M25.7769 70.9452C25.7347 70.9452 25.6926 70.9419 25.6509 70.9351C25.4423 70.9021 25.2553 70.7875 25.1311 70.6167C25.0069 70.4458 24.9556 70.2327 24.9885 70.024C25.2212 68.5307 25.5436 67.0528 25.9538 65.5982C25.9837 65.496 26.0337 65.4009 26.1009 65.3185C26.1682 65.236 26.2513 65.1678 26.3453 65.118C26.4393 65.0681 26.5424 65.0376 26.6484 65.0282C26.7544 65.0189 26.8612 65.0308 26.9625 65.0634C27.0638 65.096 27.1575 65.1485 27.2382 65.2179C27.3189 65.2873 27.3848 65.3722 27.4322 65.4675C27.4795 65.5628 27.5073 65.6666 27.5139 65.7728C27.5205 65.879 27.5057 65.9854 27.4705 66.0859C27.0871 67.4627 26.7839 68.8607 26.5626 70.2726C26.533 70.4599 26.4377 70.6304 26.2936 70.7537C26.1496 70.877 25.9664 70.9449 25.7769 70.9452Z" fill="#F7F0E8"/>
<path d="M34.7056 71.3878C34.4942 71.3878 34.2915 71.3038 34.1421 71.1544C33.9926 71.0049 33.9087 70.8023 33.9087 70.5909V66.385C33.9087 66.1737 33.9926 65.971 34.1421 65.8215C34.2915 65.6721 34.4942 65.5881 34.7056 65.5881C34.9169 65.5881 35.1196 65.6721 35.269 65.8215C35.4185 65.971 35.5024 66.1737 35.5024 66.385V70.5909C35.5024 70.8023 35.4185 71.0049 35.269 71.1544C35.1196 71.3038 34.9169 71.3878 34.7056 71.3878Z" fill="#F7F0E8"/>
<path d="M34.704 38.826C35.391 38.8036 36.0463 38.5315 36.5469 38.0604C36.6298 37.9999 36.6994 37.9229 36.7511 37.8342C36.8028 37.7454 36.8356 37.647 36.8474 37.545C36.8592 37.443 36.8497 37.3396 36.8196 37.2415C36.7895 37.1433 36.7394 37.0524 36.6724 36.9746C36.6054 36.8967 36.5231 36.8336 36.4305 36.7891C36.338 36.7447 36.2372 36.7199 36.1346 36.7163C36.032 36.7127 35.9297 36.7304 35.8343 36.7682C35.7388 36.8061 35.6522 36.8633 35.58 36.9363C35.4726 37.0634 35.3388 37.1655 35.188 37.2355C35.0371 37.3056 34.8727 37.3418 34.7064 37.3418C34.54 37.3418 34.3757 37.3056 34.2248 37.2355C34.0739 37.1655 33.9401 37.0634 33.8327 36.9363C33.6817 36.8254 33.4945 36.7756 33.3083 36.7967C33.1222 36.8179 32.9509 36.9086 32.8287 37.0506C32.7065 37.1926 32.6424 37.3755 32.6492 37.5627C32.656 37.7499 32.7331 37.9276 32.8653 38.0604C33.3649 38.5304 34.0185 38.8025 34.704 38.826Z" fill="#FF6C73"/>
<path d="M38.8945 41.7594C38.881 41.6855 38.853 41.615 38.8121 41.5519C38.7713 41.4888 38.7185 41.4343 38.6566 41.3917C38.5947 41.349 38.5251 41.3189 38.4516 41.3032C38.3781 41.2874 38.3022 41.2863 38.2283 41.2999H38.2172C37.6739 41.4034 37.1169 41.4132 36.5703 41.3286C36.4338 41.3084 36.3009 41.2813 36.14 41.2494C35.9042 41.1937 35.6603 41.1815 35.4201 41.2133C35.1679 41.2571 34.928 41.3546 34.7168 41.4991C34.7073 41.5031 34.6972 41.5051 34.687 41.5051C34.6768 41.5051 34.6667 41.5031 34.6573 41.4991C34.446 41.3545 34.2061 41.257 33.9539 41.2133C33.7137 41.1815 33.4698 41.1938 33.234 41.2494C33.0747 41.2813 32.9403 41.3084 32.8037 41.3286C32.2572 41.4132 31.7001 41.4034 31.1569 41.2999H31.1452C31.0074 41.2753 30.8655 41.302 30.7461 41.3749C30.6267 41.4478 30.5381 41.5619 30.497 41.6956C30.456 41.8294 30.4653 41.9735 30.5232 42.1009C30.5812 42.2282 30.6837 42.3299 30.8115 42.3868C31.4755 42.6802 32.196 42.8232 32.9217 42.8055C33.1018 42.8017 33.2834 42.7869 33.437 42.7762C33.5794 42.764 33.5964 42.7794 33.8179 42.9085C34.0621 43.0567 34.3414 43.1372 34.627 43.1418H34.746C35.0316 43.1373 35.3109 43.0568 35.5551 42.9085C35.775 42.7794 35.7936 42.764 35.9365 42.7762C36.0895 42.7869 36.2717 42.8017 36.4513 42.8055C37.1769 42.8232 37.8975 42.6803 38.5614 42.3868C38.6794 42.3349 38.7764 42.2448 38.8369 42.131C38.8973 42.0171 38.9176 41.8862 38.8945 41.7594Z" fill="#FF6C73"/>
<path d="M35.13 43.867C34.9992 43.9367 34.8533 43.9732 34.705 43.9732C34.5568 43.9732 34.4108 43.9367 34.28 43.867C34.1852 43.8157 34.081 43.7842 33.9736 43.7743C33.8662 43.7645 33.758 43.7765 33.6554 43.8097C33.5529 43.8429 33.4581 43.8966 33.3769 43.9675C33.2957 44.0384 33.2297 44.125 33.1829 44.2222C33.1361 44.3193 33.1096 44.4249 33.1048 44.5326C33.1 44.6403 33.1172 44.7479 33.1552 44.8488C33.1932 44.9497 33.2512 45.0418 33.3259 45.1196C33.4005 45.1974 33.4902 45.2592 33.5894 45.3013C33.9356 45.4751 34.3177 45.5655 34.705 45.5655C35.0924 45.5655 35.4744 45.4751 35.8207 45.3013C36.0008 45.2039 36.1365 45.0408 36.1996 44.8459C36.2627 44.651 36.2484 44.4393 36.1595 44.2548C36.0706 44.0702 35.9141 43.927 35.7224 43.8547C35.5307 43.7825 35.3186 43.7869 35.13 43.867Z" fill="#FF6C73"/>
<path d="M45.8384 58.1248C49.8611 64.9742 50.6967 72.9058 50.6967 72.9058H56.1367C56.1367 72.9058 55.2734 64.3383 51.1833 58.6396C51.0739 58.4671 50.9099 58.3362 50.7174 58.2677L46.8335 57.0788C46.1954 56.8833 45.5006 57.5494 45.8384 58.1248Z" fill="#FFE2D2"/>
<path d="M39.1325 31.4118C39.5043 30.8873 40.0284 30.4898 40.6338 30.2733C41.2495 30.072 41.9072 30.0354 42.5415 30.1671C42.8326 30.2245 43.1191 30.3035 43.3984 30.4035C43.5339 30.4566 43.6694 30.5097 43.7979 30.5671C43.9138 30.6143 44.0271 30.6674 44.1374 30.7265C44.2811 30.8002 44.4343 30.8539 44.5927 30.8858C44.7564 30.921 44.927 30.9065 45.0825 30.8444L45.1643 30.8146C45.225 30.792 45.2909 30.7866 45.3544 30.7992C45.418 30.8118 45.4768 30.8418 45.5243 30.8859C45.5719 30.93 45.6062 30.9864 45.6235 31.0489C45.6407 31.1114 45.6403 31.1774 45.6222 31.2396C45.5599 31.4273 45.4531 31.597 45.3107 31.7342C45.1684 31.8714 44.9949 31.9721 44.8052 32.0275C44.4429 32.1271 44.0603 32.1251 43.6991 32.0216C43.5169 31.9733 43.4133 31.9393 43.2964 31.9021C43.1796 31.8649 43.0632 31.8331 42.9474 31.8033C42.7245 31.7386 42.4984 31.6854 42.2701 31.6439C41.8642 31.5567 41.4449 31.5516 41.037 31.6291C40.6209 31.7282 40.2286 31.9088 39.8826 32.1603L39.8635 32.1725C39.7591 32.2426 39.6335 32.2737 39.5085 32.2604C39.3835 32.247 39.2672 32.1901 39.18 32.0996C39.0928 32.0091 39.0402 31.8908 39.0316 31.7654C39.0229 31.64 39.0586 31.5156 39.1325 31.4139V31.4118Z" fill="#894255"/>
<path d="M38.5024 27.0268C39.1536 26.7296 39.8507 26.5457 40.5637 26.4828C41.2481 26.4071 41.9393 26.4171 42.6212 26.5126C43.296 26.6075 43.9643 26.7438 44.6224 26.9206C45.2968 27.0867 45.9469 27.339 46.5567 27.6712C46.633 27.7145 46.6906 27.7845 46.7185 27.8676C46.7464 27.9508 46.7426 28.0413 46.7078 28.1219C46.6731 28.2024 46.6098 28.2673 46.5301 28.304C46.4505 28.3408 46.3601 28.3468 46.2762 28.3209L46.2523 28.3124C45.6568 28.1439 45.0458 28.0358 44.4285 27.99C43.8004 27.938 43.1698 27.9235 42.5399 27.9464L40.6806 27.9995C40.0843 28.0243 39.4901 28.084 38.9009 28.1786L38.8695 28.1839C38.7237 28.2089 38.5738 28.1804 38.4474 28.1035C38.321 28.0267 38.2266 27.9067 38.1817 27.7658C38.1368 27.6248 38.1444 27.4724 38.203 27.3366C38.2617 27.2008 38.3674 27.0908 38.5008 27.0268H38.5024Z" fill="#894255"/>
<path d="M41.6378 31.4756H41.6373C40.9243 31.4756 40.3464 32.0536 40.3464 32.7665V33.4524C40.3464 34.1653 40.9243 34.7433 41.6373 34.7433H41.6378C42.3508 34.7433 42.9288 34.1653 42.9288 33.4524V32.7665C42.9288 32.0536 42.3508 31.4756 41.6378 31.4756Z" fill="#9E5969"/>
<path d="M39.1325 31.4118C39.5043 30.8873 40.0284 30.4898 40.6338 30.2733C41.2495 30.072 41.9072 30.0354 42.5415 30.1671C42.8326 30.2245 43.1191 30.3035 43.3984 30.4035C43.5339 30.4566 43.6694 30.5097 43.7979 30.5671C43.9138 30.6143 44.0271 30.6674 44.1374 30.7265C44.2811 30.8002 44.4343 30.8539 44.5927 30.8858C44.7564 30.921 44.927 30.9065 45.0825 30.8444L45.1643 30.8146C45.225 30.792 45.2909 30.7866 45.3544 30.7992C45.418 30.8118 45.4768 30.8418 45.5243 30.8859C45.5719 30.93 45.6062 30.9864 45.6235 31.0489C45.6407 31.1114 45.6403 31.1774 45.6222 31.2396C45.5599 31.4273 45.4531 31.597 45.3107 31.7342C45.1684 31.8714 44.9949 31.9721 44.8052 32.0275C44.4429 32.1271 44.0603 32.1251 43.6991 32.0216C43.5169 31.9733 43.4133 31.9393 43.2964 31.9021C43.1796 31.8649 43.0632 31.8331 42.9474 31.8033C42.7245 31.7386 42.4984 31.6854 42.2701 31.6439C41.8642 31.5567 41.4449 31.5516 41.037 31.6291C40.6209 31.7282 40.2286 31.9088 39.8826 32.1603L39.8635 32.1725C39.7591 32.2426 39.6335 32.2737 39.5085 32.2604C39.3835 32.247 39.2672 32.1901 39.18 32.0996C39.0928 32.0091 39.0402 31.8908 39.0316 31.7654C39.0229 31.64 39.0586 31.5156 39.1325 31.4139V31.4118Z" fill="#894255"/>
<path d="M38.5024 27.0268C39.1536 26.7296 39.8507 26.5457 40.5637 26.4828C41.2481 26.4071 41.9393 26.4171 42.6212 26.5126C43.296 26.6075 43.9643 26.7438 44.6224 26.9206C45.2968 27.0867 45.9469 27.339 46.5567 27.6712C46.633 27.7145 46.6906 27.7845 46.7185 27.8676C46.7464 27.9508 46.7426 28.0413 46.7078 28.1219C46.6731 28.2024 46.6098 28.2673 46.5301 28.304C46.4505 28.3408 46.3601 28.3468 46.2762 28.3209L46.2523 28.3124C45.6568 28.1439 45.0458 28.0358 44.4285 27.99C43.8004 27.938 43.1698 27.9235 42.5399 27.9464L40.6806 27.9995C40.0843 28.0243 39.4901 28.084 38.9009 28.1786L38.8695 28.1839C38.7237 28.2089 38.5738 28.1804 38.4474 28.1035C38.321 28.0267 38.2266 27.9067 38.1817 27.7658C38.1368 27.6248 38.1444 27.4724 38.203 27.3366C38.2617 27.2008 38.3674 27.0908 38.5008 27.0268H38.5024Z" fill="#894255"/>
<path d="M27.7419 34.7434H27.7424C28.4554 34.7434 29.0334 34.1654 29.0334 33.4525V32.7666C29.0334 32.0537 28.4554 31.4757 27.7424 31.4757H27.7419C27.029 31.4757 26.451 32.0537 26.451 32.7666V33.4525C26.451 34.1654 27.029 34.7434 27.7419 34.7434Z" fill="#9E5969"/>
<path d="M30.2468 31.4118C29.875 30.8873 29.3509 30.4899 28.7455 30.2733C28.1298 30.072 27.4721 30.0354 26.8378 30.1671C26.5467 30.2245 26.2603 30.3036 25.9809 30.4035C25.8454 30.4566 25.7105 30.5097 25.5819 30.5671C25.466 30.6142 25.3527 30.6674 25.2425 30.7265C25.0987 30.8002 24.9455 30.8538 24.7872 30.8859C24.6232 30.9209 24.4526 30.9065 24.2968 30.8444L24.215 30.8147C24.1543 30.7922 24.0885 30.787 24.0251 30.7997C23.9616 30.8124 23.9029 30.8424 23.8554 30.8864C23.808 30.9304 23.7737 30.9868 23.7563 31.0491C23.7389 31.1115 23.7392 31.1774 23.7571 31.2397C23.8194 31.4273 23.9264 31.5971 24.0688 31.7343C24.2112 31.8715 24.3848 31.9722 24.5747 32.0275C24.9367 32.1271 25.3192 32.1251 25.6802 32.0217C25.8624 31.9733 25.9665 31.9393 26.0829 31.9021C26.1992 31.8649 26.3161 31.8331 26.4319 31.8033C26.655 31.7386 26.8812 31.6854 27.1098 31.6439C27.5157 31.5567 27.9349 31.5516 28.3428 31.6291C28.7589 31.7283 29.1512 31.9089 29.4972 32.1603L29.5158 32.1725C29.6202 32.2426 29.7458 32.2737 29.8708 32.2604C29.9958 32.247 30.1121 32.1901 30.1993 32.0996C30.2865 32.0091 30.3391 31.8908 30.3478 31.7654C30.3565 31.64 30.3207 31.5156 30.2468 31.4139V31.4118Z" fill="#894255"/>
<path d="M30.8774 27.0268C30.226 26.7296 29.5288 26.5457 28.8156 26.4828C28.1313 26.4071 27.4403 26.4171 26.7586 26.5126C26.0836 26.6076 25.4151 26.7439 24.7568 26.9206C24.0826 27.0869 23.4325 27.3392 22.8225 27.6712C22.7472 27.7151 22.6905 27.7851 22.6633 27.868C22.636 27.9508 22.6401 28.0408 22.6747 28.1208C22.7094 28.2008 22.7721 28.2654 22.8512 28.3023C22.9302 28.3392 23.02 28.3458 23.1036 28.321L23.1275 28.3125C23.723 28.1438 24.334 28.0357 24.9513 27.99C25.5792 27.938 26.2097 27.9235 26.8393 27.9464L28.6987 27.9995C29.2949 28.0243 29.8892 28.0841 30.4784 28.1786L30.5097 28.1839C30.6555 28.2089 30.8055 28.1804 30.9319 28.1035C31.0583 28.0267 31.1526 27.9067 31.1976 27.7658C31.2425 27.6248 31.2349 27.4724 31.1762 27.3366C31.1176 27.2008 31.0118 27.0908 30.8784 27.0268H30.8774Z" fill="#894255"/>
<path d="M34.704 7.54053C28.1223 7.54053 21.6219 12.1868 19.0156 18.5528C16.4964 24.7036 15.8085 29.4541 16.1602 34.1562C16.6914 41.2616 15.324 46.4121 12.9195 50.176C11.0403 53.2782 9.66856 56.6606 8.85601 60.1954C8.00601 63.8174 8.08517 66.615 9.80801 68.8643C12.4983 72.3769 15.4743 72.8487 19.5676 72.8487C22.635 72.8487 24.9927 70.2147 23.9541 67.3067C20.8787 58.6967 25.0448 58.2786 24.5502 51.4643C24.267 47.5686 21.6411 42.1387 24.0333 37.2045C26.4967 32.1236 24.2623 26.6522 28.4018 19.5027C30.3228 16.184 32.4504 15.2607 35.0461 15.3435L34.704 7.54053Z" fill="#9E5969"/>
</svg>
