<svg width="80" height="80" viewBox="0 0 80 80" fill="none" xmlns="http://www.w3.org/2000/svg">
<rect width="80" height="80" rx="10" fill="#5A6478"/>
<path d="M61.4112 66.2543C60.3278 61.1976 54.2728 54.8376 49.0965 52.0739C48.5333 50.6435 47.8147 49.2796 46.9538 48.0068C46.9538 48.0068 44.4379 52.8342 39.5987 53.0635C38.9791 53.1588 38.3456 53.037 37.8051 52.7187C37.2646 52.4004 36.8501 51.905 36.6314 51.316C35.8196 52.2745 35.2334 53.4038 34.916 54.6203C34.7945 54.6339 34.674 54.6544 34.5549 54.6819C30.3645 56.0022 23.131 61.0649 20.242 67.1594C19.3632 69.0179 19.3993 70.6713 21.0364 71.8661C22.7458 73.1091 25.5025 74.2194 30.0287 74.7987C32.4322 75.0487 34.847 75.1736 37.2634 75.1728C48.7354 75.1246 55.9821 71.8178 58.173 70.4299C59.6175 69.4886 61.8445 68.2697 61.4112 66.2543Z" fill="#D6D6EA"/>
<path d="M41.6571 55.4771C41.2684 56.6347 40.7524 57.7454 40.1187 58.7887C39.2969 58.8935 38.4623 58.8177 37.6726 58.5666C37.4121 57.5694 37.2349 56.5521 37.143 55.5254L37.1189 55.5133C37.468 55.0306 37.8171 54.584 38.1662 54.1858C38.5284 53.843 39.0108 53.6572 39.5087 53.6685C40.0067 53.6797 40.4801 53.8873 40.8265 54.2461C41.1577 54.6194 41.4408 55.033 41.6692 55.4771H41.6571Z" fill="#2F5893"/>
<path d="M40.1645 58.5669C40.1645 58.5669 37.6847 70.406 37.2634 75.173H37.0226C34.6847 75.277 32.3423 75.1517 30.0287 74.7989C31.8223 68.8492 34.0734 63.165 37.6727 58.5669C38.5014 58.6453 39.3357 58.6453 40.1645 58.5669Z" fill="#2F5893"/>
<path d="M58.9434 21.8306C58.9263 23.8356 58.7289 25.835 58.3536 27.8044C58.126 29.0835 57.625 30.298 56.8849 31.3646C56.6654 30.9288 56.3515 30.5477 55.9662 30.2491C55.5809 29.9506 55.1339 29.742 54.658 29.6388C54.0746 29.5474 53.4785 29.5797 52.9083 29.7335C52.3381 29.8874 51.8064 30.1593 51.3476 30.5319C50.8984 30.9245 50.5126 31.3845 50.204 31.8956C50.204 31.8956 47.4594 30.4353 47.6038 25.4511C47.7483 20.6961 45.4972 16.3274 39.695 17.0756C35.3494 17.6428 30.7509 20.0686 24.1903 18.4997C22.8421 18.2462 21.0725 17.2084 19.6641 14.493C17.1242 9.56905 22.156 1.71251 29.8842 4.63307C34.1937 6.2623 38.407 4.19861 46.7251 5.91232C55.1154 7.65017 59.0999 15.3981 58.9434 21.8306Z" fill="#BC6E4B"/>
<path d="M23.4199 31.4492C23.2755 27.5028 22.3486 22.4341 24.1903 18.4998C30.7509 20.0687 35.3494 17.6429 39.695 17.0757C45.4972 16.3275 47.7483 20.6962 47.6038 25.4512C47.4594 30.4354 50.204 31.8957 50.204 31.8957C50.5126 31.3846 50.8984 30.9246 51.3476 30.532C51.8064 30.1594 52.3381 29.8875 52.9083 29.7336C53.4785 29.5798 54.0746 29.5475 54.658 29.6389C55.1339 29.7421 55.5809 29.9507 55.9662 30.2493C56.3515 30.5478 56.6654 30.9289 56.8849 31.3647C57.5061 32.6385 57.6637 34.09 57.3303 35.468C56.7766 37.8937 54.7302 40.1867 52.3106 39.6316C51.7196 39.479 51.1743 39.185 50.7216 38.7747C49.8143 41.2355 48.3081 43.43 46.3399 45.1589C45.8417 45.6028 45.306 46.0026 44.7388 46.3537C42.3454 47.6717 39.7364 48.5504 37.0346 48.9484C36.6976 48.9967 36.4087 49.0208 36.18 49.0329C36.1122 49.0426 36.0438 49.0466 35.9753 49.0449C34.3725 49.117 32.7725 48.8502 31.2792 48.2618C29.786 47.6734 28.433 46.7765 27.3081 45.6296C24.708 42.7452 23.6486 38.0627 23.4199 31.4492Z" fill="#FFBF94"/>
<path d="M56.7814 31.478C56.5619 31.0422 56.248 30.6611 55.8627 30.3625C55.4774 30.064 55.0304 29.8554 54.5544 29.7522C53.971 29.6608 53.375 29.6931 52.8048 29.8469C52.2346 30.0007 51.7029 30.2727 51.244 30.6453C50.7948 31.0379 50.4091 31.4979 50.1005 32.009C50.1005 32.009 47.3558 30.5487 47.5003 25.5645C47.6448 20.8095 45.3937 16.4407 39.5915 17.189C35.2458 17.7562 30.6474 20.182 24.0868 18.6131C22.245 22.5474 23.1719 27.6161 23.3164 31.5625C23.5451 38.176 24.6044 42.8585 27.2046 45.7428C28.3295 46.8898 29.6825 47.7867 31.1757 48.3751C32.669 48.9635 34.269 49.2303 35.8718 49.1582C35.9402 49.1599 36.0087 49.1558 36.0764 49.1461C36.245 49.6892 36.5098 50.8719 36.6663 51.4391C36.8539 52.0193 37.2419 52.5132 37.7606 52.8318C38.2793 53.1505 38.8944 53.2729 39.4952 53.177C44.3344 52.9477 46.8479 48.1952 46.8479 48.1952C46.6673 47.3986 46.2363 45.2722 46.2363 45.2722C48.2046 43.5433 49.7108 41.3488 50.6181 38.888C51.0708 39.2983 51.6161 39.5923 52.2071 39.7449C54.6267 40.3 56.6731 38.007 57.2268 35.5812C57.5601 34.2033 57.4026 32.7518 56.7814 31.478Z" fill="#FFBF94"/>
<path d="M36.9287 49.0593C39.6304 48.6613 42.2395 47.7826 44.6329 46.4645C45.2 46.1135 45.7357 45.7137 46.2339 45.2698C46.2339 45.2698 46.9911 48.7913 47.1716 49.5878C46.2479 50.7591 45.0927 51.7265 43.7786 52.4292C42.4645 53.132 41.0197 53.555 39.5349 53.6718C38.2228 53.7321 36.9648 53.7804 36.6314 51.316C36.4749 50.7488 36.2425 49.6868 36.074 49.1437C36.3027 49.1317 36.5892 49.1075 36.9287 49.0593Z" fill="#FFA07B"/>
<path d="M33.2752 41.2112C32.8617 41.2373 32.4472 41.1802 32.056 41.0432C31.6649 40.9062 31.305 40.6921 30.9977 40.4135C30.9426 40.3531 30.9003 40.2822 30.8734 40.2049C30.8464 40.1277 30.8355 40.0457 30.8412 39.9641C30.8468 39.8824 30.869 39.8028 30.9063 39.73C30.9437 39.6573 30.9954 39.5929 31.0583 39.5407C31.1212 39.4886 31.1941 39.4499 31.2724 39.4269C31.3508 39.4039 31.4329 39.3971 31.514 39.4069C31.595 39.4168 31.6732 39.443 31.7438 39.4841C31.8144 39.5252 31.8759 39.5803 31.9246 39.6459C32.3172 39.9237 32.7956 40.0521 33.274 40.008C33.6585 40.0324 34.0439 39.9779 34.4067 39.8481C34.7695 39.7182 35.1021 39.5155 35.3843 39.2525C35.433 39.1872 35.4944 39.1325 35.5648 39.0916C35.6352 39.0508 35.7131 39.0247 35.7939 39.0149C35.8746 39.0051 35.9565 39.0118 36.0346 39.0346C36.1127 39.0574 36.1854 39.0958 36.2483 39.1476C36.3111 39.1994 36.3629 39.2633 36.4004 39.3357C36.4379 39.4081 36.4603 39.4873 36.4665 39.5686C36.4726 39.6499 36.4622 39.7317 36.4359 39.8088C36.4096 39.886 36.368 39.957 36.3136 40.0177C35.9225 40.4238 35.4489 40.7409 34.9249 40.9474C34.4009 41.154 33.8387 41.2452 33.2765 41.2148L33.2752 41.2112Z" fill="#F77261"/>
<path d="M32.8937 37.1755C32.4793 37.1727 32.0816 37.0117 31.7814 36.7254C31.6055 36.5812 31.4736 36.3903 31.4006 36.1746C31.3276 35.9589 31.3165 35.727 31.3685 35.5053C31.413 35.3601 31.5104 35.2372 31.6413 35.1609C31.7722 35.0846 31.927 35.0605 32.0748 35.0936C32.2226 35.1266 32.3526 35.2143 32.4388 35.3392C32.5249 35.464 32.561 35.6168 32.5397 35.7672C32.5875 35.8382 32.6537 35.895 32.7312 35.9313C32.7765 35.9538 32.8261 35.9666 32.8767 35.9686C32.9273 35.9707 32.9778 35.9621 33.0249 35.9434C33.0991 35.9117 33.179 35.8953 33.2597 35.8952C33.3403 35.8951 33.4202 35.9113 33.4946 35.9428C33.5689 35.9743 33.6361 36.0204 33.6923 36.0784C33.7485 36.1365 33.7925 36.2053 33.8216 36.2807C33.8508 36.3561 33.8645 36.4367 33.862 36.5175C33.8595 36.5984 33.8407 36.6779 33.807 36.7514C33.7732 36.8248 33.725 36.8907 33.6653 36.9451C33.6056 36.9996 33.5356 37.0414 33.4594 37.0681C33.2792 37.1392 33.0873 37.1757 32.8937 37.1755Z" fill="#F77261"/>
<path d="M43.6181 26.0545C43.5162 26.054 43.416 26.0279 43.3268 25.9784C41.414 24.9128 36.8781 25.0419 36.2088 25.7564C36.1546 25.8141 36.0896 25.8605 36.0175 25.893C35.9454 25.9255 35.8676 25.9434 35.7885 25.9458C35.7095 25.9481 35.6308 25.9348 35.5569 25.9067C35.483 25.8786 35.4153 25.8361 35.3578 25.7817C35.3002 25.7274 35.2539 25.6622 35.2215 25.5899C35.1891 25.5176 35.1712 25.4396 35.1689 25.3604C35.1665 25.2811 35.1798 25.2022 35.2078 25.1281C35.2359 25.054 35.2783 24.9862 35.3325 24.9285C36.6061 23.572 41.8245 23.7591 43.9118 24.9285C44.0284 24.9935 44.1202 25.0955 44.1727 25.2185C44.2252 25.3415 44.2354 25.4785 44.2018 25.6079C44.1682 25.7374 44.0926 25.852 43.9869 25.9337C43.8813 26.0154 43.7515 26.0596 43.6181 26.0593V26.0545Z" fill="#BC6E4B"/>
<path d="M29.0283 26.0545C28.915 26.0544 28.804 26.0222 28.7081 25.9616C27.0233 25.18 25.0991 25.0955 23.3525 25.7263C23.2088 25.798 23.0426 25.8095 22.8905 25.7584C22.7383 25.7072 22.6127 25.5976 22.5412 25.4535C22.4696 25.3095 22.4581 25.1429 22.5091 24.9903C22.5602 24.8378 22.6695 24.7118 22.8132 24.6401C23.8647 24.2363 24.9878 24.0541 26.1127 24.1047C27.2375 24.1554 28.3398 24.4379 29.3509 24.9346C29.4615 25.0044 29.5463 25.1084 29.5927 25.2309C29.6391 25.3533 29.6445 25.4875 29.608 25.6133C29.5716 25.7391 29.4953 25.8496 29.3908 25.9281C29.2862 26.0066 29.159 26.0489 29.0283 26.0485V26.0545Z" fill="#BC6E4B"/>
<path d="M39.4663 30.906V29.9043C39.466 29.7569 39.4947 29.6108 39.5509 29.4745C39.607 29.3381 39.6895 29.2143 39.7935 29.11C39.8975 29.0057 40.021 28.9231 40.157 28.8668C40.293 28.8105 40.4387 28.7817 40.5858 28.782H40.9229C41.07 28.7817 41.2157 28.8105 41.3516 28.8668C41.4876 28.9231 41.6112 29.0057 41.7152 29.11C41.8192 29.2143 41.9016 29.3381 41.9578 29.4745C42.0139 29.6108 42.0427 29.7569 42.0424 29.9043V30.906C42.0408 31.2032 41.9223 31.4878 41.7127 31.6979C41.5031 31.908 41.2193 32.0268 40.9229 32.0284H40.5858C40.2894 32.0268 40.0055 31.908 39.7959 31.6979C39.5863 31.4878 39.4679 31.2032 39.4663 30.906Z" fill="#BC6E4B"/>
<path d="M28.5841 29.9163V30.918C28.5825 31.2152 28.4641 31.4997 28.2545 31.7099C28.0449 31.92 27.761 32.0388 27.4646 32.0403H27.1276C26.8311 32.0388 26.5473 31.92 26.3377 31.7099C26.1281 31.4997 26.0096 31.2152 26.008 30.918V29.9163C26.0077 29.7688 26.0365 29.6227 26.0926 29.4864C26.1488 29.3501 26.2312 29.2263 26.3352 29.122C26.4393 29.0177 26.5628 28.935 26.6988 28.8787C26.8347 28.8224 26.9805 28.7936 27.1276 28.7939H27.4646C27.6117 28.7936 27.7574 28.8224 27.8934 28.8787C28.0294 28.935 28.1529 29.0177 28.2569 29.122C28.361 29.2263 28.4434 29.3501 28.4996 29.4864C28.5557 29.6227 28.5844 29.7688 28.5841 29.9163Z" fill="#BC6E4B"/>
<path d="M38.1903 29.3998C38.0279 29.3908 37.8755 29.3186 37.7654 29.1988C37.6553 29.0789 37.5961 28.9207 37.6004 28.7578C37.6105 28.5124 37.6946 28.2758 37.8416 28.0792C37.9886 27.8827 38.1916 27.7356 38.4238 27.6571C39.0756 27.4351 39.7723 27.3794 40.451 27.495C41.1296 27.6107 41.7688 27.8941 42.3108 28.3197C42.371 28.3734 42.4198 28.4386 42.4544 28.5115C42.489 28.5844 42.5086 28.6635 42.5122 28.7442C42.5157 28.8249 42.503 28.9054 42.4749 28.9811C42.4468 29.0568 42.4039 29.126 42.3486 29.1848C42.2933 29.2435 42.2269 29.2905 42.1531 29.323C42.0794 29.3555 41.9999 29.3728 41.9194 29.374C41.8389 29.3751 41.7589 29.3601 41.6843 29.3297C41.6097 29.2993 41.5419 29.2542 41.485 29.1971C40.924 28.7821 40.2322 28.5845 39.5373 28.6407C39.2703 28.6262 39.0054 28.6949 38.7789 28.8374C38.7795 28.9138 38.7645 28.9895 38.7348 29.0599C38.705 29.1302 38.6612 29.1937 38.6061 29.2464C38.5509 29.2991 38.4855 29.34 38.414 29.3663C38.3425 29.3927 38.2663 29.4041 38.1903 29.3998Z" fill="#7F3C3C"/>
<path d="M24.7321 29.413C24.5696 29.4036 24.4172 29.3313 24.3071 29.2112C24.197 29.0911 24.1379 28.9328 24.1422 28.7697C24.1513 28.524 24.235 28.287 24.3821 28.0903C24.5293 27.8936 24.7329 27.7466 24.9656 27.6691C25.6174 27.447 26.3141 27.3913 26.9928 27.507C27.6714 27.6227 28.3106 27.9061 28.8526 28.3317C28.9144 28.3848 28.9649 28.4501 29.0009 28.5234C29.0368 28.5967 29.0576 28.6765 29.0619 28.7581C29.0661 28.8397 29.0538 28.9213 29.0257 28.998C28.9976 29.0746 28.9542 29.1448 28.8983 29.2042C28.8423 29.2636 28.7749 29.3109 28.7001 29.3434C28.6254 29.3759 28.5448 29.3928 28.4633 29.3932C28.3818 29.3935 28.3011 29.3773 28.2261 29.3454C28.1511 29.3135 28.0833 29.2667 28.0268 29.2078C27.4663 28.7938 26.7755 28.5967 26.0815 28.6527C25.814 28.6392 25.5487 28.7074 25.3207 28.8482C25.3215 28.9247 25.3066 29.0006 25.2769 29.0712C25.2473 29.1417 25.2035 29.2055 25.1484 29.2584C25.0932 29.3113 25.0278 29.3523 24.9562 29.3789C24.8846 29.4055 24.8083 29.4171 24.7321 29.413Z" fill="#7F3C3C"/>
<path d="M33.6159 60.3528C33.0622 60.208 34.3623 56.2254 34.6873 55.3324C34.7475 55.1151 34.8317 54.8738 34.916 54.6203C35.2334 53.4038 35.8196 52.2745 36.6314 51.316C36.8501 51.905 37.2646 52.4004 37.8051 52.7187C38.3456 53.037 38.9791 53.1588 39.5987 53.0635C44.4379 52.8342 46.9538 48.0068 46.9538 48.0068C47.8147 49.2796 48.5333 50.6435 49.0965 52.0739C48.5668 53.498 46.4602 58.4581 44.7027 60.1718C44.6174 60.259 44.5117 60.3235 44.3952 60.3595C44.2787 60.3954 44.1552 60.4017 44.0357 60.3777C43.9162 60.3538 43.8045 60.3003 43.7108 60.2222C43.6171 60.1441 43.5443 60.0438 43.4989 59.9304C42.9648 58.4158 42.3541 56.9295 41.6692 55.4772C41.4408 55.0331 41.1577 54.6195 40.8265 54.2462C40.4801 53.8874 40.0067 53.6798 39.5087 53.6685C39.0108 53.6573 38.5284 53.8431 38.1662 54.1859C37.8171 54.5841 37.468 55.0307 37.1189 55.5134C35.5299 57.734 34.0854 60.4735 33.6159 60.3528Z" fill="#EFEFEF"/>
</svg>
