<svg width="80" height="80" viewBox="0 0 80 80" fill="none" xmlns="http://www.w3.org/2000/svg">
<rect width="80" height="80" rx="10" fill="#5A6478"/>
<path d="M15.2694 50.0178C20.0894 45.6356 28.2644 45.9672 28.5834 40.7086V40.6968C28.3365 37.5421 27.4394 34.4731 25.9489 31.6838C24.1542 29.4405 23.0759 26.7069 22.8546 23.8398C22.6333 20.9727 23.2794 18.1053 24.7085 15.6119C29.5875 6.36202 37.0183 5 44.0356 5C58.4009 5 64.2132 19.1769 60.6691 24.6013C59.9237 27.3715 58.6844 35.1421 58.3678 36.9637C57.4227 42.3964 55.9555 46.1425 56.0535 47.0805C56.0866 47.0462 56.1244 47.0189 56.1563 46.9834C56.1563 49.8969 61.7087 50.8326 64.8157 53.45C69.0331 56.9913 66.4696 62.7947 62.8074 63.0908C56.4717 64.7489 54.0216 66.6202 41.2062 65.5341C30.4936 64.6269 18.0456 63.6119 18.0456 63.6119C11.9498 62.5483 11.0992 53.8196 15.2694 50.0178Z" fill="#994F4F"/>
<path d="M25.7363 56.4606H25.7481C27.4311 55.4818 29.1664 54.5961 30.9461 53.8076C34.8327 52.0547 34.5965 47.8266 34.5965 45.1499C33.1662 43.6135 32.0575 41.8053 31.3359 39.8321C30.89 40.2324 30.3555 40.5207 29.7765 40.673C29.3847 40.7634 28.9784 40.7714 28.5834 40.6967C26.7522 40.4124 25.311 38.5293 24.8621 36.5514C24.6324 35.7128 24.6114 34.8305 24.8009 33.9818C24.9904 33.1332 25.3846 32.3441 25.9489 31.6837C26.3737 31.2628 26.9114 30.9747 27.4965 30.8546C28.0699 30.7631 28.6561 30.795 29.2162 30.9482C29.7764 31.1013 30.2976 31.3722 30.7452 31.7429C31.192 32.1223 31.5715 32.5748 31.8675 33.0812C33.805 33.6615 36.2858 29.2166 36.7584 22.7026C37.1837 16.7926 44.5908 14.0721 49.2335 16.2751C49.6153 16.4527 50.0295 16.5494 50.4503 16.5593H50.4976C50.9614 16.559 51.4187 16.4495 51.8325 16.2395C52.7242 15.7853 53.7315 15.6101 54.7236 15.7369C55.7158 15.8636 56.6471 16.2863 57.3967 16.9501C59.9957 18.928 60.6573 21.7231 60.6691 24.6011C60.6809 27.4792 60.043 30.4401 60.0312 32.7141C60.0342 34.6766 59.8881 36.6364 59.5941 38.5767C59.2744 41.6517 58.0813 44.5702 56.1563 46.9857C54.1244 49.2241 50.9583 50.0176 47.5442 50.0176C46.9417 52.3153 47.5087 54.5538 48.761 55.4776C50.4696 56.3071 52.2205 57.0463 54.0062 57.6923H54.018C56.0995 58.5601 58.0966 59.6187 59.9839 60.8546C59.2771 61.9046 58.435 62.8564 57.4794 63.6852V63.6971C54.9159 65.9237 51.3954 67.2028 46.0084 67.0607C40.7339 66.8956 35.5729 65.4833 30.9461 62.9391C26.5869 60.6769 23.7043 58.5451 21.3062 59.6465C22.6677 58.4322 24.1526 57.3644 25.7363 56.4606Z" fill="#FFBF94"/>
<path d="M19.0144 62.1692C23.1019 62.8443 27.9691 65.8052 33.0608 68.1029C38.5895 70.6019 52.6831 72.189 63.9061 64.2182C63.5517 63.8274 60.7046 61.3402 59.984 60.8546C58.0966 59.6187 56.0995 58.5601 54.0181 57.6923H54.0063C52.2205 57.0464 50.4697 56.3071 48.761 55.4776C47.5088 54.5538 46.9417 52.3153 47.5442 50.0176C43.9052 50.0933 40.3173 49.1499 37.1837 47.2936C36.2303 46.6972 35.3603 45.9763 34.5965 45.1499C34.5965 47.8266 34.8328 52.0548 30.9461 53.8076C29.1664 54.5961 27.4312 55.4818 25.7481 56.4606H25.7363C24.1317 57.3314 22.6433 58.4018 21.3062 59.6465C20.4625 60.411 19.695 61.2559 19.0144 62.1692Z" fill="#FFA07B"/>
<path d="M48.9441 42.4745C49.1614 42.4745 49.3812 42.465 49.6044 42.4437C50.1369 42.4385 50.6625 42.3229 51.1482 42.1042C51.6339 41.8855 52.0692 41.5684 52.4267 41.1729C52.4705 41.1086 52.5012 41.0364 52.5171 40.9603C52.533 40.8841 52.5337 40.8056 52.5194 40.7292C52.505 40.6527 52.4758 40.5799 52.4333 40.5148C52.3909 40.4497 52.336 40.3936 52.272 40.3497C52.2079 40.3059 52.1358 40.2751 52.0599 40.2592C51.9839 40.2432 51.9056 40.2424 51.8294 40.2568C51.7531 40.2712 51.6805 40.3006 51.6155 40.3431C51.5506 40.3857 51.4947 40.4407 51.4509 40.5049C50.9166 40.9946 50.2185 41.2655 49.4946 41.2641C48.9555 41.3479 48.4051 41.3206 47.8769 41.1837C47.3488 41.0469 46.8541 40.8034 46.423 40.4682C46.3686 40.4116 46.3034 40.3665 46.2313 40.3355C46.1592 40.3044 46.0817 40.2881 46.0033 40.2874C45.9249 40.2867 45.8471 40.3017 45.7745 40.3315C45.7019 40.3613 45.636 40.4052 45.5805 40.4608C45.525 40.5164 45.4812 40.5826 45.4515 40.6553C45.4218 40.7281 45.4068 40.8061 45.4075 40.8847C45.4082 40.9633 45.4245 41.041 45.4555 41.1133C45.4864 41.1855 45.5314 41.2509 45.5878 41.3055C46.5129 42.117 47.7164 42.5361 48.9441 42.4745Z" fill="#F77261"/>
<path d="M50.1763 37.2052C50.4728 37.2122 50.7678 37.16 51.044 37.0516C51.3203 36.9432 51.5722 36.7809 51.7853 36.5739C52.0004 36.3605 52.1452 36.0861 52.1999 35.7877C52.2546 35.4893 52.2167 35.1813 52.0913 34.9051C52.0286 34.7611 51.9114 34.6479 51.7655 34.5905C51.6196 34.5331 51.457 34.5362 51.3133 34.599C51.1697 34.6618 51.0568 34.7793 50.9995 34.9255C50.9423 35.0718 50.9453 35.2349 51.0079 35.3789C51.04 35.4397 51.0504 35.5097 51.0375 35.5773C51.0246 35.6449 50.9892 35.706 50.9371 35.7508C50.7573 35.8969 50.5406 35.99 50.3111 36.0197C50.0816 36.0494 49.8484 36.0145 49.6376 35.919C49.4939 35.8687 49.3364 35.876 49.1979 35.9393C49.0595 36.0026 48.9507 36.1171 48.8944 36.2588C48.838 36.4005 48.8384 36.5586 48.8954 36.7C48.9524 36.8415 49.0617 36.9554 49.2005 37.018C49.5108 37.1423 49.8421 37.2058 50.1763 37.2052Z" fill="#F77261"/>
<path d="M40.0791 27.0528C40.1923 27.0525 40.303 27.0196 40.3981 26.9581C42.1702 25.8163 46.6298 26.0923 47.6044 26.913C47.7241 27.0145 47.8791 27.0641 48.0353 27.051C48.1915 27.0379 48.3361 26.9632 48.4373 26.8432C48.5385 26.7232 48.588 26.5678 48.5749 26.4112C48.5618 26.2546 48.4873 26.1096 48.3676 26.0082C46.9405 24.8001 41.9032 24.5787 39.7625 25.962C39.6548 26.0312 39.5724 26.1336 39.5277 26.2537C39.483 26.3739 39.4785 26.5054 39.5147 26.6284C39.5509 26.7514 39.626 26.8592 39.7287 26.9358C39.8313 27.0123 39.9559 27.0534 40.0839 27.0528H40.0791Z" fill="#994F4F"/>
<path d="M54.1834 27.0529C54.2669 27.0529 54.3495 27.0352 54.4256 27.0009C54.5018 26.9666 54.5698 26.9165 54.6253 26.8539C55.1734 26.4204 58.7399 26.0864 59.6283 26.8314C59.6873 26.8844 59.7563 26.9249 59.8313 26.9506C59.9062 26.9763 59.9856 26.9866 60.0646 26.9809C60.1436 26.9753 60.2206 26.9537 60.2912 26.9176C60.3617 26.8815 60.4242 26.8315 60.4751 26.7707C60.526 26.7098 60.5641 26.6393 60.5873 26.5634C60.6105 26.4874 60.6181 26.4076 60.6099 26.3286C60.6016 26.2497 60.5776 26.1732 60.5393 26.1037C60.501 26.0342 60.4491 25.9731 60.3868 25.9242C59.3602 25.0619 57.0376 25.1993 56.3477 25.2621C55.4121 25.2649 54.4992 25.551 53.7286 26.0829C53.6571 26.1694 53.6116 26.2746 53.5975 26.3861C53.5834 26.4976 53.6012 26.6109 53.6489 26.7126C53.6966 26.8143 53.7722 26.9004 53.8668 26.9606C53.9615 27.0209 54.0713 27.0529 54.1834 27.0529Z" fill="#994F4F"/>
<path d="M51.1119 23.9C52.1724 23.976 53.2197 23.6274 54.0242 22.9305C54.8287 22.2336 55.3248 21.2453 55.4037 20.1823C55.5691 17.9794 53.9566 15.5953 50.5519 15.3027L50.455 15.8949L50.5023 16.4871C53.2194 16.724 54.3441 18.523 54.2259 20.0959C54.1886 20.5019 54.067 20.8955 53.869 21.2517C53.671 21.6078 53.401 21.9185 53.0762 22.1638C52.7514 22.4092 52.379 22.5837 51.9829 22.6763C51.5869 22.7689 51.1759 22.7775 50.7764 22.7015C50.6988 22.6965 50.621 22.7069 50.5474 22.732C50.4739 22.7572 50.406 22.7966 50.3476 22.8481C50.2893 22.8996 50.2416 22.9621 50.2073 23.032C50.173 23.102 50.1528 23.178 50.1479 23.2558C50.1429 23.3335 50.1533 23.4115 50.1784 23.4853C50.2035 23.559 50.2428 23.6271 50.2941 23.6856C50.3455 23.7441 50.4078 23.7919 50.4776 23.8263C50.5473 23.8606 50.6232 23.8809 50.7007 23.8858C50.8366 23.8953 50.9725 23.9 51.1119 23.9Z" fill="#994F4F"/>
<path d="M41.2062 30.5111V31.6836C41.1889 31.8644 41.2095 32.0467 41.2667 32.219C41.3239 32.3912 41.4163 32.5496 41.5381 32.684C41.6599 32.8183 41.8084 32.9256 41.974 32.9991C42.1396 33.0726 42.3187 33.1105 42.4998 33.1105C42.6808 33.1105 42.8599 33.0726 43.0255 32.9991C43.1911 32.9256 43.3396 32.8183 43.4614 32.684C43.5832 32.5496 43.6756 32.3912 43.7328 32.219C43.79 32.0467 43.8106 31.8644 43.7933 31.6836V30.5111C43.8106 30.3304 43.79 30.148 43.7328 29.9758C43.6756 29.8035 43.5832 29.6451 43.4614 29.5108C43.3396 29.3764 43.1911 29.2691 43.0255 29.1956C42.8599 29.1222 42.6808 29.0842 42.4998 29.0842C42.3187 29.0842 42.1396 29.1222 41.974 29.1956C41.8084 29.2691 41.6599 29.3764 41.5381 29.5108C41.4163 29.6451 41.3239 29.8035 41.2667 29.9758C41.2095 30.148 41.1889 30.3304 41.2062 30.5111Z" fill="#CC685A"/>
<path d="M54.5083 30.4757V31.6482C54.5391 31.9708 54.6887 32.2703 54.9279 32.4882C55.167 32.7062 55.4787 32.827 55.8019 32.827C56.1251 32.827 56.4367 32.7062 56.6759 32.4882C56.9151 32.2703 57.0647 31.9708 57.0955 31.6482V30.4757C57.1127 30.295 57.0921 30.1126 57.0349 29.9404C56.9778 29.7681 56.8853 29.6097 56.7635 29.4754C56.6417 29.341 56.4933 29.2337 56.3277 29.1602C56.1621 29.0868 55.983 29.0488 55.8019 29.0488C55.6208 29.0488 55.4417 29.0868 55.2761 29.1602C55.1105 29.2337 54.962 29.341 54.8402 29.4754C54.7184 29.6097 54.626 29.7681 54.5688 29.9404C54.5117 30.1126 54.491 30.295 54.5083 30.4757Z" fill="#CC685A"/>
<path d="M29.7116 36.1939C29.7537 36.1938 29.7957 36.189 29.8368 36.1797C29.9895 36.1464 30.1229 36.0539 30.2078 35.9222C30.2926 35.7906 30.3219 35.6306 30.2892 35.4773C30.128 34.8841 29.7614 34.3676 29.2552 34.0205C28.749 33.6733 28.136 33.518 27.526 33.5824C27.3703 33.601 27.2284 33.681 27.1315 33.8046C27.0345 33.9282 26.9906 34.0853 27.0092 34.2415C27.0278 34.3976 27.1076 34.5399 27.2309 34.637C27.3542 34.7342 27.5109 34.7783 27.6666 34.7596C27.9839 34.7303 28.3017 34.8094 28.5683 34.9843C28.835 35.1591 29.0347 35.4193 29.135 35.7225C29.1627 35.8554 29.235 35.9748 29.34 36.0606C29.4449 36.1464 29.5761 36.1935 29.7116 36.1939Z" fill="#F77261"/>
<path d="M59.0979 30.2069C59.2583 30.1948 59.4079 30.1213 59.5157 30.0015C59.6235 29.8818 59.6812 29.725 59.6768 29.5638C59.6768 29.2973 59.5586 28.7904 58.7317 28.396C57.9958 28.0611 57.1862 27.9219 56.381 27.9921C55.5758 28.0622 54.8023 28.3392 54.135 28.7964C54.0709 28.8439 54.017 28.9039 53.9766 28.9728C53.9363 29.0417 53.9102 29.1181 53.9001 29.1974C53.89 29.2767 53.896 29.3572 53.9177 29.4341C53.9394 29.511 53.9765 29.5827 54.0266 29.6449C54.0767 29.7071 54.1389 29.7584 54.2093 29.7959C54.2798 29.8333 54.357 29.856 54.4365 29.8628C54.5159 29.8695 54.5959 29.86 54.6716 29.8348C54.7473 29.8097 54.8171 29.7695 54.8769 29.7166C55.2325 29.4698 55.6343 29.2977 56.058 29.2106C56.4817 29.1235 56.9186 29.1232 57.3424 29.2097C57.7732 29.2379 58.1853 29.397 58.5238 29.6657C58.5238 29.7397 58.5389 29.8129 58.5682 29.8808C58.5975 29.9488 58.6404 30.01 58.6942 30.0607C58.748 30.1114 58.8115 30.1505 58.881 30.1757C58.9504 30.2008 59.0242 30.2115 59.0979 30.2069Z" fill="#7F3C3C"/>
<path d="M45.7958 30.2425C45.9562 30.2304 46.1058 30.1568 46.2136 30.0371C46.3214 29.9174 46.379 29.7606 46.3746 29.5994C46.3746 29.3341 46.2565 28.8284 45.4296 28.434C44.6914 28.0976 43.8792 27.9572 43.0713 28.0265C42.2634 28.0958 41.4868 28.3723 40.8163 28.8296C40.6942 28.9279 40.6159 29.0708 40.5989 29.227C40.5818 29.3831 40.6273 29.5397 40.7254 29.6622C40.8234 29.7847 40.966 29.8631 41.1218 29.8802C41.2775 29.8973 41.4337 29.8517 41.5559 29.7534C41.9144 29.5065 42.3188 29.3344 42.745 29.2473C43.1711 29.1603 43.6104 29.16 44.0367 29.2465C44.4648 29.2757 44.874 29.4347 45.2098 29.7024C45.2095 29.7775 45.2249 29.8519 45.2548 29.9207C45.2848 29.9895 45.3288 30.0513 45.3839 30.1021C45.4391 30.1529 45.5042 30.1917 45.5751 30.2158C45.646 30.24 45.7212 30.2491 45.7958 30.2425Z" fill="#7F3C3C"/>
<path d="M16.8643 66.2554C16.4272 67.5345 17.0061 68.8018 19.3333 70.1283C23.2791 72.3549 34.372 74.9724 46.0321 74.9605C54.5261 74.9605 61.945 72.805 64.1187 71.289C65.56 70.2704 66.7886 68.861 65.9971 67.2858C65.1884 65.7109 64.1086 64.2915 62.8074 63.0932C61.9309 62.2685 60.9864 61.5197 59.9839 60.8547C59.2772 61.9048 58.435 62.8566 57.4795 63.6854V63.6972C54.9159 65.9238 51.3954 67.2029 46.0084 67.0608C40.7339 66.8957 35.5729 65.4835 30.9461 62.9392C26.5869 60.6771 23.7044 58.5452 21.3062 59.6467H21.2944C20.0109 60.7919 18.9182 62.1353 18.0575 63.6261C17.5653 64.4563 17.1651 65.338 16.8643 66.2554Z" fill="#FF5757"/>
<path d="M56.1563 46.9858C54.1244 49.2243 50.9583 50.0178 47.5442 50.0178C46.9417 52.3155 47.5088 54.5539 48.761 55.4777C50.4697 56.3073 52.2205 57.0465 54.0062 57.6925H54.018C56.0995 58.5603 58.0966 59.6189 59.9839 60.8548C60.9863 61.5198 61.9309 62.2686 62.8074 63.0932C66.4696 62.7971 69.0331 56.9937 64.8157 53.4525C61.7087 50.835 56.1563 49.8994 56.1563 46.9858Z" fill="#7A3F3F"/>
<path d="M31.0536 63.9388C31.0768 63.94 31.1001 63.94 31.1233 63.9388C31.2788 63.9204 31.4207 63.8408 31.5178 63.7175C31.6148 63.5943 31.659 63.4374 31.6407 63.2815C31.2556 60.0031 28.7936 55.9147 26.0765 55.3462C25.9993 55.3272 25.919 55.324 25.8405 55.3368C25.762 55.3496 25.6869 55.3782 25.6197 55.4209C25.5525 55.4635 25.4946 55.5193 25.4494 55.5849C25.4042 55.6505 25.3727 55.7246 25.3568 55.8028C25.3409 55.8809 25.3409 55.9614 25.3568 56.0395C25.3726 56.1177 25.4041 56.1918 25.4492 56.2574C25.4944 56.3231 25.5523 56.3789 25.6195 56.4216C25.6867 56.4642 25.7618 56.4928 25.8402 56.5057C27.8167 56.9167 30.1109 60.3395 30.4724 63.4165C30.4893 63.5595 30.5577 63.6915 30.6647 63.7876C30.7717 63.8837 30.9099 63.9375 31.0536 63.9388Z" fill="white"/>
<path d="M58.0618 64.2893C58.2118 64.2897 58.3562 64.2329 58.4659 64.1304C58.5756 64.0279 58.6423 63.8874 58.6525 63.7374C58.7801 61.8661 56.7458 57.9838 54.5697 56.7224C54.5025 56.6829 54.4282 56.6572 54.351 56.6466C54.2738 56.636 54.1953 56.6408 54.12 56.6608C54.0447 56.6807 53.9741 56.7154 53.9122 56.7629C53.8503 56.8103 53.7984 56.8696 53.7595 56.9372C53.7205 57.0048 53.6953 57.0795 53.6852 57.157C53.6752 57.2344 53.6805 57.3131 53.7009 57.3885C53.7214 57.4638 53.7564 57.5344 53.8042 57.5961C53.8519 57.6578 53.9113 57.7095 53.979 57.7481C54.9211 58.4544 55.7146 59.3405 56.3139 60.3554C56.9132 61.3702 57.3065 62.4939 57.4711 63.6616C57.4658 63.7392 57.4759 63.8172 57.5006 63.8909C57.5253 63.9646 57.5643 64.0328 57.6153 64.0914C57.6664 64.15 57.7284 64.198 57.7979 64.2325C57.8674 64.2671 57.9431 64.2876 58.0205 64.2929L58.0618 64.2893Z" fill="white"/>
</svg>
