<svg width="80" height="80" viewBox="0 0 80 80" fill="none" xmlns="http://www.w3.org/2000/svg">
<rect width="80" height="80" rx="10" fill="#5A6478"/>
<path d="M17.8965 48.2053C20.6475 47.3548 21.823 45.7996 21.9563 43.6856C22.1502 40.4052 21.5564 36.7482 26.8523 37.0519C30.0978 36.7888 33.2849 36.0343 36.3049 34.814L41.2251 40.0529C42.0545 45.0335 41.6619 50.1417 40.0811 54.9361C37.438 62.5296 28.3586 65.6156 24.8115 65.4334C24.5946 65.4224 23.945 65.4334 23.945 65.4334C22.212 65.4334 19.4853 64.2184 19.7155 61.9707C19.8852 60.3063 17.4736 59.3221 16.2738 58.5324C15.4047 57.8944 14.7277 57.0288 14.3169 56.0304C13.9061 55.0321 13.7775 53.9397 13.9451 52.8729C14.1127 51.8061 14.5701 50.8063 15.2671 49.9829C15.9641 49.1595 16.8739 48.5445 17.8965 48.2053Z" fill="#FCA027"/>
<path d="M42.5946 61.3995C43.8186 65.3238 45.6 72.237 46.0484 74.5818C47.556 74.5818 49.7725 74.4931 50.496 74.4239C50.0731 69.8702 49.1089 65.3836 47.6239 61.0593C47.473 61.2015 47.296 61.313 47.1027 61.3874C45.8462 61.7073 44.5352 61.7488 43.2611 61.5089C42.9824 61.4724 42.7521 61.436 42.5946 61.3995Z" fill="white"/>
<path d="M47.6238 61.0596C48.4722 63.3924 50.908 74.3878 51.1019 74.3756C56.107 73.9504 59.0397 72.8691 60.7848 71.6541C62.2875 70.5971 62.3239 69.127 61.5119 67.4868C58.6277 61.6428 48.351 56.9652 48.1813 56.8923C47.9995 57.4634 47.236 57.9736 46.7271 58.3138C46.5089 58.4596 46.9452 59.2008 47.6238 61.0596Z" fill="#3ABFB2"/>
<path d="M26.5736 70.3781C28.452 71.5201 36.62 74.1444 44.2185 74.5211C44.6305 74.5575 45.0304 74.5697 45.4304 74.5697C44.7801 70.121 43.8327 65.721 42.5946 61.3995C42.3788 60.409 42.0108 59.4581 41.5039 58.5808C38.8256 57.9004 36.3534 56.5397 35.3597 54.4985C35.2506 54.6322 34.0387 55.106 33.8085 55.2397C31.5795 56.1594 29.5606 57.5246 27.8751 59.252C26.1895 60.9795 24.8725 63.033 24.0044 65.2874C23.9923 65.336 23.968 65.3846 23.9559 65.4332C23.8109 65.843 23.6895 66.2608 23.5924 66.6846C23.1924 68.4706 25.2405 69.5519 26.5736 70.3781Z" fill="#3ABFB2"/>
<path d="M26.6463 33.5407C26.4366 30.4097 25.798 27.0358 27.0365 22.6886C29.4093 14.3358 37.2163 8.97053 47.4869 9.93156C55.9628 10.7249 62.13 18.4266 62.13 26.3615C62.13 29.8192 60.1304 35.5648 59.9123 36.8818C59.7809 38.515 59.5462 40.1383 59.2094 41.7416C58.458 45.5323 53.4166 49.3837 49.3932 49.6267C48.3528 49.6854 47.3091 49.6366 46.2787 49.4809C45.3455 51.5707 45.091 55.009 46.3999 55.981C46.9645 56.3389 47.5608 56.6439 48.1813 56.8922C47.9995 57.4632 47.236 57.9735 46.7271 58.3137C46.5089 58.4595 46.9452 59.2006 47.6238 61.0595C46.6665 62.0193 43.5277 61.5819 42.5946 61.3997C42.3788 60.4092 42.0108 59.4583 41.5039 58.581C38.8256 57.9006 36.3534 56.5399 35.3597 54.4987V54.4866C37.7228 51.6922 37.1532 45.9333 37.1532 45.9333C35.2319 44.4341 33.915 42.2899 33.4449 39.8949C32.9807 40.3171 32.4246 40.6249 31.821 40.794C29.5305 41.3164 27.5794 39.3482 26.8523 37.0519C26.7845 36.8527 26.7279 36.6499 26.6826 36.4444C26.4709 35.4894 26.4585 34.5007 26.6463 33.5407Z" fill="#FCCAAE"/>
<path d="M37.1532 45.9333C37.1532 45.9333 37.7228 51.6923 35.3597 54.4867V54.4988C36.3534 56.5399 38.8256 57.9007 41.5039 58.5811C42.0108 59.4584 42.3788 60.4093 42.5946 61.3998C43.5277 61.582 46.6665 62.0194 47.6239 61.0596C46.9452 59.2007 46.5089 58.4596 46.7271 58.3138C47.2361 57.9736 47.9995 57.4633 48.1813 56.8923C47.5609 56.644 46.9645 56.339 46.3999 55.9811C45.091 55.0091 45.3455 51.5708 46.2787 49.481C43.6016 49.0324 41.0139 48.1549 38.6148 46.8822C38.1101 46.5939 37.6221 46.2771 37.1532 45.9333Z" fill="#FCAC88"/>
<path d="M26.6463 33.5406C26.7417 32.7985 27.0555 32.1016 27.5476 31.539C28.0397 30.9764 28.6879 30.5735 29.4093 30.3817C30.006 30.2824 30.617 30.3134 31.2006 30.4728C31.7842 30.6322 32.3265 30.9161 32.7905 31.3051C33.1801 31.6315 33.5014 32.0321 33.7357 32.4836H34.0872C40.195 32.6537 39.2861 20.3826 43.8064 15.0368C43.8914 14.9354 43.9892 14.8456 44.0973 14.7695C44.3703 14.5347 44.6951 14.3682 45.0448 14.2837C45.3945 14.1993 45.7592 14.1992 46.109 14.2835H46.1211C49.4109 15.0772 52.4285 16.7399 54.8603 19.0987C57.292 21.4576 59.049 24.4265 59.9486 27.6967C61.0636 32.6173 58.9064 36.5294 59.9123 36.8818C60.5219 37.1242 61.1993 37.1329 61.8149 36.9061C65.9838 35.6546 66.3352 30.6612 65.8141 24.8051C65.2566 18.7303 59.4154 2.18251 43.867 5.4143C41.3282 5.2351 38.7801 5.59239 36.3877 6.46304C33.9953 7.33369 31.8119 8.6983 29.9789 10.4685C24.7194 15.8022 23.2409 26.1537 26.6463 33.5406Z" fill="#FFB640"/>
<path d="M59.9086 27.2364C60.0274 27.2352 60.1433 27.199 60.2417 27.1324C60.3402 27.0657 60.4169 26.9715 60.4623 26.8614C60.5078 26.7514 60.52 26.6303 60.4974 26.5134C60.4748 26.3965 60.4184 26.2888 60.3352 26.2037C60.2019 26.0822 58.4629 24.8903 55.375 25.8696C55.2281 25.9229 55.1074 26.0311 55.0381 26.1715C54.9688 26.3119 54.9563 26.4738 55.0033 26.6232C55.0502 26.7726 55.1529 26.8981 55.2899 26.9735C55.4269 27.0488 55.5877 27.0681 55.7386 27.0275C57.1075 26.585 58.5905 26.6594 59.9086 27.2364Z" fill="#FFB640"/>
<path d="M40.6883 27.1378C40.7659 27.1375 40.8427 27.1227 40.9149 27.094C42.1546 26.591 45.52 26.2752 46.1054 26.7138C46.169 26.7616 46.2415 26.7965 46.3185 26.8162C46.3956 26.836 46.4758 26.8404 46.5546 26.8291C46.6334 26.8179 46.7092 26.7911 46.7777 26.7505C46.8461 26.7099 46.9059 26.6561 46.9537 26.5923C47.0014 26.5284 47.0362 26.4558 47.0559 26.3785C47.0757 26.3013 47.08 26.2208 47.0688 26.1419C47.0575 26.0629 47.0309 25.9869 46.9903 25.9183C46.9498 25.8496 46.8962 25.7897 46.8325 25.7418C45.6097 24.833 41.5402 25.5328 40.4629 25.969C40.3321 26.0216 40.2237 26.1183 40.1563 26.2424C40.089 26.3666 40.0669 26.5103 40.0939 26.649C40.1209 26.7877 40.1952 26.9126 40.3041 27.0023C40.4131 27.0919 40.5498 27.1407 40.6907 27.1402L40.6883 27.1378Z" fill="#FFB640"/>
<path d="M34.7537 54.4866V54.4988C34.7492 54.5918 34.7701 54.6842 34.8143 54.7661C34.8264 54.7904 34.8386 54.8025 34.8507 54.8268C36.1353 57.4268 39.2619 58.6053 41.1524 59.1156C42.8614 64.1841 44.2896 69.3434 45.4304 74.5699C45.6364 74.5821 46.4605 74.5821 46.6544 74.5699C46.6544 74.5335 44.8002 66.3082 43.2611 61.5091C42.6309 59.5166 42.0371 58.0829 41.6493 57.9857C38.8135 57.2689 36.7291 55.9081 35.905 54.2558C35.8617 54.1458 35.7867 54.0513 35.6896 53.9842C35.5925 53.9171 35.4776 53.8805 35.3597 53.8792C35.199 53.8792 35.0448 53.9432 34.9312 54.0571C34.8176 54.171 34.7537 54.3255 34.7537 54.4866Z" fill="white"/>
<path d="M46.3877 57.8036C46.7755 57.5484 47.4784 57.0746 47.5996 56.7101C47.6497 56.5567 47.7576 56.4291 47.9001 56.3542C48.0427 56.2793 48.2088 56.2632 48.3631 56.3092C48.5157 56.3592 48.6423 56.4679 48.715 56.6114C48.7877 56.7549 48.8006 56.9215 48.7509 57.0746C48.4153 57.7036 47.9278 58.2383 47.333 58.6297C47.3936 58.812 47.4905 59.055 47.5875 59.2858C49.4811 64.1188 50.6649 69.2017 51.1019 74.3756C50.908 74.3878 50.0961 74.4606 49.8901 74.4606C49.4645 70.0102 48.5292 65.6236 47.1027 61.3877C46.8483 60.6952 46.6422 60.1606 46.4726 59.7475C46.0605 58.7269 45.8303 58.168 46.3877 57.8036Z" fill="white"/>
<path d="M50.0864 42.0245C50.1324 42.0245 50.1785 42.0245 50.2245 42.0245C50.6311 42.026 51.0331 41.938 51.4021 41.7667C51.7711 41.5954 52.098 41.345 52.3599 41.0331C52.4579 40.9054 52.5013 40.7438 52.4805 40.584C52.4597 40.4241 52.3764 40.2791 52.249 40.1808C52.1215 40.0826 51.9604 40.0391 51.8009 40.0599C51.6415 40.0808 51.4969 40.1642 51.3988 40.292C51.2437 40.4599 51.0549 40.593 50.8447 40.6824C50.6346 40.7718 50.4079 40.8156 50.1797 40.8108C49.8228 40.8225 49.4674 40.7588 49.1367 40.6238C48.806 40.4887 48.5073 40.2855 48.2601 40.0271C48.153 39.9069 48.0028 39.8343 47.8423 39.8252C47.6819 39.8161 47.5244 39.8712 47.4045 39.9785C47.2846 40.0858 47.2121 40.2365 47.2031 40.3974C47.194 40.5582 47.249 40.7161 47.356 40.8363C47.7035 41.214 48.1259 41.5149 48.596 41.7195C49.0662 41.9241 49.5738 42.028 50.0864 42.0245Z" fill="#F77261"/>
<path d="M51.3649 38.2946C51.706 38.2911 52.0348 38.1667 52.2932 37.9435C52.5004 37.7861 52.6601 37.5743 52.7547 37.3316C52.8492 37.0889 52.8749 36.8246 52.8289 36.5681C52.7874 36.4182 52.6902 36.2898 52.5571 36.2097C52.4241 36.1295 52.2654 36.1035 52.1138 36.1372C51.9623 36.1708 51.8294 36.2615 51.7426 36.3906C51.6558 36.5196 51.6217 36.6771 51.6473 36.8306C51.6088 36.9248 51.5402 37.0034 51.4522 37.0541C51.4272 37.069 51.3988 37.0768 51.3698 37.0768C51.3408 37.0768 51.3123 37.069 51.2874 37.0541C51.1427 36.9923 50.9797 36.9893 50.8329 37.0457C50.686 37.1021 50.5668 37.2135 50.5004 37.3564C50.434 37.4994 50.4256 37.6625 50.4771 37.8115C50.5285 37.9605 50.6357 38.0837 50.7759 38.1549C50.9595 38.2447 51.1607 38.2924 51.3649 38.2946Z" fill="#F77261"/>
<path d="M31.8343 36.4992C31.8771 36.4989 31.9197 36.4944 31.9616 36.4858C32.1187 36.4523 32.2562 36.3575 32.3437 36.2224C32.4312 36.0873 32.4615 35.9229 32.4281 35.7653C32.2647 35.1436 31.8839 34.6014 31.3552 34.2374C30.8265 33.8735 30.185 33.7121 29.5475 33.7825C29.3881 33.803 29.2433 33.8861 29.145 34.0136C29.0467 34.141 29.003 34.3025 29.0234 34.4623C29.0438 34.6221 29.1267 34.7673 29.2538 34.8658C29.381 34.9643 29.542 35.0082 29.7014 34.9878C30.037 34.9589 30.3723 35.0453 30.6524 35.2327C30.9326 35.4202 31.1408 35.6975 31.2429 36.0193C31.272 36.1549 31.3465 36.2766 31.4541 36.3639C31.5617 36.4512 31.6959 36.4989 31.8343 36.4992Z" fill="#F77261"/>
<path d="M42.9339 30.0659H43.4308C43.9528 30.0659 44.376 30.4902 44.376 31.0136V32.4958C44.376 33.0192 43.9528 33.4435 43.4308 33.4435H42.9339C42.4118 33.4435 41.9886 33.0192 41.9886 32.4958V31.0136C41.9886 30.4902 42.4118 30.0659 42.9339 30.0659Z" fill="#3AAAAD"/>
<path d="M55.2344 31.05V32.5322C55.2349 32.656 55.2598 32.7784 55.3076 32.8925C55.3554 33.0066 55.4252 33.11 55.5131 33.197C55.6009 33.2839 55.705 33.3526 55.8194 33.399C55.9338 33.4455 56.0563 33.4689 56.1797 33.4677H56.6887C56.8121 33.4689 56.9345 33.4455 57.0489 33.399C57.1633 33.3526 57.2675 33.2839 57.3553 33.197C57.4431 33.11 57.513 33.0066 57.5608 32.8925C57.6086 32.7784 57.6335 32.656 57.6339 32.5322V31.05C57.6336 30.7987 57.5339 30.5579 57.3567 30.3802C57.1795 30.2026 56.9393 30.1026 56.6887 30.1023H56.1797C55.9291 30.1026 55.6889 30.2026 55.5116 30.3802C55.3344 30.5579 55.2348 30.7987 55.2344 31.05Z" fill="#3AAAAD"/>
<path d="M55.5568 30.6369C55.6941 30.637 55.8275 30.5903 55.9349 30.5044C56.3041 30.2092 56.7624 30.0484 57.2346 30.0484C57.7069 30.0484 58.1651 30.2092 58.5344 30.5044C58.6597 30.6055 58.8199 30.6524 58.9798 30.635C59.1397 30.6176 59.2861 30.5372 59.3869 30.4115C59.4877 30.2858 59.5345 30.1252 59.5171 29.9649C59.4997 29.8046 59.4196 29.6578 59.2942 29.5568C58.7101 29.089 57.9846 28.8342 57.237 28.8342C56.4894 28.8342 55.764 29.089 55.1799 29.5568C55.0817 29.6352 55.0102 29.7424 54.9754 29.8633C54.9406 29.9843 54.9441 30.1131 54.9855 30.232C55.0268 30.3509 55.1041 30.4539 55.2064 30.5269C55.3088 30.5999 55.4312 30.6391 55.5568 30.6393V30.6369Z" fill="#7F3C3C"/>
<path d="M42.0456 30.6733C42.183 30.6734 42.3163 30.6267 42.4237 30.5409C42.7956 30.2453 43.2562 30.0845 43.7307 30.0845C44.2053 30.0845 44.6659 30.2453 45.0377 30.5409C45.0994 30.5948 45.1713 30.6356 45.2491 30.6609C45.3269 30.6862 45.409 30.6954 45.4905 30.688C45.572 30.6806 45.6511 30.6568 45.7231 30.6179C45.7952 30.579 45.8586 30.5259 45.9096 30.4618C45.9606 30.3977 45.9982 30.3239 46.0199 30.2449C46.0417 30.1658 46.0474 30.0832 46.0364 30.0019C46.0255 29.9206 45.9983 29.8424 45.9564 29.7719C45.9145 29.7015 45.8588 29.6403 45.7927 29.592C45.207 29.1252 44.4808 28.8711 43.7325 28.8711C42.9843 28.8711 42.2581 29.1252 41.6723 29.592C41.5744 29.6707 41.5034 29.778 41.4689 29.899C41.4344 30.0199 41.4383 30.1487 41.4799 30.2674C41.5215 30.3861 41.5989 30.4889 41.7013 30.5616C41.8037 30.6343 41.9262 30.6733 42.0517 30.6733H42.0456Z" fill="#7F3C3C"/>
</svg>
