<svg width="80" height="80" viewBox="0 0 80 80" fill="none" xmlns="http://www.w3.org/2000/svg">
<rect width="80" height="80" rx="10" fill="#5A6478"/>
<path d="M63.8103 67.0977C61.8229 61.2327 58.623 58.1944 51.9983 55.0938L48.2759 53.9993C46.901 56.7064 43.3611 59.4583 40.3388 59.6812C38.0801 59.8468 36.4427 60.6587 36.0039 60.4395C34.754 59.8169 34.3202 58.7846 34.7702 56.8795C30.8204 58.3812 22.962 61.295 19.6621 67.8697C18.8246 69.5259 18.8621 71.0077 20.3996 72.0661C22.6995 73.6724 28.6117 75.9885 37.5989 76.001C41.3091 76.0134 45.0138 75.7134 48.6734 75.1044C52.8774 74.5304 56.9378 73.1835 60.6479 71.1322C63.0228 69.5881 64.2728 68.4425 63.8103 67.0977Z" fill="#FCEBA4"/>
<path d="M54.7919 16.5794C50.5708 10.3782 44.2386 8.04714 37.6114 8.12185C34.0213 8.18431 30.5233 9.26411 27.5268 11.2349C20.9295 16.0576 20.1246 26.3294 20.8483 30.2244C21.4333 33.3761 23.0907 34.7072 23.4494 36.5401C23.8082 38.3731 23.7994 39.9645 24.0744 41.3467C24.8494 45.2317 30.0492 49.1791 34.199 49.4281C35.1289 49.4788 36.0615 49.4497 36.9864 49.341C37.6239 51.7442 38.1363 54.9942 36.8114 55.9655C36.0839 56.3756 35.3178 56.7134 34.524 56.9741C34.074 58.8793 34.474 59.9751 35.7239 60.5977C36.7489 61.1082 38.6488 60.4234 40.0738 60.523C40.9863 59.3114 42.1028 58.2666 43.3736 57.4348L43.4611 57.385C43.2283 56.8785 43.1151 56.3255 43.1302 55.7686C43.1454 55.2117 43.2885 54.6656 43.5486 54.1724C43.1217 51.741 43.6162 49.2383 44.9361 47.1494C44.7983 46.7488 44.7307 46.3276 44.7361 45.9042C46.849 44.0954 48.4662 41.7817 49.4359 39.18C49.906 39.6033 50.4721 39.9067 51.0858 40.0641C53.0357 40.4999 54.7482 39.18 55.6856 37.3993L55.8356 37.1005C57.2462 34.4616 58.0376 31.5384 58.1505 28.5508C58.1505 22.7531 56.9081 19.6887 54.7919 16.5794Z" fill="#FFBF94"/>
<path d="M48.3859 54.7391C47.8134 50.9512 46.9085 43.6953 46.9085 43.6953C46.1607 44.6159 45.315 45.453 44.3861 46.192C42.5564 47.6104 40.4421 48.6207 38.1863 49.1543C37.7863 49.229 37.3864 49.2913 36.9864 49.3411C37.6238 51.7444 38.1363 54.9944 36.8114 55.9657C36.0839 56.3757 35.3178 56.7136 34.524 56.9743C34.074 58.8795 34.474 59.9753 35.7239 60.5979C36.7489 61.1084 38.6488 60.4235 40.0738 60.5231L40.0937 60.4982C42.9686 61.4334 44.7473 61.4297 45.9898 61.0175C47.396 60.5505 48.9584 58.5271 48.3859 54.7391Z" fill="#FFA87D"/>
<path d="M55.8294 37.1094C54.9307 39.0345 53.1395 40.5238 51.0796 40.0643C50.4659 39.9069 49.8997 39.6035 49.4296 39.1802C48.4599 41.7819 46.8428 44.0956 44.7298 45.9043C44.7244 46.3277 44.7921 46.7489 44.9298 47.1495C43.6099 49.2385 43.1155 51.7412 43.5424 54.1725C43.6279 54.7404 43.8379 55.2826 44.1574 55.7606C44.4769 56.2385 44.8981 56.6406 45.3911 56.9382C46.2415 57.2354 47.1473 57.3425 48.0439 57.2519C48.9406 57.1613 49.8063 56.8752 50.5796 56.4139C50.967 56.1815 51.3133 55.887 51.6046 55.5423C51.7468 55.4046 51.8765 55.2546 51.992 55.094C52.7847 53.8911 53.3088 52.5326 53.5288 51.1104C53.7487 49.6882 53.6595 48.2355 53.267 46.8507C53.6919 46.2812 54.0682 45.6772 54.3919 45.0451C55.5398 42.5644 56.0345 39.8333 55.8294 37.1094Z" fill="#934747"/>
<path d="M22.9982 29.43C23.0907 31.1421 23.2169 33.8717 23.4494 36.5401L23.3369 36.5526C17.2747 37.3246 15.5373 31.6963 16.0997 25.4702C16.6622 19.2441 23.112 5.18564 30.4117 6.48066C36.7739 -0.517443 49.1147 4.67137 52.4483 7.88776C59.853 15.0328 61.4979 29.7911 55.8356 37.1005C56.0379 36.6701 56.193 36.2192 56.2981 35.7557C56.8606 33.2528 56.0481 30.3141 53.5232 29.7537C52.9416 29.6467 52.3436 29.6682 51.7712 29.8167C51.1989 29.9652 50.6662 30.237 50.2109 30.6129C50.2484 32.1445 49.2734 33.2279 47.8735 32.6177C44.2097 30.8111 41.0627 28.1129 38.7238 24.7729C36.4739 21.8404 34.6365 18.7386 33.1353 16.3751C32.9641 16.1094 32.7389 15.8824 32.4742 15.7087C32.2096 15.5349 31.9114 15.4183 31.5988 15.3664C31.2861 15.3144 30.9661 15.3282 30.6591 15.407C30.3522 15.4857 30.0652 15.6276 29.8167 15.8235C26.794 18.3148 24.6253 21.6822 23.6119 25.4577C23.2857 26.7603 23.0802 28.09 22.9982 29.43Z" fill="#934747"/>
<path d="M44.8661 13.9433C44.7842 13.8949 44.6879 13.8764 44.5938 13.8912C44.4998 13.9059 44.4138 13.953 44.3508 14.0241C44.2879 14.0953 44.2518 14.1861 44.2489 14.2809C44.246 14.3757 44.2764 14.4686 44.3348 14.5435C46.4436 17.1176 48.001 20.0946 48.9109 23.2911C49.6842 25.6596 50.1218 28.124 50.2109 30.613C50.6662 30.237 51.1989 29.9652 51.7712 29.8168C52.3436 29.6683 52.9416 29.6468 53.5232 29.7538C52.6045 20.2627 47.2272 15.3902 44.8661 13.9433Z" fill="#7F3C3C"/>
<path d="M49.3096 49.4832C48.3842 49.4657 47.466 49.3177 46.5823 49.0436C45.9573 48.863 44.3161 48.1483 44.0324 47.3489C43.9765 47.1938 43.9845 47.023 44.0548 46.8738C44.1251 46.7247 44.2519 46.6094 44.4073 46.5532C44.7311 46.4286 45.0073 46.6005 45.2048 46.9267C45.7034 47.3579 46.2929 47.672 46.9297 47.8457C50.6221 48.5617 52.3133 47.9254 53.342 46.6154C53.3926 46.5511 53.4555 46.4973 53.527 46.4572C53.5985 46.417 53.6772 46.3913 53.7587 46.3815C53.8402 46.3716 53.9228 46.3779 54.0019 46.3999C54.0809 46.4219 54.1549 46.4591 54.2194 46.5096C54.284 46.56 54.338 46.6227 54.3783 46.6939C54.4186 46.7651 54.4444 46.8436 54.4543 46.9247C54.4642 47.0059 54.4579 47.0882 54.4358 47.167C54.4137 47.2457 54.3763 47.3194 54.3257 47.3837C53.7017 48.0866 52.9266 48.6404 52.0582 49.0039C51.1898 49.3673 50.2503 49.5311 49.3096 49.4832Z" fill="#7F3C3C"/>
<path d="M51.1971 35.6875C51.153 35.6872 51.109 35.6826 51.0658 35.6738C50.9037 35.6394 50.762 35.5423 50.6717 35.4038C50.5815 35.2654 50.5502 35.0968 50.5846 34.9354C50.7534 34.2983 51.1462 33.7427 51.6915 33.3698C52.2367 32.9968 52.8983 32.8312 53.5557 32.9032C53.7202 32.9241 53.8695 33.0093 53.9709 33.14C54.0723 33.2706 54.1174 33.4361 54.0963 33.5999C54.0753 33.7637 53.9898 33.9124 53.8586 34.0134C53.7275 34.1144 53.5614 34.1594 53.397 34.1384C53.0507 34.1075 52.7041 34.1954 52.4149 34.3877C52.1257 34.58 51.9112 34.8651 51.8071 35.1956C51.7771 35.3347 51.7002 35.4593 51.5892 35.5488C51.4783 35.6383 51.3399 35.6872 51.1971 35.6875Z" fill="#EF6F59"/>
<path d="M51.1358 56.0277C51.1358 57.2729 49.9859 59.726 46.4735 59.1034C41.8362 58.2816 43.2862 54.8448 43.5611 54.2097C43.7305 54.742 44.006 55.2348 44.3711 55.6584C44.7363 56.0821 45.1835 56.4279 45.6861 56.6752C46.5759 57.0322 47.5417 57.1599 48.4942 57.0468C49.4467 56.9336 50.3552 56.5831 51.1358 56.0277Z" fill="white"/>
<path d="M33.7627 17.6209C33.8377 17.7454 33.9252 17.8824 34.0002 18.0069C33.7377 17.596 33.4877 17.1975 33.2502 16.8115C33.4127 17.073 33.5877 17.347 33.7627 17.6209Z" fill="#986963"/>
<path d="M38.0625 24.1335C38.5375 24.7811 39.0375 25.441 39.5625 26.0761C39.2625 25.7274 38.975 25.3663 38.7 25.0052C38.475 24.7188 38.2625 24.4324 38.0625 24.1335Z" fill="#986963"/>
<path d="M40.0874 29.3259H39.575C39.0365 29.3259 38.6 29.7608 38.6 30.2972V31.8164C38.6 32.3528 39.0365 32.7876 39.575 32.7876H40.0874C40.6259 32.7876 41.0624 32.3528 41.0624 31.8164V30.2972C41.0624 29.7608 40.6259 29.3259 40.0874 29.3259Z" fill="#CC685A"/>
<path d="M27.9754 30.3348V31.854C27.9749 31.9808 27.9493 32.1063 27.9 32.2232C27.8506 32.3401 27.7786 32.4462 27.688 32.5353C27.5974 32.6244 27.49 32.6947 27.372 32.7424C27.254 32.79 27.1278 32.8139 27.0005 32.8128H26.4755C26.3482 32.8139 26.2219 32.79 26.1039 32.7424C25.9859 32.6947 25.8785 32.6244 25.7879 32.5353C25.6973 32.4462 25.6253 32.3401 25.576 32.2232C25.5267 32.1063 25.501 31.9808 25.5005 31.854V30.3348C25.5008 30.0773 25.6037 29.8304 25.7864 29.6484C25.9692 29.4663 26.217 29.3639 26.4755 29.3635H27.0005C27.2589 29.3639 27.5067 29.4663 27.6895 29.6484C27.8723 29.8304 27.9751 30.0773 27.9754 30.3348Z" fill="#CC685A"/>
<path d="M33.4327 42.026C33.0034 42.0531 32.5729 41.9943 32.1667 41.8529C31.7605 41.7115 31.3869 41.4905 31.0678 41.2029C31.0156 41.1398 30.9764 41.0671 30.9525 40.9889C30.9285 40.9106 30.9202 40.8285 30.9281 40.7471C30.936 40.6657 30.9599 40.5866 30.9985 40.5144C31.037 40.4422 31.0895 40.3783 31.1528 40.3263C31.2162 40.2743 31.2892 40.2353 31.3677 40.2114C31.4463 40.1875 31.5287 40.1792 31.6104 40.1871C31.6921 40.195 31.7715 40.2188 31.844 40.2572C31.9164 40.2956 31.9806 40.3479 32.0328 40.411C32.4398 40.6979 32.9363 40.8304 33.4327 40.7846C33.832 40.8101 34.2323 40.7541 34.6091 40.62C34.9858 40.486 35.3312 40.2767 35.6239 40.005C35.6759 39.9418 35.74 39.8893 35.8124 39.8507C35.8847 39.8121 35.9641 39.788 36.0458 39.7799C36.1275 39.7718 36.21 39.7798 36.2886 39.8035C36.3672 39.8272 36.4404 39.866 36.5039 39.9179C36.5674 39.9697 36.6201 40.0335 36.6588 40.1056C36.6976 40.1777 36.7217 40.2567 36.7299 40.3381C36.738 40.4195 36.7299 40.5018 36.7062 40.5801C36.6824 40.6584 36.6434 40.7312 36.5914 40.7945C36.1846 41.2137 35.6922 41.541 35.1475 41.7541C34.6027 41.9672 34.0184 42.0612 33.434 42.0298L33.4327 42.026Z" fill="#EF6F59"/>
<path d="M33.0377 37.8621C32.6071 37.8594 32.1937 37.6933 31.8815 37.3976C31.6989 37.2486 31.5621 37.0514 31.4867 36.8286C31.4113 36.6057 31.4005 36.3662 31.4553 36.1375C31.5039 35.9904 31.6057 35.8667 31.7409 35.7904C31.876 35.7141 32.0349 35.6907 32.1865 35.7247C32.338 35.7588 32.4715 35.8479 32.5607 35.9746C32.6499 36.1013 32.6885 36.2566 32.669 36.4102C32.7201 36.4819 32.7884 36.5397 32.8678 36.5783C32.9152 36.6019 32.9672 36.6152 33.0202 36.6174C33.0732 36.6195 33.126 36.6105 33.1752 36.5907C33.3284 36.5373 33.4963 36.5452 33.6437 36.6129C33.791 36.6806 33.9061 36.8027 33.9647 36.9534C34.0233 37.1041 34.0208 37.2717 33.9577 37.4205C33.8945 37.5694 33.7758 37.688 33.6265 37.7513C33.4387 37.824 33.2392 37.8615 33.0377 37.8621Z" fill="#EF6F59"/>
<path d="M23.5906 26.3065C23.4624 26.3057 23.3374 26.2656 23.2328 26.1917C23.1282 26.1178 23.0489 26.0136 23.0058 25.8933C22.9627 25.7729 22.9578 25.6423 22.9917 25.519C23.0257 25.3958 23.0969 25.286 23.1956 25.2045C23.3531 25.08 24.8281 24.019 27.9755 25.009C28.0538 25.0335 28.1264 25.0732 28.1893 25.1257C28.2523 25.1782 28.3042 25.2425 28.3421 25.315C28.3801 25.3875 28.4033 25.4668 28.4106 25.5482C28.4178 25.6297 28.4088 25.7117 28.3842 25.7897C28.3596 25.8677 28.3198 25.9401 28.2671 26.0028C28.2143 26.0655 28.1498 26.1172 28.077 26.155C28.0042 26.1928 27.9247 26.216 27.8429 26.2232C27.7611 26.2304 27.6788 26.2214 27.6005 26.1969C25.0881 25.405 23.9756 26.1782 23.9619 26.1882C23.8536 26.2653 23.7238 26.3067 23.5906 26.3065Z" fill="#934747"/>
<path d="M40.8336 26.0499C40.9334 26.0501 41.0319 26.0278 41.1217 25.9847C41.2116 25.9416 41.2904 25.8787 41.3524 25.8008C41.4037 25.738 41.4418 25.6655 41.4642 25.5876C41.4867 25.5097 41.4931 25.4282 41.483 25.3478C41.473 25.2674 41.4467 25.1898 41.4058 25.1198C41.3649 25.0498 41.3101 24.9888 41.2449 24.9404C41.0799 24.8159 39.545 23.755 36.2663 24.7461C36.1867 24.7691 36.1124 24.8076 36.0479 24.8595C35.9833 24.9113 35.9297 24.9754 35.8903 25.0481C35.8509 25.1208 35.8263 25.2005 35.8181 25.2827C35.81 25.3649 35.8183 25.4479 35.8426 25.5269C35.8992 25.6868 36.016 25.8185 36.1683 25.8943C36.3206 25.97 36.4965 25.9838 36.6588 25.9328C39.2737 25.1409 40.4349 25.9142 40.4462 25.9241C40.5593 26.0047 40.6946 26.0486 40.8336 26.0499Z" fill="#934747"/>
<path d="M27.638 29.9114C27.496 29.9111 27.3582 29.8633 27.2467 29.7756C26.8662 29.4735 26.394 29.3089 25.9074 29.3089C25.4208 29.3089 24.9486 29.4735 24.5681 29.7756C24.4388 29.8792 24.2735 29.9273 24.1086 29.9094C23.9437 29.8916 23.7927 29.8092 23.6888 29.6804C23.5848 29.5516 23.5365 29.3869 23.5544 29.2226C23.5724 29.0583 23.6551 28.9079 23.7844 28.8044C24.3868 28.3247 25.135 28.0635 25.9062 28.0635C26.6773 28.0635 27.4255 28.3247 28.028 28.8044C28.1293 28.8849 28.2031 28.9948 28.239 29.1189C28.2749 29.243 28.2711 29.3751 28.2283 29.497C28.1854 29.6189 28.1056 29.7245 27.9998 29.7992C27.8941 29.8739 27.7676 29.9139 27.638 29.9138V29.9114Z" fill="#7F3C3C"/>
<path d="M37.525 29.9488C37.3957 29.9486 37.2696 29.9084 37.1642 29.8337C37.0588 29.7591 36.9792 29.6538 36.9364 29.5322C36.8936 29.4106 36.8897 29.2788 36.9253 29.1549C36.9609 29.031 37.0342 28.9212 37.1351 28.8406C37.7393 28.3624 38.4883 28.1021 39.26 28.1021C40.0317 28.1021 40.7806 28.3624 41.3849 28.8406C41.4531 28.89 41.5105 28.9528 41.5537 29.025C41.5969 29.0972 41.625 29.1773 41.6363 29.2606C41.6475 29.3439 41.6417 29.4287 41.6193 29.5097C41.5968 29.5907 41.5581 29.6663 41.5055 29.732C41.4528 29.7977 41.3874 29.8522 41.3131 29.892C41.2388 29.9318 41.1572 29.9563 41.0732 29.9639C40.9892 29.9714 40.9045 29.962 40.8242 29.9361C40.7439 29.9101 40.6698 29.8683 40.6062 29.8131C40.2232 29.5094 39.7482 29.3441 39.2587 29.3441C38.7693 29.3441 38.2942 29.5094 37.9113 29.8131C37.8012 29.8997 37.6653 29.9474 37.525 29.9488Z" fill="#7F3C3C"/>
<path d="M43.3498 57.5115L43.4373 57.4617C43.7756 57.9715 44.2383 58.3875 44.782 58.6706C45.3257 58.9537 45.9326 59.0947 46.5459 59.0804C47.573 59.2352 48.623 59.0971 49.5746 58.682C52.4744 64.9579 52.8369 71.159 48.4371 71.9186C48.3371 71.9311 48.2246 71.956 48.0996 71.9684C45.1997 72.3171 39.2 71.2088 37.9875 68.9799C36.8626 66.8879 37.9 63.4138 40.0499 60.5996C40.9625 59.388 42.079 58.3432 43.3498 57.5115Z" fill="#934747"/>
</svg>
